<svg width="236" height="148" viewBox="0 0 236 148" fill="none" xmlns="http://www.w3.org/2000/svg">
<g filter="url(#filter0_d_279_2241)">
<rect x="40" y="36" width="156" height="68" rx="10" fill="white" shape-rendering="crispEdges"/>
<path d="M61.62 76V64.192H65.13C65.922 64.192 66.624 64.288 67.236 64.48C67.848 64.672 68.322 64.984 68.658 65.416C69.006 65.836 69.18 66.388 69.18 67.072C69.18 67.684 69.03 68.224 68.73 68.692C68.442 69.148 68.016 69.466 67.452 69.646V69.718C68.196 69.85 68.784 70.15 69.216 70.618C69.648 71.074 69.864 71.698 69.864 72.49C69.864 73.282 69.672 73.936 69.288 74.452C68.916 74.968 68.394 75.358 67.722 75.622C67.05 75.874 66.27 76 65.382 76H61.62ZM63.114 69.214H64.86C65.868 69.214 66.594 69.04 67.038 68.692C67.482 68.344 67.704 67.87 67.704 67.27C67.704 66.574 67.47 66.088 67.002 65.812C66.534 65.524 65.844 65.38 64.932 65.38H63.114V69.214ZM63.114 74.812H65.166C66.186 74.812 66.978 74.626 67.542 74.254C68.106 73.87 68.388 73.282 68.388 72.49C68.388 71.758 68.112 71.224 67.56 70.888C67.008 70.54 66.21 70.366 65.166 70.366H63.114V74.812ZM75.244 76.216C74.464 76.216 73.75 76.036 73.102 75.676C72.466 75.304 71.962 74.782 71.59 74.11C71.218 73.426 71.032 72.598 71.032 71.626C71.032 70.678 71.224 69.862 71.608 69.178C71.992 68.494 72.484 67.966 73.084 67.594C73.684 67.222 74.32 67.036 74.992 67.036C75.736 67.036 76.366 67.21 76.882 67.558C77.41 67.894 77.806 68.368 78.07 68.98C78.334 69.592 78.466 70.312 78.466 71.14C78.466 71.296 78.46 71.446 78.448 71.59C78.448 71.734 78.43 71.878 78.394 72.022H72.094V70.852H77.134C77.134 70.012 76.948 69.37 76.576 68.926C76.216 68.47 75.694 68.242 75.01 68.242C74.614 68.242 74.224 68.356 73.84 68.584C73.456 68.8 73.138 69.154 72.886 69.646C72.646 70.138 72.526 70.792 72.526 71.608C72.526 72.352 72.652 72.976 72.904 73.48C73.168 73.984 73.522 74.368 73.966 74.632C74.41 74.884 74.896 75.01 75.424 75.01C75.844 75.01 76.234 74.95 76.594 74.83C76.966 74.71 77.302 74.548 77.602 74.344L78.142 75.316C77.758 75.58 77.326 75.796 76.846 75.964C76.378 76.132 75.844 76.216 75.244 76.216ZM82.0892 76L86.0852 64.192H87.7772L91.7732 76H90.1892L88.1192 69.394C87.9032 68.734 87.6992 68.08 87.5072 67.432C87.3152 66.772 87.1232 66.1 86.9312 65.416H86.8592C86.6792 66.1 86.4932 66.772 86.3012 67.432C86.1092 68.08 85.9052 68.734 85.6892 69.394L83.6012 76H82.0892ZM84.1772 72.4V71.212H89.6312V72.4H84.1772ZM94.2404 76L91.8104 67.252H93.3584L94.6364 72.31C94.7324 72.706 94.8224 73.102 94.9064 73.498C94.9904 73.894 95.0684 74.326 95.1404 74.794H95.2124C95.3084 74.326 95.3984 73.894 95.4824 73.498C95.5784 73.102 95.6744 72.706 95.7704 72.31L97.0664 67.252H98.6864L100 72.31C100.108 72.706 100.204 73.102 100.288 73.498C100.384 73.894 100.48 74.326 100.576 74.794H100.648C100.744 74.326 100.834 73.894 100.918 73.498C101.002 73.102 101.086 72.706 101.17 72.31L102.448 67.252H103.888L101.53 76H99.6044L98.4344 71.32C98.3384 70.912 98.2424 70.51 98.1464 70.114C98.0624 69.706 97.9724 69.244 97.8764 68.728H97.8044C97.7204 69.244 97.6304 69.706 97.5344 70.114C97.4504 70.522 97.3544 70.924 97.2464 71.32L96.0764 76H94.2404ZM107.272 76.216C106.792 76.216 106.354 76.12 105.958 75.928C105.574 75.724 105.268 75.442 105.04 75.082C104.812 74.71 104.698 74.26 104.698 73.732C104.698 72.748 105.13 72.004 105.994 71.5C106.858 70.996 108.226 70.642 110.098 70.438C110.086 70.078 110.026 69.73 109.918 69.394C109.822 69.058 109.642 68.788 109.378 68.584C109.114 68.38 108.748 68.278 108.28 68.278C107.776 68.278 107.302 68.374 106.858 68.566C106.414 68.746 106.018 68.95 105.67 69.178L105.094 68.17C105.358 67.99 105.67 67.816 106.03 67.648C106.39 67.468 106.78 67.324 107.2 67.216C107.62 67.096 108.064 67.036 108.532 67.036C109.24 67.036 109.816 67.186 110.26 67.486C110.716 67.774 111.046 68.188 111.25 68.728C111.466 69.268 111.574 69.904 111.574 70.636V76H110.35L110.224 74.956H110.17C109.75 75.304 109.3 75.604 108.82 75.856C108.34 76.096 107.824 76.216 107.272 76.216ZM107.686 74.992C108.118 74.992 108.52 74.896 108.892 74.704C109.276 74.512 109.678 74.23 110.098 73.858V71.5C109.114 71.62 108.334 71.776 107.758 71.968C107.194 72.148 106.786 72.376 106.534 72.652C106.282 72.928 106.156 73.258 106.156 73.642C106.156 74.122 106.306 74.47 106.606 74.686C106.906 74.89 107.266 74.992 107.686 74.992ZM113.966 76V67.252H115.19L115.316 68.836H115.37C115.658 68.284 116.018 67.846 116.45 67.522C116.882 67.198 117.35 67.036 117.854 67.036C118.046 67.036 118.214 67.048 118.358 67.072C118.502 67.096 118.646 67.144 118.79 67.216L118.466 68.476C118.334 68.44 118.208 68.416 118.088 68.404C117.98 68.38 117.836 68.368 117.656 68.368C117.284 68.368 116.894 68.518 116.486 68.818C116.09 69.118 115.742 69.64 115.442 70.384V76H113.966ZM123.217 76.216C122.437 76.216 121.723 76.036 121.075 75.676C120.439 75.304 119.935 74.782 119.563 74.11C119.191 73.426 119.005 72.598 119.005 71.626C119.005 70.678 119.197 69.862 119.581 69.178C119.965 68.494 120.457 67.966 121.057 67.594C121.657 67.222 122.293 67.036 122.965 67.036C123.709 67.036 124.339 67.21 124.855 67.558C125.383 67.894 125.779 68.368 126.043 68.98C126.307 69.592 126.439 70.312 126.439 71.14C126.439 71.296 126.433 71.446 126.421 71.59C126.421 71.734 126.403 71.878 126.367 72.022H120.067V70.852H125.107C125.107 70.012 124.921 69.37 124.549 68.926C124.189 68.47 123.667 68.242 122.983 68.242C122.587 68.242 122.197 68.356 121.813 68.584C121.429 68.8 121.111 69.154 120.859 69.646C120.619 70.138 120.499 70.792 120.499 71.608C120.499 72.352 120.625 72.976 120.877 73.48C121.141 73.984 121.495 74.368 121.939 74.632C122.383 74.884 122.869 75.01 123.397 75.01C123.817 75.01 124.207 74.95 124.567 74.83C124.939 74.71 125.275 74.548 125.575 74.344L126.115 75.316C125.731 75.58 125.299 75.796 124.819 75.964C124.351 76.132 123.817 76.216 123.217 76.216Z" fill="#292A33"/>
<path d="M174 67.0801V68.0001C173.999 70.1565 173.301 72.2548 172.009 73.9819C170.718 75.7091 168.903 76.9726 166.835 77.584C164.767 78.1954 162.557 78.122 160.534 77.3747C158.512 76.6274 156.785 75.2462 155.611 73.4372C154.437 71.6281 153.88 69.4882 154.022 67.3364C154.164 65.1847 154.997 63.1364 156.398 61.4972C157.799 59.8579 159.693 58.7155 161.796 58.2403C163.9 57.765 166.1 57.9824 168.07 58.8601" stroke="#67A24F" stroke-width="2" stroke-linecap="round" stroke-linejoin="round"/>
<path d="M174 60L164 70.01L161 67.01" stroke="#67A24F" stroke-width="2" stroke-linecap="round" stroke-linejoin="round"/>
</g>
<defs>
<filter id="filter0_d_279_2241" x="0" y="0" width="236" height="148" filterUnits="userSpaceOnUse" color-interpolation-filters="sRGB">
<feFlood flood-opacity="0" result="BackgroundImageFix"/>
<feColorMatrix in="SourceAlpha" type="matrix" values="0 0 0 0 0 0 0 0 0 0 0 0 0 0 0 0 0 0 127 0" result="hardAlpha"/>
<feOffset dy="4"/>
<feGaussianBlur stdDeviation="20"/>
<feComposite in2="hardAlpha" operator="out"/>
<feColorMatrix type="matrix" values="0 0 0 0 0.266667 0 0 0 0 0.266667 0 0 0 0 0.266667 0 0 0 0.12 0"/>
<feBlend mode="normal" in2="BackgroundImageFix" result="effect1_dropShadow_279_2241"/>
<feBlend mode="normal" in="SourceGraphic" in2="effect1_dropShadow_279_2241" result="shape"/>
</filter>
</defs>
</svg>
