<svg width="250" height="148" viewBox="0 0 250 148" fill="none" xmlns="http://www.w3.org/2000/svg">
<g filter="url(#filter0_d_279_2238)">
<rect x="40" y="36" width="170" height="68" rx="10" fill="white" shape-rendering="crispEdges"/>
<path d="M61.62 76V64.192H65.13C65.922 64.192 66.624 64.288 67.236 64.48C67.848 64.672 68.322 64.984 68.658 65.416C69.006 65.836 69.18 66.388 69.18 67.072C69.18 67.684 69.03 68.224 68.73 68.692C68.442 69.148 68.016 69.466 67.452 69.646V69.718C68.196 69.85 68.784 70.15 69.216 70.618C69.648 71.074 69.864 71.698 69.864 72.49C69.864 73.282 69.672 73.936 69.288 74.452C68.916 74.968 68.394 75.358 67.722 75.622C67.05 75.874 66.27 76 65.382 76H61.62ZM63.114 69.214H64.86C65.868 69.214 66.594 69.04 67.038 68.692C67.482 68.344 67.704 67.87 67.704 67.27C67.704 66.574 67.47 66.088 67.002 65.812C66.534 65.524 65.844 65.38 64.932 65.38H63.114V69.214ZM63.114 74.812H65.166C66.186 74.812 66.978 74.626 67.542 74.254C68.106 73.87 68.388 73.282 68.388 72.49C68.388 71.758 68.112 71.224 67.56 70.888C67.008 70.54 66.21 70.366 65.166 70.366H63.114V74.812ZM75.244 76.216C74.464 76.216 73.75 76.036 73.102 75.676C72.466 75.304 71.962 74.782 71.59 74.11C71.218 73.426 71.032 72.598 71.032 71.626C71.032 70.678 71.224 69.862 71.608 69.178C71.992 68.494 72.484 67.966 73.084 67.594C73.684 67.222 74.32 67.036 74.992 67.036C75.736 67.036 76.366 67.21 76.882 67.558C77.41 67.894 77.806 68.368 78.07 68.98C78.334 69.592 78.466 70.312 78.466 71.14C78.466 71.296 78.46 71.446 78.448 71.59C78.448 71.734 78.43 71.878 78.394 72.022H72.094V70.852H77.134C77.134 70.012 76.948 69.37 76.576 68.926C76.216 68.47 75.694 68.242 75.01 68.242C74.614 68.242 74.224 68.356 73.84 68.584C73.456 68.8 73.138 69.154 72.886 69.646C72.646 70.138 72.526 70.792 72.526 71.608C72.526 72.352 72.652 72.976 72.904 73.48C73.168 73.984 73.522 74.368 73.966 74.632C74.41 74.884 74.896 75.01 75.424 75.01C75.844 75.01 76.234 74.95 76.594 74.83C76.966 74.71 77.302 74.548 77.602 74.344L78.142 75.316C77.758 75.58 77.326 75.796 76.846 75.964C76.378 76.132 75.844 76.216 75.244 76.216ZM83.6552 76V64.192H85.1492V76H83.6552ZM87.8797 76V67.252H89.1037L89.2297 68.512H89.2837C89.7037 68.092 90.1477 67.744 90.6157 67.468C91.0837 67.18 91.6177 67.036 92.2177 67.036C93.1417 67.036 93.8137 67.33 94.2338 67.918C94.6657 68.494 94.8817 69.34 94.8817 70.456V76H93.4057V70.654C93.4057 69.826 93.2737 69.232 93.0097 68.872C92.7577 68.5 92.3377 68.314 91.7497 68.314C91.3057 68.314 90.9037 68.428 90.5437 68.656C90.1957 68.884 89.7997 69.22 89.3557 69.664V76H87.8797ZM99.6495 76.216C99.0135 76.216 98.4075 76.108 97.8315 75.892C97.2675 75.664 96.7875 75.352 96.3915 74.956L97.0755 74.092C97.4595 74.404 97.8555 74.644 98.2635 74.812C98.6835 74.98 99.1635 75.064 99.7035 75.064C100.28 75.064 100.712 74.932 101 74.668C101.288 74.392 101.432 74.068 101.432 73.696C101.432 73.396 101.33 73.15 101.126 72.958C100.934 72.754 100.688 72.586 100.388 72.454C100.1 72.31 99.7875 72.178 99.4515 72.058C99.0195 71.902 98.6055 71.722 98.2095 71.518C97.8135 71.302 97.4895 71.038 97.2375 70.726C96.9975 70.402 96.8775 70 96.8775 69.52C96.8775 68.812 97.1415 68.224 97.6695 67.756C98.2095 67.276 98.9535 67.036 99.9015 67.036C100.442 67.036 100.946 67.132 101.414 67.324C101.882 67.504 102.284 67.738 102.62 68.026L101.936 68.872C101.624 68.656 101.306 68.488 100.982 68.368C100.658 68.248 100.298 68.188 99.9015 68.188C99.3495 68.188 98.9415 68.314 98.6775 68.566C98.4255 68.818 98.2995 69.112 98.2995 69.448C98.2995 69.712 98.3775 69.934 98.5335 70.114C98.6895 70.282 98.9055 70.432 99.1815 70.564C99.4695 70.696 99.7935 70.822 100.154 70.942C100.61 71.11 101.042 71.302 101.45 71.518C101.87 71.722 102.206 71.992 102.458 72.328C102.722 72.652 102.854 73.078 102.854 73.606C102.854 74.086 102.728 74.524 102.476 74.92C102.236 75.304 101.876 75.616 101.396 75.856C100.928 76.096 100.346 76.216 99.6495 76.216ZM104.545 79.69V67.252H105.769L105.895 68.26H105.949C106.345 67.924 106.783 67.636 107.263 67.396C107.743 67.156 108.235 67.036 108.739 67.036C109.483 67.036 110.113 67.222 110.629 67.594C111.145 67.954 111.535 68.47 111.799 69.142C112.063 69.802 112.195 70.588 112.195 71.5C112.195 72.484 112.015 73.33 111.655 74.038C111.307 74.746 110.845 75.286 110.269 75.658C109.693 76.03 109.075 76.216 108.415 76.216C108.019 76.216 107.617 76.126 107.209 75.946C106.801 75.766 106.393 75.52 105.985 75.208L106.021 76.738V79.69H104.545ZM108.163 74.974C108.643 74.974 109.069 74.836 109.441 74.56C109.825 74.284 110.125 73.888 110.341 73.372C110.557 72.844 110.665 72.22 110.665 71.5C110.665 70.864 110.587 70.306 110.431 69.826C110.275 69.334 110.029 68.956 109.693 68.692C109.357 68.416 108.913 68.278 108.361 68.278C108.001 68.278 107.629 68.38 107.245 68.584C106.861 68.776 106.453 69.07 106.021 69.466V74.056C106.429 74.392 106.813 74.632 107.173 74.776C107.545 74.908 107.875 74.974 108.163 74.974ZM114.169 76V67.252H115.645V76H114.169ZM114.907 65.452C114.619 65.452 114.379 65.362 114.187 65.182C114.007 65.002 113.917 64.768 113.917 64.48C113.917 64.192 114.007 63.958 114.187 63.778C114.379 63.598 114.619 63.508 114.907 63.508C115.195 63.508 115.429 63.598 115.609 63.778C115.801 63.958 115.897 64.192 115.897 64.48C115.897 64.768 115.801 65.002 115.609 65.182C115.429 65.362 115.195 65.452 114.907 65.452ZM118.239 76V67.252H119.463L119.589 68.836H119.643C119.931 68.284 120.291 67.846 120.723 67.522C121.155 67.198 121.623 67.036 122.127 67.036C122.319 67.036 122.487 67.048 122.631 67.072C122.775 67.096 122.919 67.144 123.063 67.216L122.739 68.476C122.607 68.44 122.481 68.416 122.361 68.404C122.253 68.38 122.109 68.368 121.929 68.368C121.557 68.368 121.167 68.518 120.759 68.818C120.363 69.118 120.015 69.64 119.715 70.384V76H118.239ZM127.489 76.216C126.709 76.216 125.995 76.036 125.347 75.676C124.711 75.304 124.207 74.782 123.835 74.11C123.463 73.426 123.277 72.598 123.277 71.626C123.277 70.678 123.469 69.862 123.853 69.178C124.237 68.494 124.729 67.966 125.329 67.594C125.929 67.222 126.565 67.036 127.237 67.036C127.981 67.036 128.611 67.21 129.127 67.558C129.655 67.894 130.051 68.368 130.315 68.98C130.579 69.592 130.711 70.312 130.711 71.14C130.711 71.296 130.705 71.446 130.693 71.59C130.693 71.734 130.675 71.878 130.639 72.022H124.339V70.852H129.379C129.379 70.012 129.193 69.37 128.821 68.926C128.461 68.47 127.939 68.242 127.255 68.242C126.859 68.242 126.469 68.356 126.085 68.584C125.701 68.8 125.383 69.154 125.131 69.646C124.891 70.138 124.771 70.792 124.771 71.608C124.771 72.352 124.897 72.976 125.149 73.48C125.413 73.984 125.767 74.368 126.211 74.632C126.655 74.884 127.141 75.01 127.669 75.01C128.089 75.01 128.479 74.95 128.839 74.83C129.211 74.71 129.547 74.548 129.847 74.344L130.387 75.316C130.003 75.58 129.571 75.796 129.091 75.964C128.623 76.132 128.089 76.216 127.489 76.216ZM135.501 76.216C134.397 76.216 133.515 75.82 132.855 75.028C132.207 74.224 131.883 73.096 131.883 71.644C131.883 70.696 132.057 69.88 132.405 69.196C132.765 68.5 133.233 67.966 133.809 67.594C134.385 67.222 135.009 67.036 135.681 67.036C136.197 67.036 136.635 67.126 136.995 67.306C137.367 67.474 137.745 67.72 138.129 68.044L138.057 66.55V63.184H139.551V76H138.327L138.201 74.974H138.147C137.811 75.31 137.415 75.604 136.959 75.856C136.503 76.096 136.017 76.216 135.501 76.216ZM135.825 74.974C136.233 74.974 136.617 74.872 136.977 74.668C137.337 74.464 137.697 74.164 138.057 73.768V69.196C137.697 68.86 137.343 68.626 136.995 68.494C136.647 68.35 136.293 68.278 135.933 68.278C135.465 68.278 135.039 68.422 134.655 68.71C134.283 68.986 133.983 69.376 133.755 69.88C133.527 70.372 133.413 70.954 133.413 71.626C133.413 72.67 133.623 73.492 134.043 74.092C134.463 74.68 135.057 74.974 135.825 74.974Z" fill="#292A33"/>
<path d="M188 67.0801V68.0001C187.999 70.1565 187.301 72.2548 186.009 73.9819C184.718 75.7091 182.903 76.9726 180.835 77.584C178.767 78.1954 176.557 78.122 174.534 77.3747C172.512 76.6274 170.785 75.2462 169.611 73.4372C168.437 71.6281 167.88 69.4882 168.022 67.3364C168.164 65.1847 168.997 63.1364 170.398 61.4972C171.799 59.8579 173.693 58.7155 175.796 58.2403C177.9 57.765 180.1 57.9824 182.07 58.8601" stroke="#67A24F" stroke-width="2" stroke-linecap="round" stroke-linejoin="round"/>
<path d="M188 60L178 70.01L175 67.01" stroke="#67A24F" stroke-width="2" stroke-linecap="round" stroke-linejoin="round"/>
</g>
<defs>
<filter id="filter0_d_279_2238" x="0" y="0" width="250" height="148" filterUnits="userSpaceOnUse" color-interpolation-filters="sRGB">
<feFlood flood-opacity="0" result="BackgroundImageFix"/>
<feColorMatrix in="SourceAlpha" type="matrix" values="0 0 0 0 0 0 0 0 0 0 0 0 0 0 0 0 0 0 127 0" result="hardAlpha"/>
<feOffset dy="4"/>
<feGaussianBlur stdDeviation="20"/>
<feComposite in2="hardAlpha" operator="out"/>
<feColorMatrix type="matrix" values="0 0 0 0 0.266667 0 0 0 0 0.266667 0 0 0 0 0.266667 0 0 0 0.12 0"/>
<feBlend mode="normal" in2="BackgroundImageFix" result="effect1_dropShadow_279_2238"/>
<feBlend mode="normal" in="SourceGraphic" in2="effect1_dropShadow_279_2238" result="shape"/>
</filter>
</defs>
</svg>
