<svg width="570" height="415" viewBox="0 0 570 415" fill="none" xmlns="http://www.w3.org/2000/svg">
<rect x="111.5" y="3.5" width="399" height="399" rx="199.5" stroke="#67A24F" stroke-dasharray="8 8"/>
<rect x="158.5" y="53.5" width="299" height="299" rx="149.5" stroke="#020C4F" stroke-dasharray="8 8"/>
<rect x="205.5" y="103.5" width="199" height="199" rx="99.5" stroke="#FBD508" stroke-dasharray="8 8"/>
<g filter="url(#filter0_d_178_779)">
<rect x="372" y="235" width="158" height="68" rx="10" fill="white" shape-rendering="crispEdges"/>
<path d="M393.62 275V263.192H400.424V264.452H395.114V268.16H399.596V269.438H395.114V273.722H400.604V275H393.62ZM402.608 275V266.252H403.832L403.958 267.512H404.012C404.396 267.104 404.81 266.756 405.254 266.468C405.71 266.18 406.202 266.036 406.73 266.036C407.402 266.036 407.924 266.186 408.296 266.486C408.68 266.786 408.962 267.194 409.142 267.71C409.598 267.206 410.06 266.804 410.528 266.504C410.996 266.192 411.494 266.036 412.022 266.036C412.934 266.036 413.606 266.33 414.038 266.918C414.47 267.494 414.686 268.34 414.686 269.456V275H413.21V269.654C413.21 268.826 413.078 268.232 412.814 267.872C412.55 267.5 412.142 267.314 411.59 267.314C411.242 267.314 410.888 267.428 410.528 267.656C410.18 267.872 409.802 268.208 409.394 268.664V275H407.918V269.654C407.918 268.826 407.786 268.232 407.522 267.872C407.258 267.5 406.844 267.314 406.28 267.314C405.62 267.314 404.888 267.764 404.084 268.664V275H402.608ZM417.172 278.69V266.252H418.396L418.522 267.26H418.576C418.972 266.924 419.41 266.636 419.89 266.396C420.37 266.156 420.862 266.036 421.366 266.036C422.11 266.036 422.74 266.222 423.256 266.594C423.772 266.954 424.162 267.47 424.426 268.142C424.69 268.802 424.822 269.588 424.822 270.5C424.822 271.484 424.642 272.33 424.282 273.038C423.934 273.746 423.472 274.286 422.896 274.658C422.32 275.03 421.702 275.216 421.042 275.216C420.646 275.216 420.244 275.126 419.836 274.946C419.428 274.766 419.02 274.52 418.612 274.208L418.648 275.738V278.69H417.172ZM420.79 273.974C421.27 273.974 421.696 273.836 422.068 273.56C422.452 273.284 422.752 272.888 422.968 272.372C423.184 271.844 423.292 271.22 423.292 270.5C423.292 269.864 423.214 269.306 423.058 268.826C422.902 268.334 422.656 267.956 422.32 267.692C421.984 267.416 421.54 267.278 420.988 267.278C420.628 267.278 420.256 267.38 419.872 267.584C419.488 267.776 419.08 268.07 418.648 268.466V273.056C419.056 273.392 419.44 273.632 419.8 273.776C420.172 273.908 420.502 273.974 420.79 273.974ZM430.198 275.216C429.49 275.216 428.824 275.036 428.2 274.676C427.588 274.316 427.09 273.794 426.706 273.11C426.334 272.426 426.148 271.604 426.148 270.644C426.148 269.66 426.334 268.826 426.706 268.142C427.09 267.458 427.588 266.936 428.2 266.576C428.824 266.216 429.49 266.036 430.198 266.036C430.918 266.036 431.584 266.216 432.196 266.576C432.808 266.936 433.3 267.458 433.672 268.142C434.056 268.826 434.248 269.66 434.248 270.644C434.248 271.604 434.056 272.426 433.672 273.11C433.3 273.794 432.808 274.316 432.196 274.676C431.584 275.036 430.918 275.216 430.198 275.216ZM430.198 273.992C430.702 273.992 431.146 273.854 431.53 273.578C431.914 273.29 432.208 272.894 432.412 272.39C432.616 271.886 432.718 271.304 432.718 270.644C432.718 269.972 432.616 269.384 432.412 268.88C432.208 268.364 431.914 267.968 431.53 267.692C431.146 267.404 430.702 267.26 430.198 267.26C429.694 267.26 429.25 267.404 428.866 267.692C428.494 267.968 428.2 268.364 427.984 268.88C427.78 269.384 427.678 269.972 427.678 270.644C427.678 271.304 427.78 271.886 427.984 272.39C428.2 272.894 428.494 273.29 428.866 273.578C429.25 273.854 429.694 273.992 430.198 273.992ZM437.508 275L435.078 266.252H436.626L437.904 271.31C438 271.706 438.09 272.102 438.174 272.498C438.258 272.894 438.336 273.326 438.408 273.794H438.48C438.576 273.326 438.666 272.894 438.75 272.498C438.846 272.102 438.942 271.706 439.038 271.31L440.334 266.252H441.954L443.268 271.31C443.376 271.706 443.472 272.102 443.556 272.498C443.652 272.894 443.748 273.326 443.844 273.794H443.916C444.012 273.326 444.102 272.894 444.186 272.498C444.27 272.102 444.354 271.706 444.438 271.31L445.716 266.252H447.156L444.798 275H442.872L441.702 270.32C441.606 269.912 441.51 269.51 441.414 269.114C441.33 268.706 441.24 268.244 441.144 267.728H441.072C440.988 268.244 440.898 268.706 440.802 269.114C440.718 269.522 440.622 269.924 440.514 270.32L439.344 275H437.508ZM452.175 275.216C451.395 275.216 450.681 275.036 450.033 274.676C449.397 274.304 448.893 273.782 448.521 273.11C448.149 272.426 447.963 271.598 447.963 270.626C447.963 269.678 448.155 268.862 448.539 268.178C448.923 267.494 449.415 266.966 450.015 266.594C450.615 266.222 451.251 266.036 451.923 266.036C452.667 266.036 453.297 266.21 453.813 266.558C454.341 266.894 454.737 267.368 455.001 267.98C455.265 268.592 455.397 269.312 455.397 270.14C455.397 270.296 455.391 270.446 455.379 270.59C455.379 270.734 455.361 270.878 455.325 271.022H449.025V269.852H454.065C454.065 269.012 453.879 268.37 453.507 267.926C453.147 267.47 452.625 267.242 451.941 267.242C451.545 267.242 451.155 267.356 450.771 267.584C450.387 267.8 450.069 268.154 449.817 268.646C449.577 269.138 449.457 269.792 449.457 270.608C449.457 271.352 449.583 271.976 449.835 272.48C450.099 272.984 450.453 273.368 450.897 273.632C451.341 273.884 451.827 274.01 452.355 274.01C452.775 274.01 453.165 273.95 453.525 273.83C453.897 273.71 454.233 273.548 454.533 273.344L455.073 274.316C454.689 274.58 454.257 274.796 453.777 274.964C453.309 275.132 452.775 275.216 452.175 275.216ZM457.199 275V266.252H458.423L458.549 267.836H458.603C458.891 267.284 459.251 266.846 459.683 266.522C460.115 266.198 460.583 266.036 461.087 266.036C461.279 266.036 461.447 266.048 461.591 266.072C461.735 266.096 461.879 266.144 462.023 266.216L461.699 267.476C461.567 267.44 461.441 267.416 461.321 267.404C461.213 267.38 461.069 267.368 460.889 267.368C460.517 267.368 460.127 267.518 459.719 267.818C459.323 268.118 458.975 268.64 458.675 269.384V275H457.199Z" fill="#292A33"/>
<path d="M508 266.08V267C507.999 269.157 507.301 271.255 506.009 272.982C504.718 274.709 502.903 275.973 500.835 276.584C498.767 277.195 496.557 277.122 494.534 276.375C492.512 275.627 490.785 274.246 489.611 272.437C488.437 270.628 487.88 268.488 488.022 266.336C488.164 264.185 488.997 262.136 490.398 260.497C491.799 258.858 493.693 257.715 495.796 257.24C497.9 256.765 500.1 256.982 502.07 257.86" stroke="#67A24F" stroke-width="2" stroke-linecap="round" stroke-linejoin="round"/>
<path d="M508 259L498 269.01L495 266.01" stroke="#67A24F" stroke-width="2" stroke-linecap="round" stroke-linejoin="round"/>
</g>
<g filter="url(#filter1_d_178_779)">
<rect x="40" y="106" width="149" height="68" rx="10" fill="white" shape-rendering="crispEdges"/>
<path d="M66.102 146.216C65.118 146.216 64.23 145.976 63.438 145.496C62.658 145.004 62.046 144.302 61.602 143.39C61.158 142.478 60.936 141.38 60.936 140.096C60.936 139.148 61.062 138.296 61.314 137.54C61.578 136.784 61.95 136.142 62.43 135.614C62.91 135.074 63.462 134.666 64.086 134.39C64.722 134.114 65.418 133.976 66.174 133.976C66.882 133.976 67.512 134.12 68.064 134.408C68.628 134.696 69.078 135.038 69.414 135.434L68.604 136.352C68.292 136.016 67.932 135.758 67.524 135.578C67.128 135.386 66.684 135.29 66.192 135.29C65.46 135.29 64.812 135.488 64.248 135.884C63.696 136.268 63.264 136.82 62.952 137.54C62.64 138.248 62.484 139.088 62.484 140.06C62.484 141.056 62.634 141.914 62.934 142.634C63.234 143.354 63.666 143.912 64.23 144.308C64.794 144.692 65.454 144.884 66.21 144.884C66.762 144.884 67.254 144.782 67.686 144.578C68.13 144.362 68.532 144.05 68.892 143.642L69.684 144.524C69.216 145.064 68.694 145.484 68.118 145.784C67.542 146.072 66.87 146.216 66.102 146.216ZM74.8012 146.216C74.0932 146.216 73.4272 146.036 72.8032 145.676C72.1912 145.316 71.6932 144.794 71.3092 144.11C70.9372 143.426 70.7512 142.604 70.7512 141.644C70.7512 140.66 70.9372 139.826 71.3092 139.142C71.6932 138.458 72.1912 137.936 72.8032 137.576C73.4272 137.216 74.0932 137.036 74.8012 137.036C75.5212 137.036 76.1872 137.216 76.7992 137.576C77.4112 137.936 77.9032 138.458 78.2752 139.142C78.6592 139.826 78.8512 140.66 78.8512 141.644C78.8512 142.604 78.6592 143.426 78.2752 144.11C77.9032 144.794 77.4112 145.316 76.7992 145.676C76.1872 146.036 75.5212 146.216 74.8012 146.216ZM74.8012 144.992C75.3052 144.992 75.7492 144.854 76.1332 144.578C76.5172 144.29 76.8112 143.894 77.0152 143.39C77.2192 142.886 77.3212 142.304 77.3212 141.644C77.3212 140.972 77.2192 140.384 77.0152 139.88C76.8112 139.364 76.5172 138.968 76.1332 138.692C75.7492 138.404 75.3052 138.26 74.8012 138.26C74.2972 138.26 73.8532 138.404 73.4692 138.692C73.0972 138.968 72.8032 139.364 72.5872 139.88C72.3832 140.384 72.2812 140.972 72.2812 141.644C72.2812 142.304 72.3832 142.886 72.5872 143.39C72.8032 143.894 73.0972 144.29 73.4692 144.578C73.8532 144.854 74.2972 144.992 74.8012 144.992ZM80.7951 146V137.252H82.0191L82.1451 138.512H82.1991C82.6191 138.092 83.0631 137.744 83.5311 137.468C83.9991 137.18 84.5331 137.036 85.1331 137.036C86.0571 137.036 86.7291 137.33 87.1491 137.918C87.5811 138.494 87.7971 139.34 87.7971 140.456V146H86.3211V140.654C86.3211 139.826 86.1891 139.232 85.9251 138.872C85.6731 138.5 85.2531 138.314 84.6651 138.314C84.2211 138.314 83.8191 138.428 83.4591 138.656C83.1111 138.884 82.7151 139.22 82.2711 139.664V146H80.7951ZM90.2788 146V137.252H91.5028L91.6288 138.512H91.6828C92.1028 138.092 92.5468 137.744 93.0148 137.468C93.4828 137.18 94.0168 137.036 94.6168 137.036C95.5408 137.036 96.2128 137.33 96.6328 137.918C97.0648 138.494 97.2808 139.34 97.2808 140.456V146H95.8048V140.654C95.8048 139.826 95.6728 139.232 95.4088 138.872C95.1568 138.5 94.7368 138.314 94.1488 138.314C93.7048 138.314 93.3028 138.428 92.9428 138.656C92.5948 138.884 92.1988 139.22 91.7548 139.664V146H90.2788ZM103.309 146.216C102.529 146.216 101.815 146.036 101.167 145.676C100.531 145.304 100.027 144.782 99.6546 144.11C99.2826 143.426 99.0966 142.598 99.0966 141.626C99.0966 140.678 99.2886 139.862 99.6726 139.178C100.057 138.494 100.549 137.966 101.149 137.594C101.749 137.222 102.385 137.036 103.057 137.036C103.801 137.036 104.431 137.21 104.947 137.558C105.475 137.894 105.871 138.368 106.135 138.98C106.399 139.592 106.531 140.312 106.531 141.14C106.531 141.296 106.525 141.446 106.513 141.59C106.513 141.734 106.495 141.878 106.459 142.022H100.159V140.852H105.199C105.199 140.012 105.013 139.37 104.641 138.926C104.281 138.47 103.759 138.242 103.075 138.242C102.679 138.242 102.289 138.356 101.905 138.584C101.521 138.8 101.203 139.154 100.951 139.646C100.711 140.138 100.591 140.792 100.591 141.608C100.591 142.352 100.717 142.976 100.969 143.48C101.233 143.984 101.587 144.368 102.031 144.632C102.475 144.884 102.961 145.01 103.489 145.01C103.909 145.01 104.299 144.95 104.659 144.83C105.031 144.71 105.367 144.548 105.667 144.344L106.207 145.316C105.823 145.58 105.391 145.796 104.911 145.964C104.443 146.132 103.909 146.216 103.309 146.216ZM111.806 146.216C111.026 146.216 110.324 146.036 109.7 145.676C109.076 145.316 108.584 144.794 108.224 144.11C107.864 143.426 107.684 142.604 107.684 141.644C107.684 140.66 107.876 139.826 108.26 139.142C108.656 138.458 109.172 137.936 109.808 137.576C110.456 137.216 111.152 137.036 111.896 137.036C112.472 137.036 112.964 137.132 113.372 137.324C113.792 137.516 114.152 137.762 114.452 138.062L113.714 138.98C113.498 138.764 113.24 138.596 112.94 138.476C112.652 138.344 112.322 138.278 111.95 138.278C111.434 138.278 110.966 138.422 110.546 138.71C110.138 138.986 109.814 139.376 109.574 139.88C109.334 140.384 109.214 140.972 109.214 141.644C109.214 142.304 109.328 142.886 109.556 143.39C109.784 143.894 110.102 144.29 110.51 144.578C110.918 144.854 111.392 144.992 111.932 144.992C112.34 144.992 112.718 144.914 113.066 144.758C113.414 144.602 113.714 144.404 113.966 144.164L114.614 145.064C114.242 145.412 113.822 145.694 113.354 145.91C112.886 146.114 112.37 146.216 111.806 146.216ZM118.759 146.162C117.835 146.162 117.187 145.892 116.815 145.352C116.443 144.812 116.257 144.11 116.257 143.246V138.458H114.961V137.342L116.329 137.252L116.509 134.444H117.751V137.252H120.127V138.458H117.751V143.264C117.751 143.792 117.847 144.206 118.039 144.506C118.243 144.806 118.597 144.956 119.101 144.956C119.257 144.956 119.419 144.944 119.587 144.92C119.755 144.884 119.923 144.824 120.091 144.74L120.415 145.784C120.187 145.892 119.929 145.982 119.641 146.054C119.353 146.126 119.059 146.162 118.759 146.162Z" fill="#292A33"/>
<path d="M167 137.08V138C166.999 140.157 166.301 142.255 165.009 143.982C163.718 145.709 161.903 146.973 159.835 147.584C157.767 148.195 155.557 148.122 153.534 147.375C151.512 146.627 149.785 145.246 148.611 143.437C147.437 141.628 146.88 139.488 147.022 137.336C147.164 135.185 147.997 133.136 149.398 131.497C150.799 129.858 152.693 128.715 154.796 128.24C156.9 127.765 159.1 127.982 161.07 128.86" stroke="#67A24F" stroke-width="2" stroke-linecap="round" stroke-linejoin="round"/>
<path d="M167 130L157 140.01L154 137.01" stroke="#67A24F" stroke-width="2" stroke-linecap="round" stroke-linejoin="round"/>
</g>
<g filter="url(#filter2_d_178_779)">
<rect x="88" y="303" width="179" height="68" rx="10" fill="white" shape-rendering="crispEdges"/>
<path d="M114.102 343.216C113.118 343.216 112.23 342.976 111.438 342.496C110.658 342.004 110.046 341.302 109.602 340.39C109.158 339.478 108.936 338.38 108.936 337.096C108.936 336.148 109.062 335.296 109.314 334.54C109.578 333.784 109.95 333.142 110.43 332.614C110.91 332.074 111.462 331.666 112.086 331.39C112.722 331.114 113.418 330.976 114.174 330.976C114.882 330.976 115.512 331.12 116.064 331.408C116.628 331.696 117.078 332.038 117.414 332.434L116.604 333.352C116.292 333.016 115.932 332.758 115.524 332.578C115.128 332.386 114.684 332.29 114.192 332.29C113.46 332.29 112.812 332.488 112.248 332.884C111.696 333.268 111.264 333.82 110.952 334.54C110.64 335.248 110.484 336.088 110.484 337.06C110.484 338.056 110.634 338.914 110.934 339.634C111.234 340.354 111.666 340.912 112.23 341.308C112.794 341.692 113.454 341.884 114.21 341.884C114.762 341.884 115.254 341.782 115.686 341.578C116.13 341.362 116.532 341.05 116.892 340.642L117.684 341.524C117.216 342.064 116.694 342.484 116.118 342.784C115.542 343.072 114.87 343.216 114.102 343.216ZM122.801 343.216C122.093 343.216 121.427 343.036 120.803 342.676C120.191 342.316 119.693 341.794 119.309 341.11C118.937 340.426 118.751 339.604 118.751 338.644C118.751 337.66 118.937 336.826 119.309 336.142C119.693 335.458 120.191 334.936 120.803 334.576C121.427 334.216 122.093 334.036 122.801 334.036C123.521 334.036 124.187 334.216 124.799 334.576C125.411 334.936 125.903 335.458 126.275 336.142C126.659 336.826 126.851 337.66 126.851 338.644C126.851 339.604 126.659 340.426 126.275 341.11C125.903 341.794 125.411 342.316 124.799 342.676C124.187 343.036 123.521 343.216 122.801 343.216ZM122.801 341.992C123.305 341.992 123.749 341.854 124.133 341.578C124.517 341.29 124.811 340.894 125.015 340.39C125.219 339.886 125.321 339.304 125.321 338.644C125.321 337.972 125.219 337.384 125.015 336.88C124.811 336.364 124.517 335.968 124.133 335.692C123.749 335.404 123.305 335.26 122.801 335.26C122.297 335.26 121.853 335.404 121.469 335.692C121.097 335.968 120.803 336.364 120.587 336.88C120.383 337.384 120.281 337.972 120.281 338.644C120.281 339.304 120.383 339.886 120.587 340.39C120.803 340.894 121.097 341.29 121.469 341.578C121.853 341.854 122.297 341.992 122.801 341.992ZM128.795 343V334.252H130.019L130.145 335.512H130.199C130.583 335.104 130.997 334.756 131.441 334.468C131.897 334.18 132.389 334.036 132.917 334.036C133.589 334.036 134.111 334.186 134.483 334.486C134.867 334.786 135.149 335.194 135.329 335.71C135.785 335.206 136.247 334.804 136.715 334.504C137.183 334.192 137.681 334.036 138.209 334.036C139.121 334.036 139.793 334.33 140.225 334.918C140.657 335.494 140.873 336.34 140.873 337.456V343H139.397V337.654C139.397 336.826 139.265 336.232 139.001 335.872C138.737 335.5 138.329 335.314 137.777 335.314C137.429 335.314 137.075 335.428 136.715 335.656C136.367 335.872 135.989 336.208 135.581 336.664V343H134.105V337.654C134.105 336.826 133.973 336.232 133.709 335.872C133.445 335.5 133.031 335.314 132.467 335.314C131.807 335.314 131.075 335.764 130.271 336.664V343H128.795ZM143.359 343V334.252H144.583L144.709 335.512H144.763C145.147 335.104 145.561 334.756 146.005 334.468C146.461 334.18 146.953 334.036 147.481 334.036C148.153 334.036 148.675 334.186 149.047 334.486C149.431 334.786 149.713 335.194 149.893 335.71C150.349 335.206 150.811 334.804 151.279 334.504C151.747 334.192 152.245 334.036 152.773 334.036C153.685 334.036 154.357 334.33 154.789 334.918C155.221 335.494 155.437 336.34 155.437 337.456V343H153.961V337.654C153.961 336.826 153.829 336.232 153.565 335.872C153.301 335.5 152.893 335.314 152.341 335.314C151.993 335.314 151.639 335.428 151.279 335.656C150.931 335.872 150.553 336.208 150.145 336.664V343H148.669V337.654C148.669 336.826 148.537 336.232 148.273 335.872C148.009 335.5 147.595 335.314 147.031 335.314C146.371 335.314 145.639 335.764 144.835 336.664V343H143.359ZM157.923 343V334.252H159.399V343H157.923ZM158.661 332.452C158.373 332.452 158.133 332.362 157.941 332.182C157.761 332.002 157.671 331.768 157.671 331.48C157.671 331.192 157.761 330.958 157.941 330.778C158.133 330.598 158.373 330.508 158.661 330.508C158.949 330.508 159.183 330.598 159.363 330.778C159.555 330.958 159.651 331.192 159.651 331.48C159.651 331.768 159.555 332.002 159.363 332.182C159.183 332.362 158.949 332.452 158.661 332.452ZM164.278 343.216C163.642 343.216 163.036 343.108 162.46 342.892C161.896 342.664 161.416 342.352 161.02 341.956L161.704 341.092C162.088 341.404 162.484 341.644 162.892 341.812C163.312 341.98 163.792 342.064 164.332 342.064C164.908 342.064 165.34 341.932 165.628 341.668C165.916 341.392 166.06 341.068 166.06 340.696C166.06 340.396 165.958 340.15 165.754 339.958C165.562 339.754 165.316 339.586 165.016 339.454C164.728 339.31 164.416 339.178 164.08 339.058C163.648 338.902 163.234 338.722 162.838 338.518C162.442 338.302 162.118 338.038 161.866 337.726C161.626 337.402 161.506 337 161.506 336.52C161.506 335.812 161.77 335.224 162.298 334.756C162.838 334.276 163.582 334.036 164.53 334.036C165.07 334.036 165.574 334.132 166.042 334.324C166.51 334.504 166.912 334.738 167.248 335.026L166.564 335.872C166.252 335.656 165.934 335.488 165.61 335.368C165.286 335.248 164.926 335.188 164.53 335.188C163.978 335.188 163.57 335.314 163.306 335.566C163.054 335.818 162.928 336.112 162.928 336.448C162.928 336.712 163.006 336.934 163.162 337.114C163.318 337.282 163.534 337.432 163.81 337.564C164.098 337.696 164.422 337.822 164.782 337.942C165.238 338.11 165.67 338.302 166.078 338.518C166.498 338.722 166.834 338.992 167.086 339.328C167.35 339.652 167.482 340.078 167.482 340.606C167.482 341.086 167.356 341.524 167.104 341.92C166.864 342.304 166.504 342.616 166.024 342.856C165.556 343.096 164.974 343.216 164.278 343.216ZM171.459 343.216C170.823 343.216 170.217 343.108 169.641 342.892C169.077 342.664 168.597 342.352 168.201 341.956L168.885 341.092C169.269 341.404 169.665 341.644 170.073 341.812C170.493 341.98 170.973 342.064 171.513 342.064C172.089 342.064 172.521 341.932 172.809 341.668C173.097 341.392 173.241 341.068 173.241 340.696C173.241 340.396 173.139 340.15 172.935 339.958C172.743 339.754 172.497 339.586 172.197 339.454C171.909 339.31 171.597 339.178 171.261 339.058C170.829 338.902 170.415 338.722 170.019 338.518C169.623 338.302 169.299 338.038 169.047 337.726C168.807 337.402 168.687 337 168.687 336.52C168.687 335.812 168.951 335.224 169.479 334.756C170.019 334.276 170.763 334.036 171.711 334.036C172.251 334.036 172.755 334.132 173.223 334.324C173.691 334.504 174.093 334.738 174.429 335.026L173.745 335.872C173.433 335.656 173.115 335.488 172.791 335.368C172.467 335.248 172.107 335.188 171.711 335.188C171.159 335.188 170.751 335.314 170.487 335.566C170.235 335.818 170.109 336.112 170.109 336.448C170.109 336.712 170.187 336.934 170.343 337.114C170.499 337.282 170.715 337.432 170.991 337.564C171.279 337.696 171.603 337.822 171.963 337.942C172.419 338.11 172.851 338.302 173.259 338.518C173.679 338.722 174.015 338.992 174.267 339.328C174.531 339.652 174.663 340.078 174.663 340.606C174.663 341.086 174.537 341.524 174.285 341.92C174.045 342.304 173.685 342.616 173.205 342.856C172.737 343.096 172.155 343.216 171.459 343.216ZM176.354 343V334.252H177.83V343H176.354ZM177.092 332.452C176.804 332.452 176.564 332.362 176.372 332.182C176.192 332.002 176.102 331.768 176.102 331.48C176.102 331.192 176.192 330.958 176.372 330.778C176.564 330.598 176.804 330.508 177.092 330.508C177.38 330.508 177.614 330.598 177.794 330.778C177.986 330.958 178.082 331.192 178.082 331.48C178.082 331.768 177.986 332.002 177.794 332.182C177.614 332.362 177.38 332.452 177.092 332.452ZM183.826 343.216C183.118 343.216 182.452 343.036 181.828 342.676C181.216 342.316 180.718 341.794 180.334 341.11C179.962 340.426 179.776 339.604 179.776 338.644C179.776 337.66 179.962 336.826 180.334 336.142C180.718 335.458 181.216 334.936 181.828 334.576C182.452 334.216 183.118 334.036 183.826 334.036C184.546 334.036 185.212 334.216 185.824 334.576C186.436 334.936 186.928 335.458 187.3 336.142C187.684 336.826 187.876 337.66 187.876 338.644C187.876 339.604 187.684 340.426 187.3 341.11C186.928 341.794 186.436 342.316 185.824 342.676C185.212 343.036 184.546 343.216 183.826 343.216ZM183.826 341.992C184.33 341.992 184.774 341.854 185.158 341.578C185.542 341.29 185.836 340.894 186.04 340.39C186.244 339.886 186.346 339.304 186.346 338.644C186.346 337.972 186.244 337.384 186.04 336.88C185.836 336.364 185.542 335.968 185.158 335.692C184.774 335.404 184.33 335.26 183.826 335.26C183.322 335.26 182.878 335.404 182.494 335.692C182.122 335.968 181.828 336.364 181.612 336.88C181.408 337.384 181.306 337.972 181.306 338.644C181.306 339.304 181.408 339.886 181.612 340.39C181.828 340.894 182.122 341.29 182.494 341.578C182.878 341.854 183.322 341.992 183.826 341.992ZM189.82 343V334.252H191.044L191.17 335.512H191.224C191.644 335.092 192.088 334.744 192.556 334.468C193.024 334.18 193.558 334.036 194.158 334.036C195.082 334.036 195.754 334.33 196.174 334.918C196.606 335.494 196.822 336.34 196.822 337.456V343H195.346V337.654C195.346 336.826 195.214 336.232 194.95 335.872C194.698 335.5 194.278 335.314 193.69 335.314C193.246 335.314 192.844 335.428 192.484 335.656C192.136 335.884 191.74 336.22 191.296 336.664V343H189.82Z" fill="#292A33"/>
<path d="M245 334.08V335C244.999 337.157 244.301 339.255 243.009 340.982C241.718 342.709 239.903 343.973 237.835 344.584C235.767 345.195 233.557 345.122 231.534 344.375C229.512 343.627 227.785 342.246 226.611 340.437C225.437 338.628 224.88 336.488 225.022 334.336C225.164 332.185 225.997 330.136 227.398 328.497C228.799 326.858 230.693 325.715 232.796 325.24C234.9 324.765 237.1 324.982 239.07 325.86" stroke="#67A24F" stroke-width="2" stroke-linecap="round" stroke-linejoin="round"/>
<path d="M245 327L235 337.01L232 334.01" stroke="#67A24F" stroke-width="2" stroke-linecap="round" stroke-linejoin="round"/>
</g>
<g filter="url(#filter3_d_178_779)">
<rect x="374" y="36" width="142" height="68" rx="10" fill="white" shape-rendering="crispEdges"/>
<path d="M395.62 76V64.192H402.424V65.452H397.114V69.16H401.596V70.438H397.114V74.722H402.604V76H395.62ZM404.608 76V67.252H405.832L405.958 68.512H406.012C406.432 68.092 406.876 67.744 407.344 67.468C407.812 67.18 408.346 67.036 408.946 67.036C409.87 67.036 410.542 67.33 410.962 67.918C411.394 68.494 411.61 69.34 411.61 70.456V76H410.134V70.654C410.134 69.826 410.002 69.232 409.738 68.872C409.486 68.5 409.066 68.314 408.478 68.314C408.034 68.314 407.632 68.428 407.272 68.656C406.924 68.884 406.528 69.22 406.084 69.664V76H404.608ZM417.044 80.032C416.336 80.032 415.706 79.936 415.154 79.744C414.614 79.564 414.188 79.3 413.876 78.952C413.576 78.604 413.426 78.178 413.426 77.674C413.426 77.302 413.54 76.942 413.768 76.594C413.996 76.258 414.308 75.958 414.704 75.694V75.622C414.488 75.478 414.302 75.292 414.146 75.064C414.002 74.824 413.93 74.536 413.93 74.2C413.93 73.828 414.032 73.504 414.236 73.228C414.452 72.952 414.668 72.736 414.884 72.58V72.508C414.608 72.268 414.35 71.944 414.11 71.536C413.87 71.128 413.75 70.666 413.75 70.15C413.75 69.514 413.9 68.962 414.2 68.494C414.512 68.026 414.914 67.666 415.406 67.414C415.91 67.162 416.456 67.036 417.044 67.036C417.284 67.036 417.512 67.06 417.728 67.108C417.944 67.144 418.13 67.192 418.286 67.252H421.328V68.386H419.51V68.458C419.726 68.65 419.9 68.89 420.032 69.178C420.176 69.466 420.248 69.808 420.248 70.204C420.248 70.828 420.104 71.368 419.816 71.824C419.528 72.268 419.144 72.616 418.664 72.868C418.184 73.108 417.644 73.228 417.044 73.228C416.828 73.228 416.606 73.204 416.378 73.156C416.15 73.096 415.934 73.018 415.73 72.922C415.586 73.054 415.454 73.198 415.334 73.354C415.226 73.51 415.172 73.714 415.172 73.966C415.172 74.242 415.28 74.47 415.496 74.65C415.724 74.83 416.132 74.92 416.72 74.92H418.412C419.432 74.92 420.194 75.088 420.698 75.424C421.214 75.748 421.472 76.276 421.472 77.008C421.472 77.548 421.292 78.046 420.932 78.502C420.572 78.958 420.056 79.324 419.384 79.6C418.724 79.888 417.944 80.032 417.044 80.032ZM417.044 72.238C417.38 72.238 417.686 72.154 417.962 71.986C418.25 71.806 418.478 71.56 418.646 71.248C418.814 70.936 418.898 70.57 418.898 70.15C418.898 69.502 418.718 69.004 418.358 68.656C417.998 68.296 417.56 68.116 417.044 68.116C416.528 68.116 416.09 68.296 415.73 68.656C415.37 69.004 415.19 69.502 415.19 70.15C415.19 70.57 415.274 70.936 415.442 71.248C415.61 71.56 415.832 71.806 416.108 71.986C416.396 72.154 416.708 72.238 417.044 72.238ZM417.26 79.006C417.812 79.006 418.292 78.922 418.7 78.754C419.12 78.586 419.444 78.364 419.672 78.088C419.912 77.812 420.032 77.524 420.032 77.224C420.032 76.816 419.876 76.534 419.564 76.378C419.264 76.222 418.832 76.144 418.268 76.144H416.756C416.588 76.144 416.402 76.132 416.198 76.108C416.006 76.084 415.814 76.048 415.622 76C415.298 76.228 415.064 76.468 414.92 76.72C414.788 76.972 414.722 77.224 414.722 77.476C414.722 77.944 414.944 78.316 415.388 78.592C415.844 78.868 416.468 79.006 417.26 79.006ZM424.537 76.216C424.057 76.216 423.619 76.12 423.223 75.928C422.839 75.724 422.533 75.442 422.305 75.082C422.077 74.71 421.963 74.26 421.963 73.732C421.963 72.748 422.395 72.004 423.259 71.5C424.123 70.996 425.491 70.642 427.363 70.438C427.351 70.078 427.291 69.73 427.183 69.394C427.087 69.058 426.907 68.788 426.643 68.584C426.379 68.38 426.013 68.278 425.545 68.278C425.041 68.278 424.567 68.374 424.123 68.566C423.679 68.746 423.283 68.95 422.935 69.178L422.359 68.17C422.623 67.99 422.935 67.816 423.295 67.648C423.655 67.468 424.045 67.324 424.465 67.216C424.885 67.096 425.329 67.036 425.797 67.036C426.505 67.036 427.081 67.186 427.525 67.486C427.981 67.774 428.311 68.188 428.515 68.728C428.731 69.268 428.839 69.904 428.839 70.636V76H427.615L427.489 74.956H427.435C427.015 75.304 426.565 75.604 426.085 75.856C425.605 76.096 425.089 76.216 424.537 76.216ZM424.951 74.992C425.383 74.992 425.785 74.896 426.157 74.704C426.541 74.512 426.943 74.23 427.363 73.858V71.5C426.379 71.62 425.599 71.776 425.023 71.968C424.459 72.148 424.051 72.376 423.799 72.652C423.547 72.928 423.421 73.258 423.421 73.642C423.421 74.122 423.571 74.47 423.871 74.686C424.171 74.89 424.531 74.992 424.951 74.992ZM434.183 80.032C433.475 80.032 432.845 79.936 432.293 79.744C431.753 79.564 431.327 79.3 431.015 78.952C430.715 78.604 430.565 78.178 430.565 77.674C430.565 77.302 430.679 76.942 430.907 76.594C431.135 76.258 431.447 75.958 431.843 75.694V75.622C431.627 75.478 431.441 75.292 431.285 75.064C431.141 74.824 431.069 74.536 431.069 74.2C431.069 73.828 431.171 73.504 431.375 73.228C431.591 72.952 431.807 72.736 432.023 72.58V72.508C431.747 72.268 431.489 71.944 431.249 71.536C431.009 71.128 430.889 70.666 430.889 70.15C430.889 69.514 431.039 68.962 431.339 68.494C431.651 68.026 432.053 67.666 432.545 67.414C433.049 67.162 433.595 67.036 434.183 67.036C434.423 67.036 434.651 67.06 434.867 67.108C435.083 67.144 435.269 67.192 435.425 67.252H438.467V68.386H436.649V68.458C436.865 68.65 437.039 68.89 437.171 69.178C437.315 69.466 437.387 69.808 437.387 70.204C437.387 70.828 437.243 71.368 436.955 71.824C436.667 72.268 436.283 72.616 435.803 72.868C435.323 73.108 434.783 73.228 434.183 73.228C433.967 73.228 433.745 73.204 433.517 73.156C433.289 73.096 433.073 73.018 432.869 72.922C432.725 73.054 432.593 73.198 432.473 73.354C432.365 73.51 432.311 73.714 432.311 73.966C432.311 74.242 432.419 74.47 432.635 74.65C432.863 74.83 433.271 74.92 433.859 74.92H435.551C436.571 74.92 437.333 75.088 437.837 75.424C438.353 75.748 438.611 76.276 438.611 77.008C438.611 77.548 438.431 78.046 438.071 78.502C437.711 78.958 437.195 79.324 436.523 79.6C435.863 79.888 435.083 80.032 434.183 80.032ZM434.183 72.238C434.519 72.238 434.825 72.154 435.101 71.986C435.389 71.806 435.617 71.56 435.785 71.248C435.953 70.936 436.037 70.57 436.037 70.15C436.037 69.502 435.857 69.004 435.497 68.656C435.137 68.296 434.699 68.116 434.183 68.116C433.667 68.116 433.229 68.296 432.869 68.656C432.509 69.004 432.329 69.502 432.329 70.15C432.329 70.57 432.413 70.936 432.581 71.248C432.749 71.56 432.971 71.806 433.247 71.986C433.535 72.154 433.847 72.238 434.183 72.238ZM434.399 79.006C434.951 79.006 435.431 78.922 435.839 78.754C436.259 78.586 436.583 78.364 436.811 78.088C437.051 77.812 437.171 77.524 437.171 77.224C437.171 76.816 437.015 76.534 436.703 76.378C436.403 76.222 435.971 76.144 435.407 76.144H433.895C433.727 76.144 433.541 76.132 433.337 76.108C433.145 76.084 432.953 76.048 432.761 76C432.437 76.228 432.203 76.468 432.059 76.72C431.927 76.972 431.861 77.224 431.861 77.476C431.861 77.944 432.083 78.316 432.527 78.592C432.983 78.868 433.607 79.006 434.399 79.006ZM443.242 76.216C442.462 76.216 441.748 76.036 441.1 75.676C440.464 75.304 439.96 74.782 439.588 74.11C439.216 73.426 439.03 72.598 439.03 71.626C439.03 70.678 439.222 69.862 439.606 69.178C439.99 68.494 440.482 67.966 441.082 67.594C441.682 67.222 442.318 67.036 442.99 67.036C443.734 67.036 444.364 67.21 444.88 67.558C445.408 67.894 445.804 68.368 446.068 68.98C446.332 69.592 446.464 70.312 446.464 71.14C446.464 71.296 446.458 71.446 446.446 71.59C446.446 71.734 446.428 71.878 446.392 72.022H440.092V70.852H445.132C445.132 70.012 444.946 69.37 444.574 68.926C444.214 68.47 443.692 68.242 443.008 68.242C442.612 68.242 442.222 68.356 441.838 68.584C441.454 68.8 441.136 69.154 440.884 69.646C440.644 70.138 440.524 70.792 440.524 71.608C440.524 72.352 440.65 72.976 440.902 73.48C441.166 73.984 441.52 74.368 441.964 74.632C442.408 74.884 442.894 75.01 443.422 75.01C443.842 75.01 444.232 74.95 444.592 74.83C444.964 74.71 445.3 74.548 445.6 74.344L446.14 75.316C445.756 75.58 445.324 75.796 444.844 75.964C444.376 76.132 443.842 76.216 443.242 76.216Z" fill="#292A33"/>
<path d="M494 67.0801V68.0001C493.999 70.1565 493.301 72.2548 492.009 73.9819C490.718 75.7091 488.903 76.9726 486.835 77.584C484.767 78.1954 482.557 78.122 480.534 77.3747C478.512 76.6274 476.785 75.2462 475.611 73.4372C474.437 71.6281 473.88 69.4882 474.022 67.3364C474.164 65.1847 474.997 63.1364 476.398 61.4972C477.799 59.8579 479.693 58.7155 481.796 58.2403C483.9 57.765 486.1 57.9824 488.07 58.8601" stroke="#67A24F" stroke-width="2" stroke-linecap="round" stroke-linejoin="round"/>
<path d="M494 60L484 70.01L481 67.01" stroke="#67A24F" stroke-width="2" stroke-linecap="round" stroke-linejoin="round"/>
</g>
<defs>
<filter id="filter0_d_178_779" x="332" y="199" width="238" height="148" filterUnits="userSpaceOnUse" color-interpolation-filters="sRGB">
<feFlood flood-opacity="0" result="BackgroundImageFix"/>
<feColorMatrix in="SourceAlpha" type="matrix" values="0 0 0 0 0 0 0 0 0 0 0 0 0 0 0 0 0 0 127 0" result="hardAlpha"/>
<feOffset dy="4"/>
<feGaussianBlur stdDeviation="20"/>
<feComposite in2="hardAlpha" operator="out"/>
<feColorMatrix type="matrix" values="0 0 0 0 0.266667 0 0 0 0 0.266667 0 0 0 0 0.266667 0 0 0 0.12 0"/>
<feBlend mode="normal" in2="BackgroundImageFix" result="effect1_dropShadow_178_779"/>
<feBlend mode="normal" in="SourceGraphic" in2="effect1_dropShadow_178_779" result="shape"/>
</filter>
<filter id="filter1_d_178_779" x="0" y="70" width="229" height="148" filterUnits="userSpaceOnUse" color-interpolation-filters="sRGB">
<feFlood flood-opacity="0" result="BackgroundImageFix"/>
<feColorMatrix in="SourceAlpha" type="matrix" values="0 0 0 0 0 0 0 0 0 0 0 0 0 0 0 0 0 0 127 0" result="hardAlpha"/>
<feOffset dy="4"/>
<feGaussianBlur stdDeviation="20"/>
<feComposite in2="hardAlpha" operator="out"/>
<feColorMatrix type="matrix" values="0 0 0 0 0.266667 0 0 0 0 0.266667 0 0 0 0 0.266667 0 0 0 0.12 0"/>
<feBlend mode="normal" in2="BackgroundImageFix" result="effect1_dropShadow_178_779"/>
<feBlend mode="normal" in="SourceGraphic" in2="effect1_dropShadow_178_779" result="shape"/>
</filter>
<filter id="filter2_d_178_779" x="48" y="267" width="259" height="148" filterUnits="userSpaceOnUse" color-interpolation-filters="sRGB">
<feFlood flood-opacity="0" result="BackgroundImageFix"/>
<feColorMatrix in="SourceAlpha" type="matrix" values="0 0 0 0 0 0 0 0 0 0 0 0 0 0 0 0 0 0 127 0" result="hardAlpha"/>
<feOffset dy="4"/>
<feGaussianBlur stdDeviation="20"/>
<feComposite in2="hardAlpha" operator="out"/>
<feColorMatrix type="matrix" values="0 0 0 0 0.266667 0 0 0 0 0.266667 0 0 0 0 0.266667 0 0 0 0.12 0"/>
<feBlend mode="normal" in2="BackgroundImageFix" result="effect1_dropShadow_178_779"/>
<feBlend mode="normal" in="SourceGraphic" in2="effect1_dropShadow_178_779" result="shape"/>
</filter>
<filter id="filter3_d_178_779" x="334" y="0" width="222" height="148" filterUnits="userSpaceOnUse" color-interpolation-filters="sRGB">
<feFlood flood-opacity="0" result="BackgroundImageFix"/>
<feColorMatrix in="SourceAlpha" type="matrix" values="0 0 0 0 0 0 0 0 0 0 0 0 0 0 0 0 0 0 127 0" result="hardAlpha"/>
<feOffset dy="4"/>
<feGaussianBlur stdDeviation="20"/>
<feComposite in2="hardAlpha" operator="out"/>
<feColorMatrix type="matrix" values="0 0 0 0 0.266667 0 0 0 0 0.266667 0 0 0 0 0.266667 0 0 0 0.12 0"/>
<feBlend mode="normal" in2="BackgroundImageFix" result="effect1_dropShadow_178_779"/>
<feBlend mode="normal" in="SourceGraphic" in2="effect1_dropShadow_178_779" result="shape"/>
</filter>
</defs>
</svg>
