<svg width="40" height="40" viewBox="0 0 40 40" fill="none" xmlns="http://www.w3.org/2000/svg">
<path d="M15 17.5C16.3807 17.5 17.5 16.3807 17.5 15C17.5 13.6193 16.3807 12.5 15 12.5C13.6193 12.5 12.5 13.6193 12.5 15C12.5 16.3807 13.6193 17.5 15 17.5Z" fill="#FBD508"/>
<path d="M25 17.5C26.3807 17.5 27.5 16.3807 27.5 15C27.5 13.6193 26.3807 12.5 25 12.5C23.6193 12.5 22.5 13.6193 22.5 15C22.5 16.3807 23.6193 17.5 25 17.5Z" fill="#FBD508"/>
<path d="M20 37.5C10.35 37.5 2.5 29.65 2.5 20C2.5 10.35 10.35 2.5 20 2.5C29.65 2.5 37.5 10.35 37.5 20C37.5 29.65 29.65 37.5 20 37.5ZM20 5C11.725 5 5 11.725 5 20C5 28.275 11.725 35 20 35C28.275 35 35 28.275 35 20C35 11.725 28.275 5 20 5Z" fill="#FBD508"/>
<path d="M19.9992 28.75C16.2992 28.75 12.9742 26.4 11.7492 22.925C11.6622 22.6199 11.6942 22.2933 11.8387 22.0109C11.9831 21.7285 12.2294 21.5115 12.5277 21.4036C12.8259 21.2957 13.154 21.305 13.4457 21.4296C13.7374 21.5542 13.9709 21.7849 14.0992 22.075C14.5292 23.2964 15.3277 24.3542 16.3845 25.1025C17.4413 25.8508 18.7043 26.2527 19.9992 26.2527C21.2941 26.2527 22.5571 25.8508 23.6139 25.1025C24.6707 24.3542 25.4692 23.2964 25.8992 22.075C26.1242 21.425 26.8492 21.075 27.4992 21.325C28.1492 21.55 28.4992 22.275 28.2492 22.925C27.6465 24.6307 26.5292 26.1072 25.0514 27.1506C23.5736 28.194 21.8082 28.7529 19.9992 28.75Z" fill="#FBD508"/>
</svg>
