<svg width="40" height="43" viewBox="0 0 40 43" fill="none" xmlns="http://www.w3.org/2000/svg">
<path d="M20.0007 18.6666C18.2325 18.6666 16.5368 17.9642 15.2866 16.714C14.0364 15.4637 13.334 13.768 13.334 11.9999C13.334 10.2318 14.0364 8.53612 15.2866 7.28587C16.5368 6.03563 18.2325 5.33325 20.0007 5.33325C21.7688 5.33325 23.4645 6.03563 24.7147 7.28587C25.9649 8.53612 26.6673 10.2318 26.6673 11.9999C26.6673 13.768 25.9649 15.4637 24.7147 16.714C23.4645 17.9642 21.7688 18.6666 20.0007 18.6666ZM20.0007 7.99992C17.7873 7.99992 16.0007 9.78658 16.0007 11.9999C16.0007 14.2133 17.7873 15.9999 20.0007 15.9999C22.214 15.9999 24.0007 14.2133 24.0007 11.9999C24.0007 9.78658 22.214 7.99992 20.0007 7.99992Z" fill="#FF5765"/>
<path d="M36 29.3333C35.2533 29.3333 34.6667 28.7466 34.6667 27.9999C34.6667 27.2533 35.2533 26.6666 36 26.6666C36.7467 26.6666 37.3333 26.0799 37.3333 25.3333C37.3333 23.5651 36.631 21.8694 35.3807 20.6192C34.1305 19.369 32.4348 18.6666 30.6667 18.6666H28C27.2533 18.6666 26.6667 18.0799 26.6667 17.3333C26.6667 16.5866 27.2533 15.9999 28 15.9999C30.2133 15.9999 32 14.2133 32 11.9999C32 9.78658 30.2133 7.99992 28 7.99992C27.2533 7.99992 26.6667 7.41325 26.6667 6.66659C26.6667 5.91992 27.2533 5.33325 28 5.33325C29.7681 5.33325 31.4638 6.03563 32.714 7.28587C33.9643 8.53612 34.6667 10.2318 34.6667 11.9999C34.6667 13.6533 34.08 15.1466 33.0667 16.3199C37.04 17.3866 40 21.0133 40 25.3333C40 27.5466 38.2133 29.3333 36 29.3333ZM4 29.3333C1.78667 29.3333 0 27.5466 0 25.3333C0 21.0133 2.93333 17.3866 6.93333 16.3199C5.94667 15.1466 5.33333 13.6533 5.33333 11.9999C5.33333 10.2318 6.03571 8.53612 7.28595 7.28587C8.5362 6.03563 10.2319 5.33325 12 5.33325C12.7467 5.33325 13.3333 5.91992 13.3333 6.66659C13.3333 7.41325 12.7467 7.99992 12 7.99992C9.78667 7.99992 8 9.78658 8 11.9999C8 14.2133 9.78667 15.9999 12 15.9999C12.7467 15.9999 13.3333 16.5866 13.3333 17.3333C13.3333 18.0799 12.7467 18.6666 12 18.6666H9.33333C7.56522 18.6666 5.86953 19.369 4.61929 20.6192C3.36905 21.8694 2.66667 23.5651 2.66667 25.3333C2.66667 26.0799 3.25333 26.6666 4 26.6666C4.74667 26.6666 5.33333 27.2533 5.33333 27.9999C5.33333 28.7466 4.74667 29.3333 4 29.3333ZM28 37.3333H12C9.78667 37.3333 8 35.5466 8 33.3333V30.6666C8 25.5199 12.1867 21.3333 17.3333 21.3333H22.6667C27.8133 21.3333 32 25.5199 32 30.6666V33.3333C32 35.5466 30.2133 37.3333 28 37.3333ZM17.3333 23.9999C15.5652 23.9999 13.8695 24.7023 12.6193 25.9525C11.369 27.2028 10.6667 28.8985 10.6667 30.6666V33.3333C10.6667 34.0799 11.2533 34.6666 12 34.6666H28C28.7467 34.6666 29.3333 34.0799 29.3333 33.3333V30.6666C29.3333 28.8985 28.631 27.2028 27.3807 25.9525C26.1305 24.7023 24.4348 23.9999 22.6667 23.9999H17.3333Z" fill="#FF5765"/>
</svg>
