<svg width="32" height="32" viewBox="0 0 32 32" fill="none" xmlns="http://www.w3.org/2000/svg">
<path d="M16.2934 6.40012C16.9342 6.40372 18.5375 6.41932 20.2416 6.48772L20.8464 6.51412C22.5613 6.59453 24.275 6.73373 25.1259 6.97014C26.2599 7.28936 27.1504 8.21821 27.4516 9.39667C27.9316 11.2688 27.9916 14.9193 27.9988 15.8038L28 15.9862V16.195C27.9916 17.0794 27.9316 20.7312 27.4516 22.6021C27.1468 23.7842 26.2551 24.7142 25.1259 25.0286C24.275 25.2651 22.5613 25.4043 20.8464 25.4847L20.2416 25.5123C18.5375 25.5795 16.9342 25.5963 16.2934 25.5987L16.0114 25.5999H15.7054C14.3493 25.5915 8.67783 25.5303 6.87294 25.0286C5.74009 24.7094 4.84844 23.7806 4.54723 22.6021C4.0672 20.73 4.0072 17.0794 4 16.195V15.8038C4.0072 14.9193 4.0672 11.2676 4.54723 9.39667C4.85204 8.21461 5.74369 7.28456 6.87414 6.97134C8.67783 6.46852 14.3505 6.40732 15.7066 6.40012H16.2934ZM13.5993 11.8004V20.2008L20.7996 16.0006L13.5993 11.8004Z" fill="#F6FAF5"/>
</svg>
