<svg width="32" height="32" viewBox="0 0 32 32" fill="none" xmlns="http://www.w3.org/2000/svg">
<path d="M16.0013 2.66675C8.6413 2.66675 2.66797 8.64008 2.66797 16.0001C2.66797 23.3601 8.6413 29.3334 16.0013 29.3334C23.3613 29.3334 29.3346 23.3601 29.3346 16.0001C29.3346 8.64008 23.3613 2.66675 16.0013 2.66675ZM22.188 11.7334C21.988 13.8401 21.1213 18.9601 20.6813 21.3201C20.4946 22.3201 20.1213 22.6534 19.7746 22.6934C19.0013 22.7601 18.4146 22.1867 17.668 21.6934C16.4946 20.9201 15.828 20.4401 14.6946 19.6934C13.3746 18.8267 14.228 18.3467 14.988 17.5734C15.188 17.3734 18.6013 14.2667 18.668 13.9867C18.6772 13.9443 18.676 13.9003 18.6644 13.8585C18.6528 13.8167 18.6311 13.7783 18.6013 13.7467C18.5213 13.6801 18.4146 13.7067 18.3213 13.7201C18.2013 13.7467 16.3346 14.9867 12.6946 17.4401C12.1613 17.8001 11.6813 17.9867 11.2546 17.9734C10.7746 17.9601 9.86797 17.7067 9.18797 17.4801C8.34797 17.2134 7.69463 17.0667 7.74797 16.6001C7.77463 16.3601 8.10797 16.1201 8.73464 15.8667C12.628 14.1734 15.2146 13.0534 16.508 12.5201C20.2146 10.9734 20.9746 10.7067 21.4813 10.7067C21.588 10.7067 21.8413 10.7334 22.0013 10.8667C22.1346 10.9734 22.1746 11.1201 22.188 11.2267C22.1746 11.3067 22.2013 11.5467 22.188 11.7334Z" fill="#F9FAFA"/>
</svg>
