<svg width="32" height="32" viewBox="0 0 32 32" fill="none" xmlns="http://www.w3.org/2000/svg">
<path d="M28 10.6667V21.3333C28 23.1014 27.2976 24.7971 26.0474 26.0474C24.7971 27.2976 23.1014 28 21.3333 28H10.6667C8.89856 28 7.20286 27.2976 5.95262 26.0474C4.70238 24.7971 4 23.1014 4 21.3333V10.6667C4 8.89856 4.70238 7.20286 5.95262 5.95262C7.20286 4.70238 8.89856 4 10.6667 4H21.3333C23.1014 4 24.7971 4.70238 26.0474 5.95262C27.2976 7.20286 28 8.89856 28 10.6667Z" fill="white"/>
<path d="M13.332 16C12.5409 16 11.7675 16.2346 11.1098 16.6741C10.452 17.1136 9.93927 17.7384 9.63651 18.4693C9.33376 19.2002 9.25455 20.0044 9.40889 20.7804C9.56323 21.5563 9.9442 22.269 10.5036 22.8284C11.063 23.3878 11.7757 23.7688 12.5517 23.9231C13.3276 24.0775 14.1319 23.9983 14.8628 23.6955C15.5937 23.3928 16.2184 22.8801 16.6579 22.2223C17.0974 21.5645 17.332 20.7911 17.332 20V8C17.776 9.33333 19.4654 12 22.6654 12" fill="white"/>
<path d="M13.332 16C12.5409 16 11.7675 16.2346 11.1098 16.6741C10.452 17.1136 9.93927 17.7384 9.63651 18.4693C9.33376 19.2002 9.25455 20.0044 9.40889 20.7804C9.56323 21.5563 9.9442 22.269 10.5036 22.8284C11.063 23.3878 11.7757 23.7688 12.5517 23.9231C13.3276 24.0775 14.1319 23.9983 14.8628 23.6955C15.5937 23.3928 16.2184 22.8801 16.6579 22.2223C17.0974 21.5645 17.332 20.7911 17.332 20V8C17.776 9.33333 19.4654 12 22.6654 12" stroke="black" stroke-width="1.5" stroke-linecap="round" stroke-linejoin="round"/>
</svg>
