<svg width="24" height="24" viewBox="0 0 24 24" fill="none" xmlns="http://www.w3.org/2000/svg">
<mask id="path-1-inside-1_1401_1682" fill="white">
<path d="M12 19.75C8.28 19.75 5.25 16.72 5.25 13V8C5.25 4.28 8.28 1.25 12 1.25C15.72 1.25 18.75 4.28 18.75 8V13C18.75 16.72 15.72 19.75 12 19.75ZM12 2.75C9.11 2.75 6.75 5.1 6.75 8V13C6.75 15.9 9.11 18.25 12 18.25C14.89 18.25 17.25 15.9 17.25 13V8C17.25 5.1 14.89 2.75 12 2.75Z"/>
</mask>
<path d="M12 19.75C8.28 19.75 5.25 16.72 5.25 13V8C5.25 4.28 8.28 1.25 12 1.25C15.72 1.25 18.75 4.28 18.75 8V13C18.75 16.72 15.72 19.75 12 19.75ZM12 2.75C9.11 2.75 6.75 5.1 6.75 8V13C6.75 15.9 9.11 18.25 12 18.25C14.89 18.25 17.25 15.9 17.25 13V8C17.25 5.1 14.89 2.75 12 2.75Z" fill="#40424F"/>
<path d="M12 18.25C9.10843 18.25 6.75 15.8916 6.75 13H3.75C3.75 17.5484 7.45157 21.25 12 21.25V18.25ZM6.75 13V8H3.75V13H6.75ZM6.75 8C6.75 5.10843 9.10843 2.75 12 2.75V-0.25C7.45157 -0.25 3.75 3.45157 3.75 8H6.75ZM12 2.75C14.8916 2.75 17.25 5.10843 17.25 8H20.25C20.25 3.45157 16.5484 -0.25 12 -0.25V2.75ZM17.25 8V13H20.25V8H17.25ZM17.25 13C17.25 15.8916 14.8916 18.25 12 18.25V21.25C16.5484 21.25 20.25 17.5484 20.25 13H17.25ZM12 1.25C8.28343 1.25 5.25 4.26971 5.25 8H8.25C8.25 5.93029 9.93657 4.25 12 4.25V1.25ZM5.25 8V13H8.25V8H5.25ZM5.25 13C5.25 16.7303 8.28343 19.75 12 19.75V16.75C9.93657 16.75 8.25 15.0697 8.25 13H5.25ZM12 19.75C15.7166 19.75 18.75 16.7303 18.75 13H15.75C15.75 15.0697 14.0634 16.75 12 16.75V19.75ZM18.75 13V8H15.75V13H18.75ZM18.75 8C18.75 4.26971 15.7166 1.25 12 1.25V4.25C14.0634 4.25 15.75 5.93029 15.75 8H18.75Z" fill="#40424F" mask="url(#path-1-inside-1_1401_1682)"/>
<path d="M12 22C7.03421 22 3 17.9658 3 13C3 17.9642 7.03579 22 12 22ZM12 22C16.9658 22 21 17.9658 21 13C21 17.9642 16.9642 22 12 22Z" fill="#40424F" stroke="#40424F" stroke-width="1.5"/>
<path d="M11.8604 7.00501C12.7877 7.0045 13.7149 7.16273 14.5993 7.47971C14.5953 7.47948 14.5922 7.47914 14.5897 7.47879C14.5888 7.47867 14.5881 7.47855 14.5875 7.47844C13.7071 7.16345 12.7838 7.00564 11.8604 7.00501Z" fill="#40424F" stroke="#40424F" stroke-width="1.5"/>
</svg>
