<svg width="144" height="87" viewBox="0 0 144 87" fill="none" xmlns="http://www.w3.org/2000/svg">
<path d="M90.8929 -25.4016L87.2015 -49.4972C86.159 -56.3025 76.6048 -56.9521 74.6508 -50.3505L66.3211 -22.2092C65.2713 -18.6626 61.4584 -16.7252 57.9749 -17.9684L21.9913 -30.8097C15.5779 -33.0984 10.459 -25.1714 15.1839 -20.2677L37.0404 2.41605C39.8925 5.37612 39.2821 10.2137 35.7841 12.3726L3.78259 32.1232C-2.30648 35.8812 1.34838 45.2808 8.37672 43.9384L45.4985 36.8481C49.471 36.0894 53.1527 39.1344 53.1527 43.1787V79.5712C53.1527 86.4138 62.4091 88.5409 65.3962 82.3848L85.6139 40.7184C87.0766 37.704 90.605 36.3131 93.7312 37.5186L134.21 53.1273C140.771 55.6574 146.065 47.3479 140.999 42.4708L110.621 13.2255C107.832 10.5409 108.022 6.02107 111.027 3.58022L134.5 -15.4909C139.775 -19.7758 135.684 -28.2503 129.048 -26.7869L98.6516 -20.0837C95.0146 -19.2817 91.4569 -21.7202 90.8929 -25.4016Z" fill="#BCD9B0"/>
</svg>
