<svg width="81" height="80" viewBox="0 0 81 80" fill="none" xmlns="http://www.w3.org/2000/svg">
<rect x="0.5" width="80" height="80" rx="4" fill="#67A24F" fill-opacity="0.1"/>
<path d="M33.833 29.5833C33.1497 29.5833 32.583 29.0166 32.583 28.3333V23.3333C32.583 22.6499 33.1497 22.0833 33.833 22.0833C34.5163 22.0833 35.083 22.6499 35.083 23.3333V28.3333C35.083 29.0166 34.5163 29.5833 33.833 29.5833Z" fill="#67A24F"/>
<path d="M47.167 29.5833C46.4837 29.5833 45.917 29.0166 45.917 28.3333V23.3333C45.917 22.6499 46.4837 22.0833 47.167 22.0833C47.8503 22.0833 48.417 22.6499 48.417 23.3333V28.3333C48.417 29.0166 47.8503 29.5833 47.167 29.5833Z" fill="#67A24F"/>
<path d="M44.9667 57.9166H33.8333C27.75 57.9166 24.25 54.4166 24.25 48.3333V34.1666C24.25 28.0833 27.75 24.5833 33.8333 24.5833H47.1667C53.25 24.5833 56.75 28.0833 56.75 34.1666V42.7166C56.75 43.1999 56.4666 43.6332 56.05 43.8499C55.6166 44.0499 55.1 43.9999 54.7333 43.6999C52.1 41.5999 48.05 41.5999 45.4167 43.7499C43.6167 45.1666 42.6 47.2833 42.6 49.5999C42.6 50.9666 42.9667 52.2999 43.6833 53.4499C44.2333 54.3499 44.9167 55.1 45.7167 55.6666C46.15 55.9833 46.35 56.5499 46.1833 57.0666C45.9833 57.5666 45.5167 57.9166 44.9667 57.9166ZM33.8333 27.0833C29.0667 27.0833 26.75 29.3999 26.75 34.1666V48.3333C26.75 53.0999 29.0667 55.4166 33.8333 55.4166H41.9834C41.8167 55.1999 41.6667 54.9666 41.5333 54.7333C40.5833 53.2 40.0833 51.4166 40.0833 49.5833C40.0833 46.4999 41.45 43.6666 43.85 41.7833C46.7 39.4666 50.9167 38.9666 54.25 40.4999V34.1666C54.25 29.3999 51.9333 27.0833 47.1667 27.0833H33.8333Z" fill="#67A24F"/>
<path d="M42.167 39.5833H32.167C31.4837 39.5833 30.917 39.0166 30.917 38.3333C30.917 37.6499 31.4837 37.0833 32.167 37.0833H42.167C42.8503 37.0833 43.417 37.6499 43.417 38.3333C43.417 39.0166 42.8503 39.5833 42.167 39.5833Z" fill="#67A24F"/>
<path d="M36.5337 47.9167H32.167C31.4837 47.9167 30.917 47.3501 30.917 46.6667C30.917 45.9834 31.4837 45.4167 32.167 45.4167H36.5337C37.217 45.4167 37.7837 45.9834 37.7837 46.6667C37.7837 47.3501 37.2337 47.9167 36.5337 47.9167Z" fill="#67A24F"/>
<path d="M50.083 59.5833C47.9497 59.5833 45.933 58.9166 44.233 57.6833C43.1663 56.9166 42.2497 55.9167 41.533 54.7333C40.583 53.2 40.083 51.4166 40.083 49.5833C40.083 46.5 41.4497 43.6666 43.8497 41.7833C47.3164 38.9666 52.783 38.9499 56.283 41.7333C58.6997 43.6333 60.083 46.5 60.083 49.5833C60.083 51.4166 59.583 53.2 58.633 54.7333C58.0997 55.65 57.4163 56.45 56.633 57.1C54.8497 58.7 52.5163 59.5833 50.083 59.5833ZM50.083 42.0833C48.383 42.0833 46.7163 42.6666 45.3997 43.7333C43.5997 45.1499 42.583 47.2666 42.583 49.5833C42.583 50.95 42.9497 52.2833 43.6663 53.4333C44.2163 54.3333 44.8997 55.0833 45.6997 55.65C46.983 56.5833 48.4997 57.0833 50.083 57.0833C51.933 57.0833 53.633 56.4333 54.9997 55.2166C55.5997 54.7166 56.083 54.1333 56.483 53.45C57.1997 52.2833 57.583 50.95 57.583 49.5833C57.583 47.2666 56.5497 45.1332 54.733 43.6999C53.3997 42.6332 51.7997 42.0833 50.083 42.0833Z" fill="#67A24F"/>
<path d="M50.0837 55.0001C49.4003 55.0001 48.8337 54.4334 48.8337 53.7501C48.8337 52.1501 47.517 50.8334 45.917 50.8334C45.2337 50.8334 44.667 50.2667 44.667 49.5834C44.667 48.9001 45.2337 48.3334 45.917 48.3334C47.517 48.3334 48.8337 47.0167 48.8337 45.4167C48.8337 44.7334 49.4003 44.1667 50.0837 44.1667C50.767 44.1667 51.3337 44.7334 51.3337 45.4167C51.3337 47.0167 52.6503 48.3334 54.2503 48.3334C54.9337 48.3334 55.5003 48.9001 55.5003 49.5834C55.5003 50.2667 54.9337 50.8334 54.2503 50.8334C52.6503 50.8334 51.3337 52.1501 51.3337 53.7501C51.3337 54.4334 50.767 55.0001 50.0837 55.0001ZM49.367 49.5834C49.617 49.8001 49.867 50.0334 50.0837 50.3001C50.3003 50.0501 50.5336 49.8001 50.8003 49.5834C50.5503 49.3667 50.3003 49.1334 50.0837 48.8668C49.867 49.1334 49.6337 49.3667 49.367 49.5834Z" fill="#67A24F"/>
</svg>
