<svg width="81" height="80" viewBox="0 0 81 80" fill="none" xmlns="http://www.w3.org/2000/svg">
<rect x="0.5" width="80" height="80" rx="4" fill="#0623E5" fill-opacity="0.1"/>
<path d="M45.4499 57.9166H35.4499C26.3999 57.9166 22.5332 54.0499 22.5332 44.9999V34.9999C22.5332 25.9499 26.3999 22.0833 35.4499 22.0833H45.4499C54.4999 22.0833 58.3665 25.9499 58.3665 34.9999V44.9999C58.3665 54.0499 54.5165 57.9166 45.4499 57.9166ZM35.4499 24.5833C27.7665 24.5833 25.0332 27.3166 25.0332 34.9999V44.9999C25.0332 52.6833 27.7665 55.4166 35.4499 55.4166H45.4499C53.1332 55.4166 55.8665 52.6833 55.8665 44.9999V34.9999C55.8665 27.3166 53.1332 24.5833 45.4499 24.5833H35.4499Z" fill="#0623E5"/>
<path d="M39.5831 50.0999C39.1831 50.0999 38.2164 49.9499 37.6497 48.4999L35.7497 43.6999C35.4831 43.0166 34.5331 42.3832 33.8164 42.3832L23.8164 42.4166C23.1331 42.4166 22.5664 41.8666 22.5664 41.1666C22.5664 40.4832 23.1164 39.9166 23.8164 39.9166L33.8164 39.8832H33.8331C35.5831 39.8832 37.4497 41.1499 38.0997 42.7832L39.6164 46.6166L43.0497 37.9166C43.5664 36.6166 44.4831 36.4332 44.8664 36.3999C45.2497 36.3832 46.1831 36.4666 46.8331 37.6999L48.5664 40.9832C48.8664 41.5499 49.7664 42.0999 50.4164 42.0999H57.1831C57.8664 42.0999 58.4331 42.6666 58.4331 43.3499C58.4331 44.0332 57.8664 44.5999 57.1831 44.5999H50.4164C48.8331 44.5999 47.0997 43.5499 46.3664 42.1499L45.0664 39.6832L41.5664 48.4999C40.9497 49.9332 39.9664 50.0999 39.5831 50.0999Z" fill="#0623E5"/>
</svg>
