<svg width="81" height="80" viewBox="0 0 81 80" fill="none" xmlns="http://www.w3.org/2000/svg">
<rect x="0.5" width="80" height="80" rx="4" fill="#FF5765" fill-opacity="0.1"/>
<path d="M36 48.3333C36 48.3333 47.6667 50 52.6667 55H54.3333C55.2538 55 56 54.2538 56 53.3333V43.2283C57.4377 42.8583 58.5 41.5532 58.5 40C58.5 38.4468 57.4377 37.1417 56 36.7717V26.6667C56 25.7462 55.2538 25 54.3333 25H52.6667C47.6667 30 36 31.6667 36 31.6667H29.3333C27.4924 31.6667 26 33.159 26 35V45C26 46.841 27.4924 48.3333 29.3333 48.3333H31L32.6667 56.6667H36V48.3333ZM39.3333 34.4353C40.4722 34.191 41.8792 33.8532 43.3988 33.4062C46.1958 32.5836 49.75 31.2877 52.6667 29.291V50.709C49.75 48.7123 46.1958 47.4165 43.3988 46.5938C41.8792 46.1468 40.4722 45.809 39.3333 45.5647V34.4353ZM29.3333 35H36V45H29.3333V35Z" fill="#FF5765"/>
</svg>
