<svg width="81" height="80" viewBox="0 0 81 80" fill="none" xmlns="http://www.w3.org/2000/svg">
<rect x="0.5" width="80" height="80" rx="4" fill="#FBD508" fill-opacity="0.1"/>
<path d="M36.6667 56.6665H27C26.4477 56.6665 26 56.2188 26 55.6665V49.3332C26 48.7809 26.4477 48.3332 27 48.3332H36.6667C37.219 48.3332 37.6667 48.7809 37.6667 49.3332V55.6665C37.6667 56.2188 37.219 56.6665 36.6667 56.6665Z" stroke="#FBD508" stroke-width="1.5"/>
<path d="M45.8337 31.6665H36.167C35.6147 31.6665 35.167 31.2188 35.167 30.6665V24.3332C35.167 23.7809 35.6147 23.3332 36.167 23.3332H45.8337C46.3859 23.3332 46.8337 23.7809 46.8337 24.3332V30.6665C46.8337 31.2188 46.3859 31.6665 45.8337 31.6665Z" stroke="#FBD508" stroke-width="1.5"/>
<path d="M54.9997 56.6665H45.333C44.7807 56.6665 44.333 56.2188 44.333 55.6665V49.3332C44.333 48.7809 44.7807 48.3332 45.333 48.3332H54.9997C55.552 48.3332 55.9997 48.7809 55.9997 49.3332V55.6665C55.9997 56.2188 55.552 56.6665 54.9997 56.6665Z" stroke="#FBD508" stroke-width="1.5"/>
<path d="M31.833 48.3332V42.4998C31.833 41.6158 32.1842 40.7679 32.8093 40.1428C33.4344 39.5177 34.2823 39.1665 35.1663 39.1665H46.833C47.7171 39.1665 48.5649 39.5177 49.19 40.1428C49.8152 40.7679 50.1663 41.6158 50.1663 42.4998V48.3332M40.9997 39.1665V31.6665" stroke="#FBD508" stroke-width="1.5"/>
</svg>
