<svg width="144" height="75" viewBox="0 0 144 75" fill="none" xmlns="http://www.w3.org/2000/svg">
<path d="M90.8929 -37.4016L87.2015 -61.4972C86.159 -68.3025 76.6048 -68.9521 74.6508 -62.3505L66.3211 -34.2092C65.2713 -30.6626 61.4584 -28.7252 57.9749 -29.9684L21.9913 -42.8097C15.5779 -45.0984 10.459 -37.1714 15.1839 -32.2677L37.0404 -9.58395C39.8925 -6.62388 39.2821 -1.78631 35.7841 0.372566L3.78259 20.1232C-2.30648 23.8812 1.34838 33.2808 8.37672 31.9384L45.4985 24.8481C49.471 24.0894 53.1527 27.1344 53.1527 31.1787V67.5712C53.1527 74.4138 62.4091 76.5409 65.3962 70.3848L85.6139 28.7184C87.0766 25.704 90.605 24.3131 93.7312 25.5186L134.21 41.1273C140.771 43.6574 146.065 35.3479 140.999 30.4708L110.621 1.22552C107.832 -1.45912 108.022 -5.97893 111.027 -8.41978L134.5 -27.4909C139.775 -31.7758 135.684 -40.2503 129.048 -38.7869L98.6516 -32.0837C95.0146 -31.2817 91.4569 -33.7202 90.8929 -37.4016Z" fill="#FF5765" fill-opacity="0.1"/>
</svg>
