<svg width="25" height="24" viewBox="0 0 25 24" fill="none" xmlns="http://www.w3.org/2000/svg">
<path d="M9.49957 2C11.9449 2 13.9388 3.99349 13.9396 6.43867C13.9388 3.99507 11.9433 2 9.49957 2ZM9.49957 2C7.05378 2 5.05957 3.99421 5.05957 6.44M9.49957 2C7.05536 2 5.05957 3.99579 5.05957 6.44M5.05957 6.44C5.05957 7.30851 5.30357 8.11841 5.73342 8.80206C5.30578 8.11939 5.05957 7.31003 5.05957 6.44ZM9.4967 10.8625C9.53187 10.8626 9.57625 10.8643 9.62205 10.8678L9.65072 10.87H9.65055H9.65039H9.65022H9.65006H9.64989H9.64973H9.64957H9.6494H9.64924H9.64908H9.64891H9.64875H9.64859H9.64842H9.64826H9.6481H9.64794H9.64778H9.64761H9.64745H9.64729H9.64713H9.64697H9.64681H9.64665H9.64648H9.64632H9.64616H9.646H9.64584H9.64568H9.64552H9.64536H9.6452H9.64505H9.64489H9.64473H9.64457H9.64441H9.64425H9.64409H9.64393H9.64378H9.64362H9.64346H9.6433H9.64315H9.64299H9.64283H9.64267H9.64252H9.64236H9.6422H9.64205H9.64189H9.64173H9.64158H9.64142H9.64126H9.64111H9.64095H9.6408H9.64064H9.64049H9.64033H9.64018H9.64002H9.63987H9.63971H9.63956H9.6394H9.63925H9.63909H9.63894H9.63879H9.63863H9.63848H9.63833H9.63817H9.63802H9.63787H9.63771H9.63756H9.63741H9.63725H9.6371H9.63695H9.6368H9.63664H9.63649H9.63634H9.63619H9.63603H9.63588H9.63573H9.63558H9.63543H9.63527H9.63512H9.63497H9.63482H9.63467H9.63452H9.63437H9.63422H9.63407H9.63391H9.63376H9.63361H9.63346H9.63331H9.63316H9.63301H9.63286H9.63271H9.63256H9.63241H9.63226H9.63214C9.58674 10.865 9.54127 10.8626 9.4967 10.8625ZM9.4967 10.8625C9.49556 10.8625 9.49444 10.8625 9.49332 10.8625C9.49221 10.8625 9.49113 10.8625 9.49006 10.8625C9.49227 10.8625 9.49448 10.8625 9.4967 10.8625ZM13.9386 6.51758C13.891 8.79665 12.1668 10.6419 9.94478 10.8527C12.1721 10.6352 13.8907 8.78177 13.9386 6.51758Z" fill="#40424F" stroke="#40424F" stroke-width="1.5"/>
<path d="M20.4094 7.5C20.4094 9.37695 18.958 10.8964 17.0951 10.998L17.0711 10.99H17.0799L17.1004 10.9889C18.9563 10.8872 20.4067 9.3612 20.4094 7.4952C20.4094 7.4968 20.4094 7.4984 20.4094 7.5ZM16.8594 10.9921C16.8734 10.9916 16.8878 10.9913 16.9025 10.991L16.8766 10.9935C16.8739 10.9938 16.868 10.9939 16.8594 10.9921Z" fill="#40424F" stroke="#40424F" stroke-width="1.5"/>
<path d="M16.4896 17.485C16.4875 16.3023 15.7515 15.2797 14.6748 14.5654C13.2781 13.6346 11.4513 13.195 9.66961 13.195C7.88759 13.195 6.06036 13.6348 4.66358 14.566C3.57295 15.2931 2.85165 16.3166 2.84961 17.5049C2.84961 17.5033 2.84961 17.5016 2.84961 17.5C2.84961 16.4355 3.43424 15.3784 4.6654 14.5542C6.01765 13.6576 7.82988 13.1875 9.67711 13.1875C11.5251 13.1875 13.3318 13.658 14.6731 14.5537L14.6736 14.554C15.8987 15.3708 16.4896 16.4191 16.4896 17.48C16.4896 17.4817 16.4896 17.4833 16.4896 17.485Z" fill="#40424F" stroke="#40424F" stroke-width="1.5"/>
<path d="M18.8397 20.75C18.4897 20.75 18.1797 20.51 18.1097 20.15C18.0297 19.74 18.2897 19.35 18.6897 19.26C19.3197 19.13 19.8997 18.88 20.3497 18.53C20.9197 18.1 21.2297 17.56 21.2297 16.99C21.2297 16.42 20.9197 15.88 20.3597 15.46C19.9197 15.12 19.3697 14.88 18.7197 14.73C18.3197 14.64 18.0597 14.24 18.1497 13.83C18.2397 13.43 18.6397 13.17 19.0497 13.26C19.9097 13.45 20.6597 13.79 21.2697 14.26C22.1997 14.96 22.7297 15.95 22.7297 16.99C22.7297 18.03 22.1897 19.02 21.2597 19.73C20.6397 20.21 19.8597 20.56 18.9997 20.73C18.9397 20.75 18.8897 20.75 18.8397 20.75Z" fill="#40424F"/>
</svg>
