<svg width="333" height="333" viewBox="0 0 333 333" fill="none" xmlns="http://www.w3.org/2000/svg">
<g opacity="0.2">
<path d="M303.949 56.681C295.362 58.7561 286.717 63.3163 281.66 70.8643C281.602 70.951 281.517 71.0154 281.417 71.0468C281.318 71.0783 281.211 71.0748 281.114 71.037C249.01 58.7036 216.756 102.16 202.181 126.229C202.154 126.272 202.138 126.322 202.134 126.373C202.13 126.424 202.138 126.476 202.157 126.523C202.176 126.571 202.206 126.613 202.244 126.647C202.283 126.681 202.329 126.706 202.378 126.719C202.422 126.73 202.469 126.728 202.511 126.712C202.554 126.696 202.59 126.667 202.616 126.629C216.882 104.59 249.59 61.5896 279.532 73.5345C279.59 73.5577 279.642 73.5926 279.685 73.6369C279.728 73.6811 279.762 73.7338 279.784 73.7917C279.806 73.8496 279.816 73.9114 279.813 73.9732C279.81 74.0351 279.794 74.0956 279.767 74.1511C277.627 78.3691 276.517 88.242 281.228 90.3417C282.002 90.6617 282.851 90.7577 283.677 90.6186C284.503 90.4796 285.273 90.1112 285.899 89.5555C290.777 85.4331 288.798 76.4143 283.889 72.7482C283.794 72.6808 283.727 72.5798 283.703 72.4653C283.679 72.3509 283.699 72.2317 283.76 72.1316C288.277 64.6946 296.238 60.2546 304.227 57.2637C304.281 57.2427 304.327 57.2038 304.357 57.1535C304.387 57.1031 304.398 57.0441 304.39 56.9862C304.383 56.9365 304.365 56.8887 304.339 56.846C304.312 56.8033 304.277 56.7665 304.236 56.7378C304.195 56.7092 304.148 56.6894 304.099 56.6796C304.049 56.6698 303.998 56.6703 303.949 56.681ZM282.708 75.7822C285.107 78.0855 286.479 82.9201 284.774 85.9356C284.6 86.2436 284.344 86.4967 284.034 86.6663C283.723 86.836 283.372 86.9153 283.019 86.8954C282.666 86.8755 282.325 86.7572 282.036 86.5537C281.747 86.3503 281.52 86.07 281.382 85.7445C280.171 82.9695 280.991 78.7145 281.934 75.9518C281.959 75.8779 282.002 75.8116 282.06 75.7592C282.117 75.7069 282.188 75.6703 282.263 75.6529C282.339 75.6355 282.418 75.638 282.493 75.6602C282.568 75.6823 282.635 75.7232 282.69 75.7791L282.708 75.7822Z" fill="#FB2E8A"/>
<path d="M272.179 305.367C270.104 296.78 265.54 288.134 257.995 283.078C257.909 283.02 257.844 282.935 257.813 282.835C257.782 282.736 257.785 282.629 257.823 282.532C270.175 250.431 226.703 218.174 202.631 203.599C202.588 203.572 202.538 203.556 202.487 203.552C202.436 203.547 202.385 203.555 202.338 203.574C202.29 203.594 202.248 203.624 202.215 203.662C202.181 203.701 202.157 203.746 202.144 203.796C202.132 203.84 202.135 203.886 202.151 203.929C202.167 203.971 202.196 204.008 202.233 204.033C224.279 218.3 267.279 251.017 255.335 280.959C255.311 281.017 255.276 281.069 255.232 281.112C255.188 281.155 255.135 281.189 255.077 281.211C255.019 281.233 254.958 281.243 254.896 281.24C254.834 281.237 254.773 281.221 254.718 281.194C250.5 279.054 240.624 277.944 238.527 282.655C238.207 283.429 238.111 284.278 238.25 285.104C238.389 285.93 238.758 286.7 239.314 287.327C243.436 292.204 252.452 290.225 256.121 285.316C256.188 285.22 256.289 285.153 256.403 285.129C256.518 285.105 256.638 285.126 256.737 285.187C264.178 289.704 268.618 297.665 271.608 305.654C271.628 305.709 271.667 305.756 271.718 305.785C271.768 305.815 271.828 305.827 271.886 305.817C271.935 305.808 271.982 305.789 272.024 305.761C272.066 305.733 272.102 305.697 272.129 305.655C272.157 305.613 272.175 305.566 272.184 305.516C272.192 305.467 272.191 305.416 272.179 305.367ZM253.062 284.129C250.759 286.525 245.927 287.897 242.912 286.192C242.604 286.018 242.35 285.762 242.181 285.452C242.011 285.142 241.931 284.791 241.951 284.438C241.97 284.084 242.088 283.744 242.291 283.455C242.494 283.165 242.775 282.939 243.1 282.8C245.875 281.588 250.133 282.409 252.896 283.352C252.97 283.377 253.036 283.42 253.088 283.477C253.141 283.535 253.177 283.605 253.195 283.681C253.212 283.757 253.209 283.836 253.187 283.911C253.165 283.986 253.124 284.053 253.068 284.108L253.062 284.129Z" fill="#FB2E8A"/>
<path d="M29.6416 273.597C38.2287 271.521 46.8744 266.958 51.9311 259.413C51.9896 259.327 52.0757 259.262 52.1754 259.231C52.275 259.2 52.3824 259.203 52.4799 259.241C84.5805 271.592 116.838 228.12 131.413 204.049C131.439 204.005 131.455 203.956 131.459 203.905C131.463 203.854 131.455 203.803 131.435 203.756C131.416 203.709 131.387 203.667 131.349 203.633C131.31 203.599 131.265 203.575 131.216 203.562C131.172 203.55 131.125 203.552 131.083 203.568C131.04 203.584 131.004 203.613 130.978 203.651C116.703 225.7 83.9946 268.697 54.0493 256.752C53.9919 256.729 53.94 256.694 53.8967 256.65C53.8534 256.606 53.8197 256.553 53.7977 256.495C53.7757 256.437 53.7659 256.375 53.7689 256.313C53.7718 256.252 53.7875 256.191 53.815 256.136C55.9579 251.918 57.0679 242.042 52.3566 239.945C51.582 239.625 50.7331 239.529 49.9067 239.668C49.0803 239.807 48.3095 240.176 47.6822 240.731C42.8044 244.854 44.787 253.869 49.6956 257.539C49.7912 257.606 49.8576 257.707 49.8817 257.821C49.9057 257.936 49.8855 258.055 49.8251 258.155C45.305 265.595 37.3469 270.035 29.358 273.026C29.3027 273.046 29.2562 273.085 29.2264 273.135C29.1966 273.186 29.1853 273.246 29.1946 273.304C29.2033 273.353 29.222 273.4 29.2495 273.442C29.2771 273.484 29.3129 273.519 29.3548 273.547C29.3967 273.574 29.4437 273.593 29.4931 273.601C29.5424 273.61 29.593 273.608 29.6416 273.597ZM50.8827 254.48C48.487 252.177 47.1118 247.345 48.8169 244.329C48.9907 244.022 49.2472 243.768 49.5574 243.599C49.8677 243.429 50.2192 243.35 50.5722 243.37C50.9252 243.39 51.2656 243.508 51.5548 243.711C51.844 243.915 52.0705 244.195 52.2086 244.521C53.4203 247.296 52.6001 251.551 51.6566 254.313C51.6321 254.387 51.5889 254.454 51.5313 254.506C51.4736 254.558 51.4034 254.595 51.3275 254.612C51.2516 254.63 51.1725 254.627 51.0978 254.605C51.0232 254.583 50.9555 254.542 50.9012 254.486L50.8827 254.48Z" fill="#FB2E8A"/>
<path d="M61.4146 24.975C63.4897 33.5621 68.0499 42.2077 75.5979 47.2644C75.6847 47.322 75.7491 47.4076 75.7805 47.5068C75.8119 47.6061 75.8084 47.7131 75.7706 47.8102C63.4373 79.9138 106.894 112.169 130.962 126.743C131.006 126.77 131.056 126.786 131.107 126.79C131.158 126.795 131.209 126.787 131.257 126.768C131.304 126.748 131.347 126.718 131.381 126.68C131.415 126.642 131.439 126.596 131.453 126.546C131.464 126.502 131.462 126.456 131.446 126.413C131.43 126.371 131.401 126.334 131.363 126.309C109.323 112.042 66.3233 79.3342 78.2681 49.3919C78.2914 49.3345 78.3262 49.2826 78.3705 49.2393C78.4148 49.196 78.4675 49.1623 78.5254 49.1403C78.5832 49.1183 78.645 49.1085 78.7069 49.1115C78.7687 49.1144 78.8293 49.1301 78.8848 49.1576C83.1028 51.2974 92.9756 52.4074 95.0754 47.6961C95.3954 46.922 95.4913 46.0736 95.3523 45.2477C95.2133 44.4217 94.8449 43.6515 94.2891 43.0248C90.1667 38.147 81.1479 40.1296 77.4819 45.0382C77.4136 45.1327 77.3123 45.198 77.1981 45.2215C77.084 45.2449 76.9652 45.2246 76.8652 45.1647C69.4282 40.6476 64.9882 32.6864 61.9974 24.7006C61.9769 24.6454 61.9383 24.5989 61.8878 24.5686C61.8374 24.5384 61.7782 24.5262 61.7199 24.5341C61.6701 24.5414 61.6224 24.5588 61.5797 24.5854C61.5369 24.6119 61.5001 24.6469 61.4715 24.6882C61.4429 24.7296 61.423 24.7764 61.4133 24.8257C61.4035 24.875 61.4039 24.9258 61.4146 24.975ZM80.5159 46.2161C82.8191 43.8172 87.6538 42.4452 90.6693 44.1502C90.973 44.3254 91.2222 44.5815 91.3889 44.89C91.5557 45.1984 91.6335 45.5472 91.6136 45.8972C91.5938 46.2473 91.4771 46.585 91.2767 46.8727C91.0762 47.1604 90.7997 47.3867 90.4781 47.5265C87.7031 48.7382 83.4481 47.9181 80.6854 46.9746C80.6115 46.95 80.5452 46.9068 80.4929 46.8492C80.4405 46.7915 80.4039 46.7214 80.3866 46.6455C80.3692 46.5695 80.3717 46.4904 80.3938 46.4158C80.4159 46.3411 80.4569 46.2734 80.5128 46.2192L80.5159 46.2161Z" fill="#FB2E8A"/>
<path d="M49.7931 111.49C49.8072 111.468 49.8256 111.449 49.8474 111.433C49.8691 111.418 49.8936 111.408 49.9195 111.402C49.9454 111.397 49.9721 111.397 49.998 111.402C50.024 111.407 50.0487 111.417 50.0706 111.432C71.0373 125.452 93.3483 138.257 113.091 154.571C113.138 154.614 113.168 154.673 113.176 154.737C113.183 154.801 113.167 154.866 113.131 154.919C113.078 155.003 112.994 155.063 112.898 155.088C112.802 155.112 112.7 155.099 112.613 155.052C90.8477 142.919 70.4977 126.537 49.8764 112.051C49.7935 111.986 49.7387 111.892 49.7232 111.787C49.7077 111.683 49.7328 111.577 49.7931 111.49Z" fill="#FB2E8A"/>
<path d="M222.479 42.7411C222.502 42.7552 222.521 42.7736 222.536 42.7953C222.551 42.8171 222.562 42.8416 222.567 42.8675C222.573 42.8934 222.573 42.9201 222.568 42.946C222.563 42.972 222.553 42.9967 222.538 43.0186C208.521 63.9853 195.713 86.2994 179.402 106.039C179.358 106.087 179.299 106.118 179.234 106.125C179.169 106.132 179.104 106.116 179.051 106.079C178.967 106.026 178.907 105.942 178.883 105.846C178.859 105.749 178.872 105.647 178.921 105.561C191.054 83.7957 207.436 63.4457 221.918 42.8244C221.983 42.7415 222.078 42.6867 222.182 42.6712C222.287 42.6557 222.393 42.6808 222.479 42.7411Z" fill="#FB2E8A"/>
<path d="M285.417 216.842C285.403 216.864 285.384 216.883 285.363 216.898C285.341 216.914 285.316 216.924 285.291 216.93C285.265 216.935 285.238 216.935 285.212 216.93C285.186 216.925 285.161 216.915 285.139 216.9C264.173 202.883 241.859 190.075 222.119 173.764C222.071 173.721 222.04 173.661 222.033 173.596C222.026 173.531 222.042 173.466 222.079 173.413C222.133 173.33 222.216 173.27 222.312 173.245C222.408 173.221 222.51 173.233 222.597 173.28C244.362 185.413 264.712 201.798 285.334 216.28C285.417 216.346 285.471 216.44 285.487 216.544C285.502 216.649 285.477 216.755 285.417 216.842Z" fill="#FB2E8A"/>
<path d="M119.436 286.836C119.414 286.822 119.394 286.804 119.379 286.782C119.364 286.76 119.353 286.736 119.348 286.71C119.343 286.684 119.342 286.657 119.347 286.631C119.352 286.605 119.363 286.581 119.378 286.559C133.394 265.592 146.203 243.278 162.513 223.539C162.557 223.49 162.617 223.46 162.682 223.452C162.746 223.445 162.811 223.461 162.865 223.499C162.948 223.552 163.008 223.636 163.032 223.732C163.057 223.828 163.044 223.929 162.997 224.017C150.865 245.782 134.483 266.132 119.997 286.75C119.932 286.833 119.838 286.888 119.733 286.903C119.629 286.919 119.523 286.894 119.436 286.833V286.836Z" fill="#FB2E8A"/>
<path d="M176.83 74.5026C176.279 74.0712 175.892 73.4643 175.734 72.7828C175.576 72.1013 175.656 71.3862 175.96 70.7563C175.995 70.6937 176.016 70.6246 176.022 70.5533C176.028 70.4821 176.019 70.4104 175.995 70.3429C175.972 70.2754 175.934 70.2136 175.885 70.1616C175.836 70.1096 175.776 70.0685 175.711 70.041C175.672 69.9553 175.613 69.8802 175.539 69.822C175.465 69.7637 175.378 69.724 175.286 69.7062C175.193 69.6884 175.098 69.693 175.008 69.7196C174.918 69.7462 174.835 69.794 174.767 69.8591C173.828 70.7584 172.586 71.2741 171.286 71.3052C171.15 71.3018 171.016 71.342 170.904 71.4197C170.792 71.4975 170.708 71.6089 170.664 71.7377C170.619 71.8665 170.617 72.0061 170.658 72.1362C170.698 72.2664 170.779 72.3803 170.888 72.4614C171.484 72.9174 171.906 73.5648 172.081 74.2948C172.256 75.0248 172.175 75.7928 171.85 76.4697C171.6 76.9507 172.057 77.7894 172.655 77.3947C173.253 77.0001 173.676 76.4358 174.197 75.9518C174.792 75.4183 175.513 75.4338 176.253 75.6157C176.395 75.6578 176.548 75.6491 176.684 75.591C176.821 75.5329 176.933 75.429 177.001 75.2973C177.069 75.1655 177.09 75.0141 177.058 74.8691C177.027 74.7241 176.946 74.5945 176.83 74.5026ZM174.129 74.5026C173.868 74.6272 173.629 74.7939 173.423 74.9959C173.41 74.0679 173.115 73.1657 172.578 72.409C173.218 72.269 173.832 72.0319 174.4 71.706C174.325 72.6008 174.529 73.4968 174.983 74.2713C174.688 74.3023 174.4 74.3793 174.129 74.4995V74.5026Z" fill="#FB2E8A"/>
<path d="M151.085 84.5234C150.468 83.6354 149.812 82.7566 149.173 81.8717C149.106 81.7827 149.017 81.7123 148.916 81.6671C148.814 81.6219 148.702 81.6033 148.591 81.6132C148.48 81.623 148.373 81.661 148.281 81.7235C148.189 81.786 148.114 81.871 148.063 81.9704C147.916 81.8865 147.741 81.8644 147.577 81.9089C147.413 81.9533 147.273 82.0608 147.188 82.2078L145.726 84.6991C145.335 85.3682 144.752 86.0065 145.082 86.7989C145.498 87.6578 145.96 88.4946 146.463 89.3056C146.94 90.1628 147.416 91.021 147.891 91.8802C148.14 92.3273 148.763 92.1886 148.985 91.8155C149.952 90.1938 150.759 88.4817 151.393 86.7033C151.702 85.8153 151.652 85.3035 151.085 84.5234ZM149.935 86.9901C149.501 88.1062 148.996 89.1937 148.424 90.2461L146.574 86.8976C146.48 86.7634 146.401 86.6197 146.337 86.469C146.263 86.21 146.337 86.1606 146.497 85.9109L147.046 84.9859C147.465 84.2706 147.884 83.5583 148.301 82.843L149.67 84.7392C149.882 85.0321 150.286 85.4083 150.32 85.7691C150.354 86.1298 150.08 86.6231 149.944 86.9777L149.935 86.9901Z" fill="#FB2E8A"/>
<path d="M127.445 62.7766C125.903 63.085 124.361 63.418 122.847 63.7756C122.57 63.1055 122.293 62.4354 122.018 61.7653C121.966 61.6332 121.87 61.5231 121.746 61.4536C121.623 61.384 121.479 61.3593 121.339 61.3836C121.199 61.4079 121.072 61.4797 120.979 61.5868C120.886 61.694 120.832 61.83 120.828 61.9719L120.621 64.3306C119.104 64.7315 117.603 65.1878 116.126 65.7274C116.001 65.7714 115.894 65.8541 115.821 65.9634C115.747 66.0726 115.71 66.2027 115.715 66.3345C115.721 66.4663 115.769 66.5928 115.851 66.6955C115.934 66.7983 116.048 66.8717 116.175 66.9052C117.575 67.2617 118.945 67.7256 120.273 68.2927C120.193 69.2177 120.111 70.1427 120.029 71.0677L119.477 71.7553C119.409 71.8454 119.365 71.9519 119.351 72.0641C119.337 72.1763 119.352 72.2903 119.395 72.3948C119.439 72.4992 119.508 72.5905 119.598 72.6596C119.688 72.7286 119.794 72.773 119.906 72.7882C120.029 73.374 121.053 73.2661 121.115 72.56L121.204 71.5549C121.694 70.9382 122.191 70.3555 122.69 69.7604C122.944 69.9754 123.184 70.2061 123.409 70.451C123.979 71.0831 124.392 71.8231 125.345 71.8231C125.438 71.8182 125.529 71.7921 125.611 71.747C125.692 71.7018 125.763 71.6387 125.816 71.5624C125.87 71.4861 125.906 71.3986 125.921 71.3065C125.936 71.2144 125.93 71.1201 125.903 71.0307C125.424 69.9269 124.95 68.8128 124.482 67.6884C125.653 66.3564 126.854 65.049 128.083 63.7664C128.536 63.2946 127.997 62.6625 127.445 62.7766ZM121.753 65.2957L122.123 65.2032C122.431 65.9525 122.74 66.7048 123.063 67.454L122.496 68.1108C122.188 67.9135 121.879 67.7285 121.552 67.5589C121.62 66.8065 121.685 66.0511 121.753 65.2957ZM118.327 66.267C119.049 66.0357 119.776 65.823 120.507 65.6225L120.387 67.0131C119.715 66.7295 119.018 66.4859 118.327 66.267ZM121.392 69.415L121.438 68.8909L121.7 69.0481L121.392 69.415ZM123.748 69.0759C123.686 69.0204 123.624 68.9618 123.563 68.9094L123.48 68.8385L123.594 68.709L123.748 69.0759ZM123.335 64.9165C124.179 64.7109 125.025 64.5228 125.872 64.3522C125.231 65.0388 124.598 65.7346 123.973 66.4396L123.335 64.9165Z" fill="#FB2E8A"/>
<path d="M168.934 44.2982C167.457 43.774 165.977 43.2499 164.485 42.7565C164.599 42.0412 164.71 41.3228 164.824 40.5982C164.849 40.4581 164.824 40.3138 164.754 40.1897C164.685 40.0657 164.574 39.9696 164.442 39.9177C164.309 39.8658 164.163 39.8613 164.027 39.905C163.892 39.9487 163.776 40.0378 163.699 40.1573L162.296 42.0628C160.791 41.6188 159.271 41.2241 157.729 40.9189C157.601 40.8924 157.467 40.9077 157.347 40.9626C157.228 41.0175 157.129 41.1091 157.066 41.2241C157.002 41.339 156.977 41.4714 156.993 41.6017C157.01 41.7321 157.068 41.8536 157.159 41.9487C158.167 42.9821 159.095 44.0912 159.934 45.2664L158.278 47.5172L157.449 47.8255C157.344 47.8669 157.251 47.935 157.181 48.0232C157.11 48.1113 157.064 48.2164 157.046 48.328C157.029 48.4396 157.041 48.5538 157.081 48.6593C157.121 48.7648 157.189 48.8579 157.276 48.9294C157.079 49.4936 158.01 49.9345 158.429 49.3641L159.027 48.5501C159.758 48.2911 160.495 48.0383 161.229 47.7916C161.338 48.1066 161.423 48.4292 161.485 48.7567C161.642 49.5892 161.614 50.4371 162.41 50.9335C162.492 50.9776 162.583 51.0024 162.677 51.0061C162.77 51.0098 162.863 50.9923 162.948 50.9549C163.034 50.9175 163.11 50.8612 163.17 50.7902C163.231 50.7192 163.274 50.6354 163.298 50.545C163.471 49.3466 163.646 48.1472 163.825 46.9468C165.521 46.4185 167.226 45.9262 168.94 45.4699C169.597 45.325 169.465 44.4863 168.934 44.2982ZM162.768 43.4904L163.134 43.6044C163.011 44.4092 162.891 45.2109 162.768 46.0156L161.941 46.2839C161.784 45.954 161.608 45.6333 161.423 45.3219L162.768 43.4904ZM159.33 42.55C160.068 42.7329 160.8 42.9282 161.528 43.1358C161.251 43.5089 160.976 43.885 160.702 44.2581C160.273 43.6538 159.811 43.0895 159.33 42.55ZM160.31 46.8327C160.415 46.694 160.52 46.5521 160.618 46.4103C160.668 46.4997 160.714 46.5891 160.76 46.6816L160.31 46.8327ZM162.499 47.7577C162.478 47.6775 162.453 47.5974 162.428 47.5172C162.404 47.437 162.404 47.4494 162.394 47.4155L162.558 47.363C162.539 47.4833 162.518 47.6251 162.49 47.7577H162.499ZM164.297 43.9806C165.119 44.2519 165.941 44.5315 166.764 44.8193C165.857 45.0742 164.954 45.3393 164.053 45.6148L164.297 43.9806Z" fill="#FB2E8A"/>
<path d="M248.026 175.821C248.457 175.269 249.064 174.881 249.745 174.723C250.427 174.565 251.143 174.645 251.773 174.951C251.835 174.986 251.905 175.006 251.976 175.012C252.047 175.018 252.119 175.009 252.187 174.985C252.254 174.962 252.316 174.924 252.369 174.875C252.421 174.827 252.463 174.768 252.491 174.702C252.576 174.662 252.651 174.603 252.709 174.528C252.767 174.454 252.806 174.367 252.824 174.274C252.841 174.182 252.836 174.086 252.81 173.996C252.783 173.906 252.735 173.823 252.67 173.755C251.773 172.814 251.257 171.574 251.224 170.274C251.229 170.136 251.189 169.999 251.109 169.886C251.03 169.772 250.916 169.688 250.785 169.644C250.653 169.601 250.511 169.602 250.38 169.647C250.249 169.691 250.136 169.777 250.058 169.892C249.601 170.487 248.954 170.908 248.224 171.083C247.495 171.258 246.727 171.177 246.05 170.854C245.569 170.604 244.733 171.057 245.125 171.655C245.516 172.254 246.081 172.676 246.565 173.216C247.098 173.808 247.083 174.529 246.904 175.269C246.867 175.411 246.88 175.562 246.941 175.696C247.002 175.83 247.108 175.938 247.24 176.003C247.372 176.068 247.522 176.085 247.665 176.052C247.809 176.019 247.936 175.937 248.026 175.821ZM248.026 173.117C247.903 172.856 247.737 172.617 247.536 172.411C248.463 172.399 249.364 172.106 250.12 171.569C250.26 172.208 250.497 172.821 250.823 173.388C249.928 173.315 249.033 173.518 248.257 173.971C248.228 173.676 248.151 173.387 248.029 173.117H248.026Z" fill="#FB2E8A"/>
<path d="M238.006 150.084C238.894 149.449 239.776 148.808 240.658 148.17C240.667 147.493 240.553 146.82 240.322 146.184L237.83 144.722C237.161 144.331 236.526 143.748 235.734 144.081C234.872 144.495 234.034 144.956 233.224 145.462L230.649 146.89C230.205 147.137 230.341 147.759 230.717 147.981C232.339 148.943 234.05 149.745 235.826 150.377C236.717 150.692 237.229 150.639 238.006 150.084ZM235.567 148.925C234.451 148.491 233.364 147.986 232.311 147.414L235.663 145.564C235.797 145.47 235.941 145.391 236.091 145.327C236.347 145.253 236.4 145.327 236.65 145.49L237.575 146.036L239.714 147.294L237.818 148.66C237.525 148.873 237.152 149.276 236.788 149.31C236.424 149.344 235.906 149.07 235.567 148.925Z" fill="#FB2E8A"/>
<path d="M259.751 126.432C259.442 124.89 259.109 123.349 258.752 121.835L260.762 121.005C260.894 120.953 261.004 120.857 261.074 120.734C261.143 120.61 261.168 120.466 261.144 120.326C261.119 120.186 261.048 120.059 260.94 119.966C260.833 119.873 260.697 119.82 260.555 119.815L258.197 119.609C257.796 118.092 257.343 116.59 256.8 115.113C256.756 114.989 256.673 114.882 256.564 114.808C256.455 114.734 256.325 114.697 256.193 114.703C256.061 114.708 255.934 114.756 255.832 114.839C255.729 114.921 255.656 115.035 255.622 115.162C255.265 116.562 254.802 117.933 254.238 119.263L251.463 119.02C251.235 118.835 251.006 118.647 250.775 118.465C250.685 118.398 250.579 118.356 250.468 118.342C250.356 118.328 250.243 118.344 250.14 118.387C250.036 118.43 249.946 118.5 249.877 118.588C249.809 118.677 249.764 118.782 249.748 118.893C249.166 119.017 249.27 120.04 249.977 120.102L250.985 120.191C251.585 120.681 252.182 121.176 252.776 121.677C252.564 121.933 252.333 122.173 252.086 122.396C251.469 122.966 250.717 123.383 250.713 124.332C250.718 124.425 250.744 124.516 250.79 124.598C250.835 124.68 250.898 124.75 250.974 124.804C251.05 124.857 251.138 124.893 251.23 124.908C251.322 124.923 251.416 124.917 251.506 124.89C252.622 124.413 253.738 123.94 254.854 123.469C256.186 124.643 257.494 125.843 258.776 127.07C259.236 127.523 259.868 126.984 259.751 126.432ZM257.232 120.74C257.262 120.863 257.296 120.987 257.327 121.11L255.073 122.054C254.857 121.862 254.635 121.674 254.417 121.483C254.617 121.175 254.799 120.867 254.968 120.543L257.232 120.74ZM256.263 117.315C256.492 118.036 256.705 118.763 256.905 119.494L255.517 119.374C255.801 118.708 256.041 118.011 256.263 117.315ZM253.112 120.379L253.64 120.426C253.587 120.515 253.535 120.601 253.479 120.688L253.112 120.379ZM253.451 122.735C253.51 122.673 253.566 122.615 253.621 122.55L253.689 122.467L253.821 122.581L253.451 122.735ZM257.614 122.31C257.811 123.151 257.996 123.996 258.178 124.844C257.488 124.203 256.791 123.57 256.088 122.945L257.614 122.31Z" fill="#FB2E8A"/>
<path d="M278.229 167.924C278.754 166.447 279.278 164.967 279.771 163.478L281.929 163.814C282.07 163.84 282.215 163.816 282.34 163.747C282.464 163.677 282.561 163.567 282.614 163.434C282.666 163.301 282.671 163.154 282.627 163.018C282.583 162.883 282.493 162.766 282.373 162.689L280.465 161.286C280.912 159.781 281.303 158.264 281.609 156.72C281.635 156.591 281.62 156.457 281.565 156.338C281.51 156.218 281.418 156.119 281.304 156.056C281.189 155.992 281.056 155.967 280.926 155.984C280.796 156 280.674 156.058 280.579 156.149C279.546 157.157 278.438 158.084 277.264 158.924L275.013 157.268C274.915 156.994 274.816 156.716 274.705 156.439C274.663 156.334 274.594 156.242 274.506 156.172C274.417 156.102 274.312 156.056 274.2 156.039C274.088 156.021 273.974 156.034 273.869 156.074C273.763 156.115 273.67 156.182 273.598 156.269C273.037 156.069 272.593 157 273.163 157.419L273.977 158.018C274.24 158.751 274.489 159.485 274.736 160.222C274.421 160.328 274.1 160.413 273.774 160.475C272.938 160.635 272.09 160.605 271.594 161.4C271.549 161.482 271.524 161.574 271.52 161.668C271.516 161.761 271.533 161.855 271.571 161.94C271.608 162.026 271.665 162.103 271.736 162.163C271.808 162.224 271.892 162.268 271.983 162.291C273.182 162.461 274.381 162.64 275.581 162.818C276.109 164.512 276.601 166.216 277.058 167.931C277.221 168.587 278.041 168.455 278.229 167.924ZM279.037 161.758C279 161.878 278.963 162.001 278.923 162.125C278.121 161.998 277.317 161.878 276.512 161.758C276.426 161.48 276.336 161.206 276.247 160.928C276.574 160.771 276.894 160.598 277.206 160.41L279.037 161.758ZM279.99 158.326C279.811 159.063 279.614 159.797 279.404 160.524L278.282 159.698C278.874 159.266 279.441 158.792 279.99 158.32V158.326ZM275.707 159.306L276.133 159.615L275.858 159.757C275.809 159.602 275.76 159.451 275.707 159.3V159.306ZM274.782 161.496L275.023 161.425L275.124 161.391C275.143 161.446 275.161 161.502 275.177 161.554L274.782 161.496ZM278.559 163.296C278.288 164.116 278.007 164.937 277.724 165.763C277.467 164.856 277.201 163.953 276.925 163.053L278.559 163.296Z" fill="#FB2E8A"/>
<path d="M159.04 250.33C159.59 250.759 159.977 251.364 160.135 252.045C160.293 252.725 160.214 253.438 159.909 254.067C159.875 254.13 159.855 254.199 159.849 254.27C159.843 254.342 159.852 254.413 159.876 254.481C159.899 254.549 159.937 254.611 159.985 254.663C160.034 254.715 160.093 254.757 160.159 254.785C160.199 254.871 160.258 254.946 160.332 255.004C160.406 255.062 160.493 255.102 160.586 255.12C160.678 255.138 160.774 255.133 160.864 255.107C160.955 255.08 161.038 255.032 161.106 254.967C162.045 254.067 163.286 253.55 164.587 253.518C164.724 253.523 164.859 253.483 164.971 253.406C165.084 253.328 165.169 253.216 165.213 253.086C165.257 252.957 165.259 252.816 165.217 252.686C165.175 252.555 165.093 252.442 164.982 252.362C164.386 251.905 163.966 251.257 163.791 250.528C163.616 249.798 163.696 249.031 164.02 248.353C164.269 247.875 163.816 247.037 163.218 247.428C162.62 247.82 162.197 248.387 161.658 248.868C161.066 249.402 160.344 249.389 159.604 249.207C159.461 249.165 159.307 249.174 159.17 249.234C159.032 249.293 158.92 249.399 158.853 249.533C158.786 249.666 158.768 249.82 158.802 249.965C158.836 250.111 158.92 250.24 159.04 250.33ZM161.744 250.33C162.005 250.207 162.244 250.041 162.45 249.839C162.462 250.766 162.755 251.667 163.292 252.423C162.653 252.564 162.04 252.801 161.473 253.126C161.545 252.232 161.341 251.337 160.89 250.561C161.185 250.53 161.474 250.452 161.744 250.33Z" fill="#FB2E8A"/>
<path d="M184.778 240.306C185.414 241.194 186.055 242.076 186.693 242.957C186.76 243.047 186.848 243.117 186.949 243.163C187.051 243.208 187.162 243.227 187.273 243.218C187.384 243.208 187.491 243.17 187.583 243.108C187.675 243.046 187.75 242.961 187.8 242.862C187.949 242.946 188.124 242.967 188.289 242.922C188.454 242.877 188.594 242.769 188.679 242.621L190.14 240.13C190.532 239.461 191.115 238.826 190.782 238.033C190.369 237.172 189.908 236.336 189.4 235.527C188.926 234.667 188.45 233.809 187.973 232.952C187.726 232.505 187.103 232.644 186.881 233.017C185.92 234.638 185.117 236.349 184.486 238.126C184.171 239.017 184.223 239.529 184.778 240.306ZM185.932 237.839C186.365 236.724 186.87 235.637 187.442 234.586L189.292 237.935C189.386 238.069 189.466 238.212 189.53 238.363C189.604 238.619 189.53 238.672 189.366 238.921L188.821 239.846L187.563 241.986L186.197 240.09C185.984 239.782 185.58 239.424 185.546 239.06C185.512 238.696 185.793 238.206 185.925 237.851L185.932 237.839Z" fill="#FB2E8A"/>
<path d="M208.433 262.056C209.975 261.747 211.517 261.411 213.034 261.054C213.311 261.723 213.585 262.395 213.863 263.064C213.915 263.196 214.011 263.306 214.135 263.376C214.258 263.445 214.402 263.47 214.542 263.446C214.682 263.421 214.809 263.349 214.902 263.242C214.995 263.135 215.049 262.999 215.053 262.857L215.26 260.499C216.777 260.098 218.278 259.644 219.755 259.102C219.88 259.058 219.987 258.975 220.06 258.866C220.134 258.756 220.171 258.626 220.166 258.495C220.16 258.363 220.112 258.236 220.03 258.134C219.947 258.031 219.833 257.957 219.706 257.924C218.305 257.568 216.934 257.106 215.605 256.54C215.687 255.612 215.768 254.687 215.849 253.765C216.034 253.536 216.222 253.308 216.404 253.077C216.472 252.987 216.516 252.88 216.53 252.768C216.544 252.656 216.529 252.542 216.486 252.437C216.443 252.333 216.373 252.242 216.283 252.173C216.193 252.104 216.087 252.059 215.975 252.044C215.852 251.461 214.828 251.566 214.766 252.272L214.677 253.28C214.188 253.883 213.692 254.48 213.191 255.072C212.935 254.859 212.695 254.628 212.472 254.381C211.902 253.765 211.486 253.012 210.536 253.009C210.443 253.014 210.351 253.04 210.269 253.085C210.187 253.131 210.117 253.194 210.063 253.271C210.009 253.347 209.974 253.435 209.959 253.528C209.944 253.62 209.951 253.715 209.978 253.805C210.455 254.919 210.929 256.034 211.399 257.15C210.224 258.482 209.023 259.789 207.798 261.072C207.339 261.538 207.878 262.17 208.433 262.056ZM214.128 259.533L213.755 259.629C213.445 258.877 213.136 258.126 212.83 257.378L213.367 256.718C213.675 256.919 213.983 257.101 214.307 257.27C214.255 258.026 214.187 258.781 214.122 259.533H214.128ZM217.554 258.565C216.829 258.793 216.105 259.006 215.374 259.207L215.494 257.819C216.16 258.103 216.851 258.346 217.548 258.565H217.554ZM214.489 255.414L214.443 255.941L214.181 255.781L214.489 255.414ZM212.133 255.753C212.192 255.812 212.253 255.867 212.318 255.923L212.401 255.991C212.361 256.034 212.324 256.077 212.287 256.123C212.229 256 212.176 255.877 212.133 255.753ZM212.559 259.916C211.717 260.113 210.872 260.298 210.024 260.48C210.666 259.789 211.299 259.093 211.924 258.39C212.133 258.897 212.343 259.409 212.553 259.925L212.559 259.916Z" fill="#FB2E8A"/>
<path d="M166.938 280.531C168.415 281.055 169.895 281.579 171.384 282.073C171.273 282.792 171.161 283.511 171.048 284.231C171.023 284.371 171.046 284.516 171.116 284.641C171.185 284.766 171.296 284.863 171.428 284.915C171.561 284.968 171.708 284.972 171.844 284.928C171.98 284.885 172.096 284.795 172.174 284.675L173.592 282.742C175.097 283.189 176.614 283.583 178.158 283.886C178.287 283.912 178.421 283.897 178.54 283.842C178.66 283.787 178.758 283.695 178.822 283.58C178.886 283.465 178.911 283.333 178.894 283.203C178.877 283.072 178.819 282.951 178.729 282.856C177.72 281.823 176.793 280.715 175.954 279.541L177.606 277.29L178.439 276.982C178.544 276.94 178.636 276.871 178.706 276.783C178.776 276.694 178.822 276.589 178.839 276.477C178.856 276.365 178.844 276.251 178.804 276.145C178.763 276.04 178.696 275.947 178.608 275.875C178.809 275.314 177.878 274.87 177.458 275.44L176.842 276.257C176.11 276.516 175.376 276.768 174.64 277.013C174.534 276.698 174.45 276.377 174.387 276.051C174.227 275.215 174.258 274.367 173.462 273.871C173.38 273.826 173.288 273.801 173.195 273.797C173.101 273.793 173.008 273.81 172.922 273.848C172.836 273.885 172.76 273.942 172.699 274.013C172.638 274.084 172.595 274.169 172.571 274.259C172.402 275.459 172.223 276.658 172.044 277.858C170.35 278.384 168.646 278.876 166.932 279.335C166.275 279.523 166.408 280.343 166.938 280.531ZM173.105 281.339L172.738 281.228C172.861 280.422 172.983 279.617 173.105 278.814L173.934 278.548C174.09 278.875 174.263 279.196 174.452 279.51C174.008 280.118 173.561 280.728 173.111 281.339H173.105ZM176.533 282.291C175.8 282.113 175.066 281.915 174.338 281.706C174.612 281.333 174.89 280.959 175.164 280.583C175.596 281.175 176.059 281.743 176.54 282.291H176.533ZM175.556 278.009L175.248 278.434L175.106 278.16L175.556 278.009ZM173.367 277.084C173.388 277.164 173.413 277.244 173.438 277.324C173.462 277.404 173.459 277.392 173.472 277.426L173.305 277.478C173.333 277.337 173.351 277.192 173.373 277.071L173.367 277.084ZM171.566 280.861C170.746 280.593 169.926 280.312 169.099 280.025C170.006 279.77 170.908 279.504 171.807 279.227C171.742 279.76 171.656 280.306 171.572 280.848L171.566 280.861Z" fill="#FB2E8A"/>
<path d="M83.7806 154.916C83.3492 155.467 82.7423 155.853 82.0609 156.011C81.3794 156.17 80.6643 156.09 80.0344 155.785C79.9715 155.751 79.9022 155.73 79.8307 155.724C79.7592 155.718 79.6873 155.727 79.6196 155.75C79.5518 155.774 79.4898 155.812 79.4375 155.861C79.3852 155.91 79.3438 155.969 79.316 156.035C79.2305 156.074 79.1557 156.134 79.0978 156.208C79.0398 156.282 79.0005 156.368 78.983 156.461C78.9655 156.553 78.9703 156.648 78.9971 156.738C79.024 156.829 79.072 156.911 79.1371 156.979C80.0341 157.92 80.5495 159.16 80.5832 160.46C80.5799 160.596 80.62 160.73 80.6978 160.842C80.7755 160.953 80.8869 161.038 81.0157 161.082C81.1446 161.126 81.2841 161.128 81.4143 161.088C81.5444 161.048 81.6583 160.967 81.7395 160.858C82.1955 160.261 82.8429 159.84 83.5728 159.665C84.3028 159.49 85.0708 159.571 85.7478 159.896C86.2288 160.145 87.0644 159.689 86.6728 159.091C86.2812 158.493 85.7139 158.07 85.2329 157.534C84.6995 156.939 84.7149 156.217 84.8937 155.477C84.9334 155.335 84.9227 155.184 84.8632 155.05C84.8038 154.915 84.6995 154.805 84.568 154.739C84.4366 154.672 84.2862 154.654 84.1425 154.686C83.9989 154.719 83.871 154.8 83.7806 154.916ZM83.7806 157.617C83.9031 157.878 84.0688 158.117 84.2709 158.323C83.3438 158.336 82.4426 158.631 81.687 159.168C81.547 158.528 81.3099 157.914 80.984 157.346C81.8788 157.421 82.7749 157.217 83.5494 156.763C83.5789 157.058 83.6559 157.346 83.7775 157.617H83.7806Z" fill="#FB2E8A"/>
<path d="M93.8008 180.653C92.9128 181.285 92.0309 181.926 91.1491 182.564C91.06 182.631 90.9894 182.72 90.9439 182.821C90.8984 182.923 90.8796 183.035 90.8891 183.146C90.8987 183.257 90.9363 183.364 90.9985 183.456C91.0607 183.548 91.1454 183.624 91.2447 183.674C91.1619 183.823 91.1407 183.997 91.1857 184.161C91.2307 184.325 91.3382 184.465 91.4852 184.55L93.9765 186.011C94.6456 186.403 95.2808 186.986 96.0732 186.656C96.9328 186.24 97.7696 185.779 98.5799 185.274L101.158 183.847C101.602 183.597 101.466 182.974 101.09 182.752C99.468 181.796 97.7569 181 95.9807 180.375C95.0896 180.045 94.5778 180.094 93.8008 180.653ZM96.2674 181.803C97.3823 182.238 98.4688 182.742 99.5203 183.313L96.1718 185.163C96.0385 185.259 95.8947 185.338 95.7433 185.401C95.4873 185.475 95.4349 185.401 95.1852 185.241L94.2602 184.692L92.0988 183.458L93.995 182.089C94.2879 181.877 94.661 181.473 95.0248 181.442C95.3887 181.411 95.8913 181.667 96.2551 181.803H96.2674Z" fill="#FB2E8A"/>
<path d="M72.0514 204.302C72.3597 205.843 72.6958 207.385 73.0534 208.899L71.0431 209.728C70.911 209.78 70.8009 209.876 70.7314 210C70.6619 210.124 70.6372 210.268 70.6614 210.408C70.6857 210.547 70.7575 210.675 70.8647 210.768C70.9718 210.861 71.1078 210.914 71.2497 210.918L73.6084 211.125C74.0093 212.642 74.4625 214.144 75.0052 215.62C75.0492 215.745 75.1319 215.852 75.2412 215.926C75.3505 216 75.4806 216.036 75.6123 216.031C75.7441 216.025 75.8707 215.978 75.9734 215.895C76.0761 215.812 76.1496 215.699 76.183 215.571C76.5399 214.172 77.0027 212.802 77.5675 211.473L80.3425 211.717L81.03 212.272C81.1204 212.34 81.2271 212.384 81.3395 212.398C81.4519 212.412 81.5661 212.397 81.6707 212.353C81.7752 212.31 81.8665 212.239 81.9353 212.149C82.0041 212.059 82.0482 211.953 82.0629 211.84C82.6457 211.717 82.5409 210.693 81.8348 210.632L80.8265 210.542C80.2253 210.052 79.6271 209.559 79.0351 209.056C79.2493 208.802 79.4801 208.562 79.7258 208.338C80.3425 207.767 81.0948 207.354 81.0979 206.404C81.0935 206.311 81.0677 206.219 81.0226 206.137C80.9774 206.054 80.9141 205.983 80.8373 205.929C80.7606 205.875 80.6725 205.839 80.5798 205.824C80.4871 205.809 80.3922 205.816 80.3024 205.843C79.1883 206.32 78.0731 206.794 76.9569 207.265C75.6249 206.093 74.3176 204.893 73.0349 203.663C72.5694 203.21 71.9373 203.75 72.0514 204.302ZM74.5735 209.993C74.5427 209.87 74.5088 209.747 74.4779 209.623L76.7288 208.683L77.3886 209.25C77.1882 209.559 77.0063 209.867 76.8367 210.194L74.5735 209.993ZM75.5417 213.419C75.3135 212.697 75.0998 211.971 74.9004 211.239L76.2879 211.359C76.0042 212.031 75.7606 212.722 75.5417 213.419ZM78.6929 210.354L78.1656 210.311C78.218 210.222 78.2704 210.132 78.3259 210.046C78.4462 210.151 78.5695 210.252 78.6929 210.354ZM78.3537 207.998L78.1841 208.183L78.1163 208.267L77.9837 208.153L78.3537 207.998ZM74.1912 208.433C73.9939 207.588 73.8089 206.744 73.6269 205.896C74.3176 206.537 75.0145 207.17 75.7175 207.795L74.1912 208.433Z" fill="#FB2E8A"/>
<path d="M53.5757 162.8C53.0515 164.277 52.5273 165.757 52.034 167.249L49.8757 166.91C49.7352 166.885 49.5902 166.908 49.4655 166.978C49.3407 167.047 49.2439 167.158 49.1915 167.29C49.1391 167.423 49.1344 167.57 49.1782 167.706C49.222 167.842 49.3116 167.958 49.4317 168.036L51.3402 169.438C50.8932 170.943 50.5016 172.463 50.1963 174.005C50.1698 174.134 50.1851 174.267 50.24 174.387C50.2949 174.506 50.3865 174.605 50.5015 174.669C50.6165 174.732 50.7488 174.758 50.8792 174.741C51.0095 174.724 51.1311 174.666 51.2262 174.575C52.2584 173.567 53.3666 172.639 54.5407 171.8L56.7916 173.456C56.8902 173.734 56.9889 174.011 57.0999 174.285C57.1417 174.391 57.2102 174.483 57.2987 174.553C57.3871 174.624 57.4923 174.67 57.6041 174.688C57.7158 174.705 57.8302 174.693 57.9359 174.653C58.0416 174.613 58.135 174.545 58.2068 174.458C58.768 174.655 59.212 173.724 58.6416 173.305L57.8276 172.707C57.5655 171.976 57.3157 171.239 57.0691 170.505C57.3832 170.397 57.7047 170.311 58.0311 170.249C58.8667 170.092 59.7146 170.12 60.211 169.324C60.2551 169.242 60.2799 169.151 60.2836 169.058C60.2873 168.964 60.2698 168.872 60.2324 168.786C60.1949 168.701 60.1386 168.625 60.0676 168.564C59.9966 168.503 59.9128 168.46 59.8225 168.436L56.2242 167.909C55.698 166.213 55.2057 164.508 54.7473 162.794C54.5747 162.149 53.7637 162.279 53.5757 162.8ZM52.7678 168.967C52.8048 168.843 52.8418 168.72 52.8819 168.6L55.2931 168.967C55.3794 169.241 55.4688 169.519 55.5582 169.793C55.2314 169.95 54.9107 170.126 54.5962 170.311L52.7678 168.967ZM51.8151 172.395C51.9939 171.658 52.1912 170.928 52.4009 170.197L53.5232 171.023C52.9312 171.47 52.3639 171.933 51.8151 172.414V172.395ZM56.0978 171.433L55.6723 171.125L55.9467 170.983C55.9961 171.125 56.0454 171.282 56.0978 171.433ZM57.0228 169.244L56.7823 169.315L56.6806 169.349C56.6621 169.297 56.6436 169.241 56.6282 169.186L57.0228 169.244ZM53.2457 167.447C53.514 166.623 53.7977 165.803 54.0813 164.98C54.3383 165.886 54.6045 166.79 54.8799 167.69L53.2457 167.447Z" fill="#FB2E8A"/>
<path d="M123.284 99.0892C122.121 101.932 123.478 105.626 125.06 108.031C126.826 110.719 129.48 112.702 132.558 113.633C133.705 113.985 134.168 112.471 133.45 111.768C133.446 111.747 133.441 111.726 133.434 111.706C132.127 107.534 130.897 103.326 129.509 99.1817C129.04 97.7819 128.122 96.6688 126.512 96.7305C125.803 96.7678 125.12 97.0107 124.547 97.4296C123.974 97.8484 123.535 98.4251 123.284 99.0892ZM127.045 99.0399C127.483 99.3821 127.616 100.446 127.77 100.936C128.001 101.676 128.236 102.416 128.467 103.156C129.238 105.61 130.007 108.065 130.773 110.519C127.382 108.537 124.65 104.645 125.103 100.742C125.183 100.023 126.028 98.2413 127.033 99.0399H127.045Z" fill="#FB2E8A"/>
<path d="M136.408 102.641C134.832 103.927 134.45 106.505 134.601 108.41C134.778 110.532 135.693 112.524 137.188 114.04C137.743 114.607 138.492 113.877 138.298 113.239V113.198C138.859 110.359 139.479 107.525 139.984 104.673C140.154 103.711 139.984 102.774 139.019 102.299C138.597 102.098 138.126 102.024 137.663 102.085C137.2 102.145 136.764 102.339 136.408 102.641ZM138.609 103.807C138.754 104.143 138.495 104.802 138.43 105.139C138.332 105.641 138.23 106.147 138.122 106.649L137.132 111.66C135.794 109.437 135.43 106.307 136.932 104.18C137.209 103.788 138.27 103.02 138.609 103.807Z" fill="#FB2E8A"/>
<path d="M227.965 115.412C225.119 114.25 221.428 115.607 219.023 117.185C216.336 118.952 214.354 121.605 213.424 124.684C213.07 125.831 214.583 126.296 215.274 125.578H215.339C219.511 124.258 223.716 123.025 227.857 121.638C229.257 121.166 230.37 120.25 230.324 118.637C230.286 117.929 230.043 117.247 229.624 116.674C229.205 116.102 228.629 115.663 227.965 115.412ZM228.014 119.174C227.672 119.612 226.608 119.744 226.118 119.899L223.895 120.595L216.535 122.902C218.515 119.51 222.394 116.778 226.309 117.231C227.028 117.312 228.81 118.156 228.014 119.174Z" fill="#FB2E8A"/>
<path d="M224.411 128.535C223.125 126.956 220.551 126.574 218.645 126.728C216.523 126.904 214.53 127.818 213.012 129.312C212.445 129.867 213.179 130.616 213.814 130.422H213.857C216.697 130.983 219.53 131.6 222.379 132.105C223.341 132.278 224.279 132.105 224.753 131.14C224.954 130.719 225.028 130.249 224.968 129.787C224.907 129.325 224.714 128.89 224.411 128.535ZM223.249 130.733C222.91 130.878 222.25 130.619 221.917 130.554L220.403 130.246L215.395 129.253C217.619 127.915 220.748 127.554 222.873 129.053C223.264 129.343 224.032 130.397 223.249 130.733Z" fill="#FB2E8A"/>
<path d="M209.927 229.514C211.089 226.671 209.733 222.977 208.151 220.572C206.385 217.885 203.731 215.903 200.652 214.973C199.505 214.618 199.043 216.132 199.761 216.838C199.76 216.859 199.76 216.879 199.761 216.9C201.069 221.072 202.299 225.277 203.686 229.425C204.155 230.824 205.074 231.937 206.683 231.891C207.397 231.855 208.085 231.611 208.661 231.188C209.238 230.766 209.678 230.184 209.927 229.514ZM206.165 229.563C205.728 229.221 205.595 228.157 205.441 227.667C205.21 226.927 204.975 226.187 204.744 225.444C203.975 222.994 203.206 220.54 202.438 218.084C205.829 220.067 208.561 223.942 208.108 227.861C208.025 228.58 207.198 230.359 206.165 229.563Z" fill="#FB2E8A"/>
<path d="M196.806 225.959C198.382 224.673 198.764 222.099 198.613 220.193C198.436 218.072 197.521 216.079 196.026 214.563C195.471 213.993 194.722 214.727 194.916 215.362V215.405C194.355 218.245 193.738 221.078 193.23 223.927C193.06 224.892 193.23 225.83 194.195 226.304C194.617 226.505 195.088 226.579 195.552 226.518C196.015 226.457 196.451 226.263 196.806 225.959ZM194.605 224.797C194.46 224.461 194.719 223.798 194.784 223.465C194.885 222.962 194.984 222.456 195.092 221.954C195.421 220.283 195.752 218.613 196.085 216.943C197.423 219.167 197.784 222.296 196.282 224.424C195.999 224.812 194.944 225.583 194.605 224.797Z" fill="#FB2E8A"/>
<path d="M106.223 207.888C109.069 209.05 112.763 207.693 115.165 206.115C117.852 204.348 119.835 201.694 120.767 198.616C121.119 197.469 119.605 197.004 118.902 197.722H118.84C114.669 199.029 110.46 200.26 106.316 201.65C104.916 202.119 103.8 203.035 103.849 204.647C103.886 205.36 104.13 206.046 104.552 206.622C104.974 207.198 105.555 207.638 106.223 207.888ZM106.177 204.126C106.519 203.688 107.583 203.556 108.073 203.401L110.293 202.705L117.653 200.398C115.674 203.79 111.795 206.522 107.879 206.072C107.161 205.988 105.379 205.144 106.177 204.117V204.126Z" fill="#FB2E8A"/>
<path d="M109.766 194.765C111.051 196.343 113.629 196.726 115.534 196.572C117.659 196.397 119.655 195.483 121.174 193.988C121.741 193.433 121.01 192.684 120.372 192.878H120.332C117.492 192.317 114.656 191.7 111.807 191.194C110.845 191.022 109.907 191.194 109.433 192.159C109.231 192.58 109.156 193.049 109.215 193.511C109.274 193.973 109.465 194.409 109.766 194.765ZM110.931 192.563C111.267 192.418 111.927 192.677 112.26 192.745L113.774 193.054L118.784 194.043C116.561 195.381 113.432 195.742 111.304 194.244C110.925 193.957 110.157 192.902 110.943 192.563H110.931Z" fill="#FB2E8A"/>
<path d="M201.242 105.758C202.331 103.659 203.4 101.562 204.489 99.4622C205.035 98.4015 204.353 98.2658 203.604 98.7808C203.666 98.2998 203.357 98.0593 202.63 98.5372L197.468 101.929C196.084 102.854 194.628 103.545 193.5 105.243C192.267 107.093 191.246 109.027 190.154 110.867L186.723 116.652C186.128 117.654 186.763 117.885 187.543 117.379C190.913 115.169 194.326 112.687 197.743 109.942C199.451 108.573 200.283 107.608 201.242 105.758ZM196.34 109.329C194.169 111.025 192.011 112.607 189.865 114.077L194.326 106.557C194.5 106.226 194.69 105.904 194.897 105.592C195.285 105.068 195.408 105.055 195.948 104.704L197.884 103.427L202.312 100.517L199.99 105.018C199.63 105.715 199.253 106.702 198.668 107.393C198.082 108.083 197.024 108.789 196.34 109.329Z" fill="#FB2E8A"/>
<path d="M254.22 40.3855L213.359 86.5276L253.054 39.3804L254.22 40.3855Z" fill="#FB2E8A"/>
<path d="M217.775 197.83C219.875 198.921 221.972 199.988 224.072 201.076C225.132 201.622 225.268 200.944 224.756 200.195C225.234 200.253 225.474 199.948 224.997 199.22C223.864 197.496 222.733 195.774 221.605 194.056C220.68 192.671 219.989 191.216 218.29 190.09C216.44 188.857 214.507 187.833 212.666 186.742L206.891 183.31C205.892 182.718 205.658 183.35 206.167 184.13C208.374 187.504 210.853 190.903 213.604 194.33C214.96 196.041 215.928 196.874 217.775 197.83ZM214.205 192.93C212.509 190.76 210.926 188.601 209.457 186.455L216.98 190.917C217.273 191.093 217.652 191.274 217.942 191.49C218.469 191.876 218.478 192.002 218.833 192.539C219.256 193.186 219.681 193.832 220.106 194.475L223.023 198.912L218.522 196.59C217.825 196.232 216.841 195.856 216.147 195.267C215.454 194.678 214.744 193.633 214.205 192.93Z" fill="#FB2E8A"/>
<path d="M283.15 250.811L237.008 209.947L284.158 249.642L283.15 250.811Z" fill="#FB2E8A"/>
<path d="M138.529 217.535C137.443 219.638 136.362 221.743 135.285 223.85C134.736 224.911 135.418 225.043 136.167 224.532C136.108 225.013 136.414 225.253 137.141 224.772L142.306 221.38C143.687 220.455 145.143 219.762 146.271 218.066C147.504 216.216 148.525 214.283 149.616 212.439L153.048 206.657C153.643 205.655 153.008 205.424 152.228 205.93C148.858 208.141 145.445 210.62 142.028 213.367C140.32 214.72 139.488 215.692 138.529 217.535ZM143.431 213.983C145.602 212.288 147.76 210.705 149.906 209.235L145.445 216.755C145.272 217.048 145.087 217.428 144.874 217.72C144.486 218.245 144.362 218.254 143.823 218.608C143.177 219.034 142.532 219.458 141.887 219.882L137.45 222.802L139.771 218.3C140.132 217.6 140.508 216.617 141.094 215.926C141.68 215.235 142.741 214.505 143.431 213.983Z" fill="#FB2E8A"/>
<path d="M85.5508 282.908L126.414 236.769L86.7163 283.916L85.5508 282.908Z" fill="#FB2E8A"/>
<path d="M118.866 130.774C116.763 129.682 114.667 128.615 112.567 127.527C111.506 126.978 111.371 127.659 111.885 128.409C111.404 128.35 111.164 128.655 111.645 129.383L115.037 134.548C115.962 135.932 116.655 137.387 118.351 138.513C120.201 139.746 122.134 140.767 123.975 141.861L129.76 145.29C130.762 145.885 130.993 145.253 130.487 144.473C128.278 141.1 125.799 137.699 123.05 134.27C121.678 132.562 120.71 131.729 118.866 130.774ZM122.434 135.667C124.129 137.837 125.712 139.996 127.182 142.142L119.662 137.677C119.33 137.504 119.008 137.313 118.697 137.107C118.172 136.718 118.163 136.595 117.809 136.055C117.381 135.424 116.962 134.781 116.551 134.125L113.631 129.691L118.132 132.01C118.829 132.371 119.816 132.747 120.506 133.333C121.197 133.919 121.897 134.982 122.434 135.667Z" fill="#FB2E8A"/>
<path d="M53.4895 77.7925L99.6316 118.656L52.4844 78.9611L53.4895 77.7925Z" fill="#FB2E8A"/>
<path d="M199.185 45.0413C196.138 42.7412 195.315 38.5972 196.9 35.2055C196.99 35.0405 197.045 34.8584 197.061 34.671C197.077 34.4835 197.053 34.2948 196.992 34.1171C196.93 33.9393 196.832 33.7764 196.704 33.6389C196.575 33.5014 196.419 33.3922 196.246 33.3185C195.772 32.4798 194.668 31.9988 193.764 32.8437C191.297 35.2069 188.035 36.5619 184.619 36.6423C182.991 36.6762 182.208 38.665 183.58 39.6825C186.744 42.0289 187.946 46.6909 186.105 50.2337C185.449 51.4947 186.645 53.6962 188.217 52.6664C189.79 51.6366 190.897 50.1504 192.309 48.8801C193.866 47.4802 195.765 47.5172 197.708 47.9921C199.493 48.433 200.726 46.2161 199.185 45.0413ZM192.093 45.0413C191.41 45.3651 190.785 45.7995 190.243 46.3271C190.213 43.8933 189.441 41.5268 188.029 39.5437C189.708 39.1715 191.32 38.5478 192.812 37.6937C192.62 40.0436 193.158 42.3954 194.353 44.4277C193.566 44.5085 192.797 44.7146 192.075 45.0382L192.093 45.0413Z" fill="#FB2E8A"/>
<path d="M289.766 200.583C293.306 199.159 297.28 200.583 299.374 203.694C299.469 203.856 299.597 203.997 299.749 204.106C299.902 204.216 300.076 204.292 300.26 204.331C300.443 204.369 300.633 204.368 300.817 204.329C301.001 204.289 301.174 204.212 301.326 204.101C302.291 204.129 303.271 203.429 303.012 202.217C302.258 198.886 302.777 195.393 304.468 192.425C305.279 191.012 303.977 189.317 302.396 189.958C298.754 191.463 294.139 190.094 292.051 186.69C291.308 185.478 288.804 185.367 288.878 187.248C288.952 189.128 289.655 190.858 290.016 192.708C290.414 194.765 289.399 196.371 287.997 197.793C286.692 199.112 287.96 201.314 289.766 200.583ZM293.426 194.5C293.5 193.745 293.45 192.984 293.278 192.246C295.38 193.475 297.807 194.034 300.234 193.846C299.689 195.476 299.393 197.178 299.356 198.896C297.443 197.518 295.151 196.764 292.794 196.738C293.123 196.03 293.336 195.275 293.426 194.5Z" fill="#FB2E8A"/>
<path d="M301.594 138.682C300.934 135.519 300.271 132.355 299.531 129.207L303.675 127.499C305.041 126.941 304.656 125.168 303.25 125.032L298.391 124.607C297.561 121.483 296.618 118.4 295.511 115.354C295.42 115.097 295.25 114.877 295.025 114.725C294.799 114.573 294.531 114.497 294.26 114.508C293.988 114.519 293.728 114.618 293.516 114.788C293.304 114.959 293.153 115.193 293.084 115.455C292.285 118.314 291.456 121.197 290.229 123.904L284.494 123.401L283.076 122.26C282.175 121.542 281.047 122.291 280.948 123.145C279.742 123.398 279.961 125.51 281.417 125.637L283.492 125.819C284.725 126.83 285.958 127.851 287.192 128.883C286.751 129.409 286.275 129.903 285.767 130.363C284.469 131.538 282.943 132.395 282.94 134.353C282.94 135.112 283.831 135.821 284.574 135.503C286.872 134.519 289.172 133.543 291.475 132.577C294.219 134.995 296.913 137.467 299.556 139.996C300.527 140.93 301.832 139.817 301.594 138.682ZM296.402 126.966C296.466 127.221 296.531 127.477 296.593 127.73L291.968 129.67C291.518 129.279 291.066 128.89 290.611 128.501C291.021 127.884 291.401 127.218 291.749 126.559L296.402 126.966ZM294.401 119.908C294.876 121.398 295.317 122.896 295.726 124.4L292.865 124.15C293.448 122.751 293.951 121.329 294.401 119.892V119.908ZM287.926 126.222L289.008 126.318L288.681 126.861C288.416 126.633 288.166 126.417 287.913 126.207L287.926 126.222ZM288.601 131.063C288.718 130.937 288.835 130.81 288.946 130.681C288.996 130.625 289.042 130.567 289.088 130.511L289.359 130.746L288.601 131.063ZM297.176 130.181C297.583 131.92 297.965 133.663 298.338 135.423C296.916 134.103 295.477 132.798 294.021 131.507L297.176 130.181Z" fill="#FB2E8A"/>
<path d="M223.141 311.13C222.481 307.967 221.815 304.803 221.078 301.655L225.222 299.947C226.588 299.389 226.203 297.616 224.797 297.48L219.937 297.055C219.108 293.928 218.174 290.832 217.054 287.789C216.965 287.532 216.795 287.311 216.57 287.159C216.345 287.006 216.077 286.93 215.805 286.941C215.533 286.952 215.272 287.051 215.061 287.222C214.85 287.393 214.699 287.628 214.631 287.891C213.832 290.749 213.003 293.632 211.776 296.339L206.041 295.837L204.622 294.696C203.719 293.977 202.594 294.727 202.495 295.581C201.289 295.834 201.508 297.946 202.964 298.072L205.039 298.254C206.272 299.265 207.505 300.287 208.739 301.319C208.299 301.844 207.824 302.339 207.317 302.799C206.016 303.974 204.49 304.831 204.487 306.789C204.487 307.547 205.381 308.256 206.124 307.939C208.422 306.956 210.722 305.981 213.025 305.013C215.765 307.43 218.457 309.903 221.103 312.431C222.074 313.378 223.375 312.265 223.141 311.13ZM217.946 299.392C218.01 299.648 218.078 299.904 218.14 300.156L213.515 302.096L212.133 300.933C212.544 300.317 212.92 299.651 213.271 298.991L217.946 299.392ZM215.948 292.334C216.422 293.823 216.873 295.322 217.273 296.826L214.412 296.577C214.995 295.198 215.497 293.777 215.948 292.34V292.334ZM209.473 298.649L210.555 298.744C210.447 298.926 210.339 299.105 210.225 299.287L209.473 298.649ZM210.169 303.505C210.287 303.379 210.404 303.252 210.515 303.123C210.564 303.067 210.61 303.009 210.657 302.953L210.928 303.187L210.169 303.505ZM218.744 302.623C219.151 304.362 219.533 306.104 219.907 307.865C218.484 306.545 217.045 305.24 215.59 303.949L218.744 302.623Z" fill="#FB2E8A"/>
<path d="M140.469 290.666C141.897 294.209 140.469 298.18 137.361 300.274C137.199 300.369 137.059 300.497 136.949 300.65C136.839 300.802 136.763 300.976 136.724 301.16C136.685 301.344 136.686 301.534 136.725 301.718C136.764 301.902 136.841 302.076 136.951 302.228C136.926 303.19 137.626 304.174 138.835 303.912C142.167 303.159 145.661 303.678 148.631 305.367C150.043 306.178 151.739 304.877 151.097 303.295C149.596 299.654 150.965 295.038 154.366 292.954C155.581 292.208 155.692 289.707 153.811 289.781C151.93 289.855 150.219 290.555 148.353 290.916C146.297 291.313 144.69 290.299 143.269 288.896C141.943 287.595 139.741 288.859 140.469 290.666ZM146.553 294.326C147.307 294.4 148.068 294.35 148.806 294.178C147.578 296.281 147.02 298.708 147.206 301.137C145.578 300.589 143.876 300.292 142.159 300.255C143.536 298.342 144.289 296.051 144.317 293.694C145.024 294.022 145.779 294.235 146.553 294.326Z" fill="#FB2E8A"/>
<path d="M40.972 132.204C38.6379 135.223 34.497 135.997 31.1053 134.363C30.9417 134.27 30.7606 134.213 30.5735 134.195C30.3865 134.177 30.1978 134.198 30.0196 134.258C29.8414 134.318 29.6777 134.414 29.5391 134.541C29.4006 134.668 29.2902 134.822 29.2152 134.995C28.3704 135.46 27.877 136.558 28.7126 137.461C31.0481 139.955 32.3677 143.231 32.4126 146.647C32.4126 148.275 34.4045 149.082 35.4405 147.72C37.8208 144.584 42.4982 143.434 46.0163 145.315C47.2712 145.987 49.4881 144.818 48.483 143.233C47.4778 141.649 45.9978 140.526 44.746 139.096C43.3615 137.523 43.4232 135.627 43.9196 133.687C44.3667 131.921 42.1652 130.66 40.972 132.204ZM40.8856 139.296C41.2035 139.984 41.6316 140.615 42.1529 141.164C39.718 141.167 37.3419 141.913 35.3418 143.301C34.9895 141.619 34.3855 140 33.5504 138.497C35.8964 138.72 38.2539 138.212 40.2998 137.042C40.3762 137.821 40.5738 138.584 40.8856 139.302V139.296Z" fill="#FB2E8A"/>
<path d="M30.4016 222.54C33.3986 221.331 36.3956 220.116 39.3618 218.84C40.1696 220.098 40.9744 221.357 41.776 222.617C42.5685 223.85 44.2427 223.169 44.1194 221.763L43.6785 216.903C46.6076 215.537 49.4875 214.067 52.2871 212.429C52.5243 212.296 52.7122 212.089 52.8229 211.841C52.9336 211.592 52.9612 211.314 52.9017 211.048C52.8422 210.783 52.6987 210.543 52.4925 210.366C52.2863 210.188 52.0283 210.081 51.7568 210.061C48.803 209.781 45.8183 209.476 42.9354 208.745L42.4174 203.013L43.29 201.416C43.8357 200.398 42.9015 199.424 42.0412 199.476C41.5787 198.336 39.5406 198.924 39.6701 200.38L39.8582 202.455C39.0833 203.855 38.297 205.247 37.4995 206.633C36.9036 206.292 36.3319 205.911 35.7882 205.492C34.4038 204.422 33.2907 203.072 31.3636 203.417C30.6175 203.549 30.0748 204.555 30.5188 205.23C31.894 207.316 33.2619 209.407 34.6227 211.501C32.7275 214.628 30.7696 217.716 28.749 220.767C28.0028 221.889 29.3286 222.974 30.4016 222.54ZM41.0299 215.352L40.3115 215.679C39.405 214.269 38.4954 212.861 37.5827 211.455C37.891 210.943 38.1994 210.428 38.5077 209.913C39.1984 210.222 39.9075 210.462 40.6198 210.69C40.7534 212.244 40.8901 213.798 41.0299 215.352ZM47.622 212.133C46.2407 212.865 44.845 213.565 43.4349 214.233L43.1759 211.372C44.6435 211.705 46.1297 211.945 47.622 212.133ZM40.2621 206.864C40.293 207.225 40.3269 207.586 40.3577 207.946C40.1604 207.872 39.963 207.798 39.7688 207.718C39.9322 207.438 40.0987 207.154 40.2621 206.867V206.864ZM35.6032 208.406L36.041 208.677L36.2353 208.785L36.0534 209.093L35.6032 208.406ZM37.9897 216.688C36.3453 217.395 34.7008 218.084 33.0564 218.756C34.1047 217.126 35.1325 215.482 36.1397 213.823L37.9897 216.688Z" fill="#FB2E8A"/>
<path d="M110.073 43.8758C113.07 42.6702 116.067 41.4554 119.034 40.1758C119.841 41.4338 120.646 42.6918 121.448 43.9498C122.24 45.1832 123.914 44.5018 123.788 43.0958L123.332 38.2333C126.261 36.8643 129.144 35.3967 131.94 33.7594C132.177 33.6252 132.364 33.4186 132.474 33.1702C132.585 32.9217 132.612 32.6444 132.553 32.379C132.494 32.1136 132.352 31.8741 132.146 31.6958C131.941 31.5175 131.684 31.4097 131.413 31.3883C128.456 31.1078 125.475 30.8025 122.592 30.0717C122.419 28.1621 122.245 26.2515 122.071 24.3398C122.364 23.8095 122.656 23.2761 122.943 22.7427C123.492 21.7283 122.555 20.7508 121.71 20.8033C121.247 19.6624 119.206 20.2513 119.339 21.7067L119.527 23.7817C118.752 25.1939 117.965 26.5886 117.165 27.9658C116.571 27.624 116 27.2429 115.457 26.825C114.072 25.7551 112.959 24.4046 111.032 24.7468C110.283 24.8794 109.743 25.8877 110.187 26.5598C111.559 28.6462 112.925 30.7377 114.288 32.8344C112.395 35.9609 110.442 39.0494 108.43 42.0998C107.665 43.2252 108.991 44.3106 110.073 43.8758ZM120.695 36.6917L119.977 37.0185C119.068 35.6104 118.158 34.2034 117.245 32.7974C117.554 32.2825 117.862 31.7707 118.17 31.2558C118.865 31.5456 119.57 31.8036 120.285 32.0297C120.419 33.5816 120.556 35.1356 120.695 36.6917ZM127.288 33.4757C125.906 34.2075 124.511 34.9074 123.1 35.5755L122.841 32.7142C124.306 33.041 125.798 33.3 127.288 33.4727V33.4757ZM119.94 28.2033C119.974 28.564 120.005 28.9248 120.039 29.2855C119.841 29.2146 119.644 29.1375 119.447 29.0604L119.94 28.2033ZM115.284 29.7449C115.429 29.8374 115.574 29.9299 115.722 30.0162L115.913 30.1272L115.731 30.4356L115.284 29.7449ZM117.668 38.0298C116.03 38.7359 114.384 39.4204 112.734 40.0957C113.783 38.4636 114.81 36.8191 115.818 35.1623C116.428 36.1223 117.04 37.0802 117.652 38.036L117.668 38.0298Z" fill="#FB2E8A"/>
</g>
</svg>
