<svg width="30" height="30" viewBox="0 0 30 30" fill="none" xmlns="http://www.w3.org/2000/svg">
<path fill-rule="evenodd" clip-rule="evenodd" d="M14.9607 16.6667H15.0274C19.6299 16.6667 23.3607 12.9358 23.3607 8.33333C23.3607 3.73083 19.6299 0 15.0274 0H14.9607C10.389 0.0358333 6.69402 3.75333 6.69402 8.33333C6.69402 12.9133 10.389 16.6308 14.9607 16.6667ZM21.6424 9.16667H19.9757C19.9307 9.9275 19.824 10.6583 19.664 11.3458H20.9757C21.3222 10.6634 21.5477 9.92612 21.6424 9.16667ZM19.7757 13.0125H19.1382C19.0157 13.315 18.8799 13.6025 18.7349 13.875C19.1103 13.6234 19.4593 13.3344 19.7765 13.0125H19.7757ZM17.9449 11.3458C18.1265 10.6817 18.2532 9.94917 18.3057 9.16667H15.8607V11.3458H17.9449ZM15.8607 13.0125H17.3057C17.2415 13.1358 17.1757 13.2542 17.1074 13.3683C16.6907 14.0608 16.2599 14.4892 15.8607 14.7317V13.0125ZM14.194 11.3458V9.16667H11.6957C11.7482 9.94917 11.8749 10.6817 12.0565 11.3458H14.194ZM12.6957 13.0125H14.194V14.7625C13.7807 14.5267 13.329 14.0925 12.894 13.3683C12.8243 13.2518 12.7581 13.1331 12.6957 13.0125ZM10.3374 11.3458C10.1724 10.6295 10.0681 9.90053 10.0257 9.16667H8.41236C8.50902 9.94167 8.73902 10.6767 9.07902 11.3458H10.3374ZM10.279 13.0125H10.8624C10.9774 13.2942 11.1024 13.5625 11.2365 13.8175C10.8927 13.5796 10.5727 13.3101 10.279 13.0125ZM19.9757 7.5C19.9333 6.76613 19.8291 6.03715 19.664 5.32083H20.9757C21.3224 6.00314 21.548 6.74049 21.6424 7.5H19.9757ZM19.7757 3.65417H19.1382C19.0157 3.35167 18.8799 3.06417 18.7349 2.79167C19.1107 3.04417 19.4599 3.33333 19.7765 3.65417H19.7757ZM15.8607 3.65417H17.3057C17.2433 3.53354 17.1771 3.41487 17.1074 3.29833C16.6907 2.605 16.2599 2.1775 15.8607 1.935V3.65417ZM17.9449 5.32083H15.8607V7.5H18.3057C18.2579 6.76345 18.1371 6.03347 17.9449 5.32083ZM14.194 1.90417V3.65417H12.6957C12.7599 3.53083 12.8265 3.4125 12.894 3.29833C13.3282 2.57417 13.7807 2.14083 14.194 1.90417ZM14.194 5.32083H12.0565C11.8749 5.985 11.7482 6.7175 11.6957 7.5H14.194V5.32083ZM11.2357 2.84917C11.1024 3.10417 10.9774 3.3725 10.8632 3.65417H10.279C10.5715 3.35667 10.8915 3.0875 11.2357 2.84917ZM10.3374 5.32083H9.07902C8.73254 6.00324 8.50697 6.74054 8.41236 7.5H10.0257C10.0707 6.73833 10.1774 6.00833 10.3374 5.32083ZM2.27569 9.16667C1.41069 9.14667 0.542355 9.6775 0.261521 10.5042C0.191521 10.7108 0.153188 10.9808 0.125688 11.2267C0.0965213 11.495 0.0740212 11.8175 0.0565212 12.1683C0.0204002 12.9717 0.00178473 13.7758 0.000687892 14.58C-0.00597877 16.2617 0.0365214 18.0117 0.0973547 18.5542C0.204021 19.5042 0.750688 20.3892 1.22569 21.1592L1.27902 21.245C1.42319 21.4783 1.56569 21.7108 1.70569 21.95C2.33402 23.0258 3.01735 23.7508 3.63652 24.4083L3.65069 24.4225C3.99902 24.7917 4.32152 25.135 4.62569 25.5175C4.33061 25.8272 4.16643 26.2389 4.16735 26.6667V28.3333C4.16735 28.7754 4.34295 29.1993 4.65551 29.5118C4.96807 29.8244 5.39199 30 5.83402 30H12.5007C12.9427 30 13.3666 29.8244 13.6792 29.5118C13.9918 29.1993 14.1674 28.7754 14.1674 28.3333V26.6667C14.1673 26.2448 14.0074 25.8387 13.7197 25.5302C13.4321 25.2217 13.0381 25.0337 12.6174 25.0042C12.5049 24.0575 12.359 22.7792 12.3457 22.415C12.334 22.1017 12.229 21.7958 12.1307 21.5633C12.0275 21.3237 11.9089 21.091 11.7757 20.8667C11.6387 20.6336 11.4919 20.4065 11.3357 20.1858L11.3032 20.1408L11.2949 20.1283L11.2915 20.1242L11.2899 20.1217L11.2815 20.11L8.57819 16.7017L8.55319 16.6767V16.675L8.54986 16.6717L8.52986 16.65C8.40557 16.5125 8.28606 16.3707 8.17152 16.225C7.91652 15.9065 7.69428 15.5631 7.50819 15.2C7.31819 14.81 6.95819 14.4358 6.40569 14.4083C5.93485 14.3833 5.56569 14.6333 5.35069 14.8258C5.23228 14.9326 5.12429 15.0503 5.02819 15.1775L4.99069 14.6758L4.98652 14.6208C4.90485 13.5225 4.80569 12.1933 4.48319 11.1292C4.10485 9.88417 3.26402 9.19083 2.27485 9.1675L2.27569 9.16667ZM10.9382 25C10.8299 24.0833 10.6949 22.8858 10.6799 22.4758C10.6768 22.4512 10.6715 22.427 10.664 22.4033C10.645 22.3372 10.6219 22.2724 10.5949 22.2092C10.5197 22.0372 10.4337 21.8702 10.3374 21.7092C10.225 21.518 10.1046 21.3318 9.97652 21.1508L9.95485 21.12L7.31486 17.7917L7.29986 17.775C7.14746 17.6063 7.00098 17.4323 6.86069 17.2533C6.63612 16.9687 6.42987 16.67 6.24319 16.3592L6.23735 16.3683C6.16235 16.5075 6.12069 16.635 6.10819 16.7183C6.06236 17.0133 6.08569 17.2167 6.10902 17.3267C6.11605 17.3618 6.1258 17.3964 6.13819 17.43V17.4325L7.66486 20.4642L6.24735 21.33L6.22652 21.3017L6.16902 21.2225C5.87153 20.8122 5.57707 20.3997 5.28569 19.985C4.77985 19.265 4.17485 18.3817 3.87652 17.8517C3.65319 17.4558 3.54985 16.9317 3.48402 16.4575C3.41611 15.9125 3.3647 15.3656 3.32985 14.8175L3.32819 14.7992C3.24152 13.6342 3.15152 12.4825 2.88819 11.6133C2.77319 11.2342 2.62485 11.0433 2.51819 10.9508C2.44153 10.8791 2.34144 10.8377 2.23652 10.8342C2.00902 10.8283 1.85819 10.9858 1.83902 11.0425C1.83735 11.0475 1.82985 11.0758 1.81902 11.1375C1.80398 11.2268 1.79175 11.3166 1.78235 11.4067C1.75819 11.63 1.73735 11.9167 1.72069 12.2517C1.68628 13.0295 1.66878 13.808 1.66819 14.5867C1.66069 16.2858 1.70652 17.9383 1.75485 18.3683C1.81485 18.9058 2.14985 19.48 2.69819 20.37L2.70069 20.3742C2.84235 20.6042 2.99485 20.8517 3.14569 21.11C3.67319 22.0133 4.24152 22.6192 4.86402 23.2792L4.87819 23.2942C5.34152 23.7858 5.84485 24.3192 6.31985 25H10.9382ZM6.50069 16.0383C6.50069 16.0383 6.49735 16.0392 6.49152 16.0442C6.49481 16.0426 6.49788 16.0406 6.50069 16.0383ZM12.5007 28.3333V26.6667H5.83402V28.3333H12.5007ZM29.7399 10.5042C29.4582 9.6775 28.5907 9.14667 27.7257 9.1675C26.7374 9.19083 25.8965 9.88417 25.5182 11.1292C25.1957 12.1933 25.0965 13.5225 25.0149 14.6208L25.0107 14.6758L24.9732 15.1775C24.8732 15.0467 24.7649 14.9275 24.6507 14.8258C24.4357 14.6342 24.0674 14.3842 23.5957 14.4075C23.0432 14.4358 22.6832 14.81 22.4932 15.1992C22.3068 15.5623 22.0843 15.9057 21.829 16.2242C21.7145 16.3702 21.595 16.5122 21.4707 16.65L21.4515 16.6717L21.4482 16.6758L21.4232 16.7017L18.7207 20.11L18.7115 20.1217L18.7099 20.1242L18.7074 20.1283L18.6982 20.1408C18.5297 20.3752 18.372 20.6171 18.2257 20.8658C18.0922 21.0904 17.9733 21.3234 17.8699 21.5633C17.7724 21.7958 17.6674 22.1017 17.6557 22.415C17.6424 22.7792 17.4974 24.0575 17.384 25.0042C16.9632 25.0337 16.5693 25.2217 16.2817 25.5302C15.994 25.8387 15.834 26.2448 15.834 26.6667V28.3333C15.834 28.7754 16.0096 29.1993 16.3222 29.5118C16.6347 29.8244 17.0587 30 17.5007 30H24.1674C24.6094 30 25.0333 29.8244 25.3459 29.5118C25.6584 29.1993 25.834 28.7754 25.834 28.3333V26.6667C25.8343 26.2386 25.6699 25.8268 25.3749 25.5167C25.6799 25.135 26.0015 24.7917 26.3499 24.4225L26.364 24.4075C26.9832 23.7508 27.6665 23.0258 28.2949 21.95C28.4349 21.7108 28.5782 21.4792 28.7215 21.245L28.7749 21.1592C29.2499 20.3892 29.7965 19.5042 29.9032 18.5542C29.964 18.0117 30.0065 16.2617 29.9999 14.58C29.999 13.7758 29.9807 12.9717 29.9449 12.1683C29.9307 11.8539 29.9076 11.5398 29.8757 11.2267C29.849 10.9808 29.8107 10.71 29.7399 10.5042ZM23.6824 25C24.1574 24.3192 24.6599 23.7858 25.124 23.2942L25.1374 23.2792C25.7599 22.6192 26.329 22.0125 26.8557 21.11C27.0057 20.8517 27.1582 20.605 27.3007 20.3742L27.3032 20.37C27.8524 19.48 28.1865 18.9058 28.2465 18.3683C28.2949 17.9383 28.3399 16.2858 28.3332 14.5867C28.3299 13.7483 28.314 12.92 28.2807 12.2517C28.264 11.9167 28.2432 11.63 28.219 11.4067C28.2096 11.3166 28.1974 11.2268 28.1824 11.1375C28.1772 11.1055 28.1705 11.0738 28.1624 11.0425C28.1432 10.9858 27.9924 10.8283 27.7657 10.8342C27.6605 10.8375 27.5601 10.8789 27.4832 10.9508C27.3765 11.0425 27.2282 11.2342 27.1132 11.6133C26.8499 12.4817 26.7599 13.6342 26.6732 14.7992L26.6715 14.8175C26.6299 15.3875 26.5865 15.9625 26.5174 16.4575C26.4524 16.9317 26.3482 17.4558 26.1257 17.8525C25.8265 18.3817 25.2215 19.265 24.7157 19.9858C24.4243 20.4002 24.1298 20.8124 23.8324 21.2225L23.774 21.3017L23.754 21.33L22.3365 20.4633L23.8624 17.4325L23.8632 17.43C23.8756 17.3964 23.8853 17.3618 23.8924 17.3267C23.9157 17.2167 23.939 17.0133 23.8932 16.7183C23.8694 16.5954 23.8258 16.4772 23.764 16.3683L23.7582 16.3592C23.5532 16.705 23.3274 17.015 23.1415 17.2525C23.001 17.4318 22.8543 17.606 22.7015 17.775L22.6857 17.7917L20.0465 21.12L20.0249 21.1508C19.8968 21.3318 19.7764 21.5181 19.664 21.7092C19.564 21.8792 19.4724 22.0533 19.4065 22.2092C19.374 22.2867 19.3515 22.3508 19.3374 22.4025C19.3299 22.4264 19.3246 22.451 19.3215 22.4758C19.3065 22.8858 19.1715 24.0842 19.0632 25H23.6824ZM23.5007 16.0383C23.5007 16.0383 23.504 16.0392 23.5099 16.0442C23.5066 16.0426 23.5035 16.0406 23.5007 16.0383ZM17.5007 28.3333V26.6667H24.1674V28.3333H17.5007Z" fill="#67A24F"/>
</svg>
