<svg width="34" height="32" viewBox="0 0 34 32" fill="none" xmlns="http://www.w3.org/2000/svg">
<path d="M16.9993 0C14.8827 0 12.9993 1.33333 12.2993 3.33333H1.99932V6.66667H5.24932L0.33265 18.3333C-0.450683 21.6667 1.99932 23.3333 6.16598 23.3333C10.3327 23.3333 12.9326 21.6667 11.9993 18.3333L7.08265 6.66667H12.2826C12.8327 8.08333 13.916 9.16667 15.3327 9.71667V28.3333H0.33265V31.6667H33.666V28.3333H18.666V9.7C20.0827 9.16667 21.166 8.08333 21.6993 6.66667H26.916L21.9993 18.3333C21.216 21.6667 23.666 23.3333 27.8326 23.3333C31.9993 23.3333 34.5993 21.6667 33.666 18.3333L28.7493 6.66667H31.9993V3.33333H21.716C20.9993 1.33333 19.116 0 16.9993 0ZM16.9993 3.33333C17.4413 3.33333 17.8653 3.50893 18.1778 3.82149C18.4904 4.13405 18.666 4.55797 18.666 5C18.666 5.44203 18.4904 5.86595 18.1778 6.17851C17.8653 6.49107 17.4413 6.66667 16.9993 6.66667C16.5573 6.66667 16.1334 6.49107 15.8208 6.17851C15.5082 5.86595 15.3327 5.44203 15.3327 5C15.3327 4.55797 15.5082 4.13405 15.8208 3.82149C16.1334 3.50893 16.5573 3.33333 16.9993 3.33333ZM6.16598 12.0833L8.66598 18.3333H3.66598L6.16598 12.0833ZM27.8326 12.0833L30.3326 18.3333H25.3327L27.8326 12.0833Z" fill="#9747FF"/>
</svg>
