<svg width="40" height="28" viewBox="0 0 40 28" fill="none" xmlns="http://www.w3.org/2000/svg">
<path d="M18.4101 26.9765C18.3595 27.1795 18.2426 27.3597 18.0778 27.4885C17.913 27.6174 17.7099 27.6874 17.5007 27.6875C17.4238 27.6873 17.3472 27.6778 17.2726 27.6593L12.2726 26.4093C12.1686 26.3827 12.0699 26.3389 11.9804 26.2797L8.2304 23.7797C8.1278 23.7113 8.03967 23.6235 7.97103 23.5211C7.90239 23.4187 7.8546 23.3038 7.83037 23.1829C7.78143 22.9388 7.83146 22.6853 7.96946 22.4781C8.10745 22.2709 8.32211 22.127 8.5662 22.0781C8.68706 22.0538 8.81151 22.0536 8.93244 22.0775C9.05338 22.1014 9.16843 22.1488 9.27102 22.2172L12.8851 24.6265L17.7288 25.8375C17.8484 25.8674 17.9609 25.9206 18.0599 25.9941C18.1589 26.0676 18.2424 26.1599 18.3057 26.2657C18.369 26.3715 18.4108 26.4887 18.4287 26.6107C18.4466 26.7327 18.4403 26.857 18.4101 26.9765ZM39.1491 11.8828C39.0594 12.1553 38.9166 12.4074 38.7288 12.6243C38.5411 12.8413 38.3122 13.0189 38.0554 13.1468L34.3054 15.0218L25.6632 23.664C25.4873 23.8393 25.249 23.9377 25.0007 23.9375C24.9238 23.9374 24.8472 23.9279 24.7726 23.9093L14.7726 21.4093C14.6602 21.3802 14.5543 21.3303 14.4601 21.2625L5.76633 15.0562L1.94915 13.1468C1.43038 12.8874 1.03592 12.4325 0.852492 11.8822C0.669066 11.3319 0.711702 10.7313 0.971022 10.2125L4.85383 2.4484C5.11332 1.92964 5.56821 1.53517 6.11849 1.35175C6.66877 1.16832 7.26936 1.21096 7.78821 1.47028L11.3445 3.2484L19.7429 0.848402C19.9114 0.800207 20.09 0.800207 20.2585 0.848402L28.657 3.2484L32.2132 1.47028C32.7321 1.21096 33.3326 1.16832 33.8829 1.35175C34.4332 1.53517 34.8881 1.92964 35.1476 2.4484L39.0304 10.2125C39.1595 10.4692 39.2364 10.7491 39.2568 11.0357C39.2772 11.3224 39.2406 11.6103 39.1491 11.8828ZM2.78821 11.4703L5.83196 13L10.0007 4.66871L6.94915 3.14684C6.87496 3.11 6.78919 3.10412 6.71067 3.13048C6.63215 3.15685 6.56731 3.21331 6.5304 3.28746L2.64758 11.0515C2.61125 11.1255 2.60564 11.2109 2.63196 11.289C2.64417 11.3283 2.66435 11.3647 2.69123 11.3959C2.71811 11.4271 2.75112 11.4524 2.78821 11.4703ZM29.8445 16.8265L25.0429 12.9812C22.0741 15.5406 18.2335 15.9187 15.0741 13.9C14.7977 13.7242 14.5643 13.4886 14.3912 13.2105C14.218 12.9325 14.1095 12.6191 14.0736 12.2935C14.0378 11.9679 14.0755 11.6384 14.1841 11.3293C14.2926 11.0202 14.4692 10.7395 14.7007 10.5078L21.8445 3.57653C21.9484 3.47631 22.074 3.40145 22.2116 3.35778L20.0007 2.72496L11.9054 5.03121L7.44758 13.9531L15.4007 19.6328L24.7132 21.9609L29.8445 16.8265ZM32.607 14.064L28.171 5.18746H22.8804L16.0195 11.8437C15.989 11.8756 15.9661 11.9139 15.9523 11.9558C15.9385 11.9977 15.9342 12.0421 15.9398 12.0859C15.9446 12.1336 15.9604 12.1796 15.9859 12.2202C16.0113 12.2609 16.0458 12.2951 16.0866 12.3203C18.1632 13.6468 21.421 14.0187 24.3351 11.0828C24.4982 10.9191 24.7159 10.8214 24.9466 10.8084C25.1773 10.7954 25.4047 10.8681 25.5851 11.0125L31.182 15.5L32.607 14.064ZM37.3507 11.0515L33.471 3.28746C33.4341 3.21331 33.3693 3.15685 33.2907 3.13048C33.2122 3.10412 33.1265 3.11 33.0523 3.14684L30.0085 4.66871L34.1695 13L37.2132 11.4781C37.2503 11.4602 37.2833 11.4349 37.3102 11.4037C37.3371 11.3725 37.3572 11.3362 37.3695 11.2968C37.3836 11.257 37.3895 11.2147 37.3868 11.1726C37.3841 11.1304 37.3729 11.0892 37.3538 11.0515H37.3507Z" fill="#0623E5"/>
</svg>
