<svg width="1440" height="686" viewBox="0 0 1440 686" fill="none" xmlns="http://www.w3.org/2000/svg">
<g clip-path="url(#clip0_589_1920)">
<rect width="1440" height="686" fill="#F5F6FF"/>
<path d="M133.04 157L133.008 143.56L126.416 154.632H124.08L117.52 143.848V157H112.656V134.6H116.944L125.328 148.52L133.584 134.6H137.84L137.904 157H133.04ZM142.227 139.784H147.219V157H142.227V139.784ZM144.723 137.384C143.805 137.384 143.059 137.117 142.483 136.584C141.907 136.051 141.619 135.389 141.619 134.6C141.619 133.811 141.907 133.149 142.483 132.616C143.059 132.083 143.805 131.816 144.723 131.816C145.64 131.816 146.387 132.072 146.963 132.584C147.539 133.096 147.827 133.736 147.827 134.504C147.827 135.336 147.539 136.029 146.963 136.584C146.387 137.117 145.64 137.384 144.723 137.384ZM157.004 157.256C155.574 157.256 154.177 157.085 152.812 156.744C151.446 156.381 150.358 155.933 149.548 155.4L151.212 151.816C151.98 152.307 152.908 152.712 153.996 153.032C155.084 153.331 156.15 153.48 157.196 153.48C159.308 153.48 160.364 152.957 160.364 151.912C160.364 151.421 160.076 151.069 159.5 150.856C158.924 150.643 158.038 150.461 156.844 150.312C155.436 150.099 154.273 149.853 153.356 149.576C152.438 149.299 151.638 148.808 150.956 148.104C150.294 147.4 149.964 146.397 149.964 145.096C149.964 144.008 150.273 143.048 150.892 142.216C151.532 141.363 152.449 140.701 153.644 140.232C154.86 139.763 156.289 139.528 157.932 139.528C159.148 139.528 160.353 139.667 161.548 139.944C162.764 140.2 163.766 140.563 164.556 141.032L162.892 144.584C161.377 143.731 159.724 143.304 157.932 143.304C156.865 143.304 156.065 143.453 155.532 143.752C154.998 144.051 154.732 144.435 154.732 144.904C154.732 145.437 155.02 145.811 155.596 146.024C156.172 146.237 157.089 146.44 158.348 146.632C159.756 146.867 160.908 147.123 161.804 147.4C162.7 147.656 163.478 148.136 164.14 148.84C164.801 149.544 165.132 150.525 165.132 151.784C165.132 152.851 164.812 153.8 164.172 154.632C163.532 155.464 162.593 156.115 161.356 156.584C160.14 157.032 158.689 157.256 157.004 157.256ZM173.364 157.256C171.934 157.256 170.537 157.085 169.172 156.744C167.806 156.381 166.718 155.933 165.908 155.4L167.572 151.816C168.34 152.307 169.268 152.712 170.356 153.032C171.444 153.331 172.51 153.48 173.556 153.48C175.668 153.48 176.724 152.957 176.724 151.912C176.724 151.421 176.436 151.069 175.86 150.856C175.284 150.643 174.398 150.461 173.204 150.312C171.796 150.099 170.633 149.853 169.716 149.576C168.798 149.299 167.998 148.808 167.316 148.104C166.654 147.4 166.324 146.397 166.324 145.096C166.324 144.008 166.633 143.048 167.252 142.216C167.892 141.363 168.809 140.701 170.004 140.232C171.22 139.763 172.649 139.528 174.292 139.528C175.508 139.528 176.713 139.667 177.908 139.944C179.124 140.2 180.126 140.563 180.916 141.032L179.252 144.584C177.737 143.731 176.084 143.304 174.292 143.304C173.225 143.304 172.425 143.453 171.892 143.752C171.358 144.051 171.092 144.435 171.092 144.904C171.092 145.437 171.38 145.811 171.956 146.024C172.532 146.237 173.449 146.44 174.708 146.632C176.116 146.867 177.268 147.123 178.164 147.4C179.06 147.656 179.838 148.136 180.5 148.84C181.161 149.544 181.492 150.525 181.492 151.784C181.492 152.851 181.172 153.8 180.532 154.632C179.892 155.464 178.953 156.115 177.716 156.584C176.5 157.032 175.049 157.256 173.364 157.256ZM183.932 139.784H188.924V157H183.932V139.784ZM186.428 137.384C185.51 137.384 184.764 137.117 184.188 136.584C183.612 136.051 183.324 135.389 183.324 134.6C183.324 133.811 183.612 133.149 184.188 132.616C184.764 132.083 185.51 131.816 186.428 131.816C187.345 131.816 188.092 132.072 188.668 132.584C189.244 133.096 189.532 133.736 189.532 134.504C189.532 135.336 189.244 136.029 188.668 136.584C188.092 137.117 187.345 137.384 186.428 137.384ZM201.109 157.256C199.295 157.256 197.663 156.883 196.213 156.136C194.783 155.368 193.663 154.312 192.853 152.968C192.042 151.624 191.637 150.099 191.637 148.392C191.637 146.685 192.042 145.16 192.853 143.816C193.663 142.472 194.783 141.427 196.213 140.68C197.663 139.912 199.295 139.528 201.109 139.528C202.922 139.528 204.543 139.912 205.973 140.68C207.402 141.427 208.522 142.472 209.333 143.816C210.143 145.16 210.549 146.685 210.549 148.392C210.549 150.099 210.143 151.624 209.333 152.968C208.522 154.312 207.402 155.368 205.973 156.136C204.543 156.883 202.922 157.256 201.109 157.256ZM201.109 153.16C202.389 153.16 203.434 152.733 204.245 151.88C205.077 151.005 205.493 149.843 205.493 148.392C205.493 146.941 205.077 145.789 204.245 144.936C203.434 144.061 202.389 143.624 201.109 143.624C199.829 143.624 198.773 144.061 197.941 144.936C197.109 145.789 196.693 146.941 196.693 148.392C196.693 149.843 197.109 151.005 197.941 151.88C198.773 152.733 199.829 153.16 201.109 153.16ZM223.709 139.528C225.843 139.528 227.56 140.168 228.861 141.448C230.184 142.728 230.845 144.627 230.845 147.144V157H225.853V147.912C225.853 146.547 225.555 145.533 224.957 144.872C224.36 144.189 223.496 143.848 222.365 143.848C221.107 143.848 220.104 144.243 219.357 145.032C218.611 145.8 218.237 146.952 218.237 148.488V157H213.245V139.784H218.013V141.8C218.675 141.075 219.496 140.52 220.477 140.136C221.459 139.731 222.536 139.528 223.709 139.528Z" fill="#292A33"/>
<path d="M630 150.8C629.3 150.8 628.6 150.53 628.07 150L621.55 143.48C621.26 143.19 621.26 142.71 621.55 142.42C621.84 142.13 622.32 142.13 622.61 142.42L629.13 148.94C629.61 149.42 630.39 149.42 630.87 148.94L637.39 142.42C637.68 142.13 638.16 142.13 638.45 142.42C638.74 142.71 638.74 143.19 638.45 143.48L631.93 150C631.4 150.53 630.7 150.8 630 150.8Z" fill="#292D32"/>
<path d="M652 176.8H100V177.2H652V176.8Z" fill="#898C9F" mask="url(#path-1-inside-1_589_1920)"/>
<path d="M134.192 236.6L124.496 259H119.376L109.712 236.6H115.312L122.128 252.6L129.04 236.6H134.192ZM135.383 241.784H140.375V259H135.383V241.784ZM137.879 239.384C136.961 239.384 136.215 239.117 135.639 238.584C135.063 238.051 134.775 237.389 134.775 236.6C134.775 235.811 135.063 235.149 135.639 234.616C136.215 234.083 136.961 233.816 137.879 233.816C138.796 233.816 139.543 234.072 140.119 234.584C140.695 235.096 140.983 235.736 140.983 236.504C140.983 237.336 140.695 238.029 140.119 238.584C139.543 239.117 138.796 239.384 137.879 239.384ZM150.16 259.256C148.73 259.256 147.333 259.085 145.968 258.744C144.602 258.381 143.514 257.933 142.704 257.4L144.368 253.816C145.136 254.307 146.064 254.712 147.152 255.032C148.24 255.331 149.306 255.48 150.352 255.48C152.464 255.48 153.52 254.957 153.52 253.912C153.52 253.421 153.232 253.069 152.656 252.856C152.08 252.643 151.194 252.461 150 252.312C148.592 252.099 147.429 251.853 146.512 251.576C145.594 251.299 144.794 250.808 144.112 250.104C143.45 249.4 143.12 248.397 143.12 247.096C143.12 246.008 143.429 245.048 144.048 244.216C144.688 243.363 145.605 242.701 146.8 242.232C148.016 241.763 149.445 241.528 151.088 241.528C152.304 241.528 153.509 241.667 154.704 241.944C155.92 242.2 156.922 242.563 157.712 243.032L156.048 246.584C154.533 245.731 152.88 245.304 151.088 245.304C150.021 245.304 149.221 245.453 148.688 245.752C148.154 246.051 147.888 246.435 147.888 246.904C147.888 247.437 148.176 247.811 148.752 248.024C149.328 248.237 150.245 248.44 151.504 248.632C152.912 248.867 154.064 249.123 154.96 249.4C155.856 249.656 156.634 250.136 157.296 250.84C157.957 251.544 158.288 252.525 158.288 253.784C158.288 254.851 157.968 255.8 157.328 256.632C156.688 257.464 155.749 258.115 154.512 258.584C153.296 259.032 151.845 259.256 150.16 259.256ZM160.728 241.784H165.72V259H160.728V241.784ZM163.224 239.384C162.306 239.384 161.56 239.117 160.984 238.584C160.408 238.051 160.12 237.389 160.12 236.6C160.12 235.811 160.408 235.149 160.984 234.616C161.56 234.083 162.306 233.816 163.224 233.816C164.141 233.816 164.888 234.072 165.464 234.584C166.04 235.096 166.328 235.736 166.328 236.504C166.328 237.336 166.04 238.029 165.464 238.584C164.888 239.117 164.141 239.384 163.224 239.384ZM177.905 259.256C176.091 259.256 174.459 258.883 173.009 258.136C171.579 257.368 170.459 256.312 169.649 254.968C168.838 253.624 168.433 252.099 168.433 250.392C168.433 248.685 168.838 247.16 169.649 245.816C170.459 244.472 171.579 243.427 173.009 242.68C174.459 241.912 176.091 241.528 177.905 241.528C179.718 241.528 181.339 241.912 182.769 242.68C184.198 243.427 185.318 244.472 186.129 245.816C186.939 247.16 187.345 248.685 187.345 250.392C187.345 252.099 186.939 253.624 186.129 254.968C185.318 256.312 184.198 257.368 182.769 258.136C181.339 258.883 179.718 259.256 177.905 259.256ZM177.905 255.16C179.185 255.16 180.23 254.733 181.041 253.88C181.873 253.005 182.289 251.843 182.289 250.392C182.289 248.941 181.873 247.789 181.041 246.936C180.23 246.061 179.185 245.624 177.905 245.624C176.625 245.624 175.569 246.061 174.737 246.936C173.905 247.789 173.489 248.941 173.489 250.392C173.489 251.843 173.905 253.005 174.737 253.88C175.569 254.733 176.625 255.16 177.905 255.16ZM200.506 241.528C202.639 241.528 204.356 242.168 205.658 243.448C206.98 244.728 207.642 246.627 207.642 249.144V259H202.65V249.912C202.65 248.547 202.351 247.533 201.754 246.872C201.156 246.189 200.292 245.848 199.162 245.848C197.903 245.848 196.9 246.243 196.154 247.032C195.407 247.8 195.034 248.952 195.034 250.488V259H190.042V241.784H194.81V243.8C195.471 243.075 196.292 242.52 197.274 242.136C198.255 241.731 199.332 241.528 200.506 241.528Z" fill="#292A33"/>
<path d="M630 252.8C629.3 252.8 628.6 252.53 628.07 252L621.55 245.48C621.26 245.19 621.26 244.71 621.55 244.42C621.84 244.13 622.32 244.13 622.61 244.42L629.13 250.94C629.61 251.42 630.39 251.42 630.87 250.94L637.39 244.42C637.68 244.13 638.16 244.13 638.45 244.42C638.74 244.71 638.74 245.19 638.45 245.48L631.93 252C631.4 252.53 630.7 252.8 630 252.8Z" fill="#292D32"/>
<path d="M652 278.8H100V279.2H652V278.8Z" fill="#898C9F" mask="url(#path-5-inside-2_589_1920)"/>
<path d="M120.816 352.2L117.808 355.336V361H112.656V338.6H117.808V349.064L127.728 338.6H133.488L124.208 348.584L134.032 361H127.984L120.816 352.2ZM151.497 352.456C151.497 352.52 151.465 352.968 151.401 353.8H138.377C138.611 354.867 139.166 355.709 140.041 356.328C140.915 356.947 142.003 357.256 143.305 357.256C144.201 357.256 144.99 357.128 145.673 356.872C146.377 356.595 147.027 356.168 147.625 355.592L150.281 358.472C148.659 360.328 146.291 361.256 143.177 361.256C141.235 361.256 139.518 360.883 138.025 360.136C136.531 359.368 135.379 358.312 134.569 356.968C133.758 355.624 133.353 354.099 133.353 352.392C133.353 350.707 133.747 349.192 134.537 347.848C135.347 346.483 136.446 345.427 137.833 344.68C139.241 343.912 140.809 343.528 142.537 343.528C144.222 343.528 145.747 343.891 147.113 344.616C148.478 345.341 149.545 346.387 150.313 347.752C151.102 349.096 151.497 350.664 151.497 352.456ZM142.569 347.304C141.438 347.304 140.489 347.624 139.721 348.264C138.953 348.904 138.483 349.779 138.313 350.888H146.793C146.622 349.8 146.153 348.936 145.385 348.296C144.617 347.635 143.678 347.304 142.569 347.304ZM170.956 343.784L163.18 362.056C162.39 364.04 161.409 365.437 160.236 366.248C159.084 367.059 157.686 367.464 156.044 367.464C155.148 367.464 154.262 367.325 153.388 367.048C152.513 366.771 151.798 366.387 151.244 365.896L153.068 362.344C153.452 362.685 153.889 362.952 154.38 363.144C154.892 363.336 155.393 363.432 155.884 363.432C156.566 363.432 157.121 363.261 157.548 362.92C157.974 362.6 158.358 362.056 158.7 361.288L158.764 361.128L151.308 343.784H156.46L161.292 355.464L166.156 343.784H170.956ZM191.975 361.384C189.65 361.384 187.549 360.883 185.671 359.88C183.815 358.877 182.354 357.501 181.287 355.752C180.242 353.981 179.719 351.997 179.719 349.8C179.719 347.603 180.242 345.629 181.287 343.88C182.354 342.109 183.815 340.723 185.671 339.72C187.549 338.717 189.65 338.216 191.975 338.216C194.301 338.216 196.391 338.717 198.247 339.72C200.103 340.723 201.565 342.109 202.631 343.88C203.698 345.629 204.231 347.603 204.231 349.8C204.231 351.997 203.698 353.981 202.631 355.752C201.565 357.501 200.103 358.877 198.247 359.88C196.391 360.883 194.301 361.384 191.975 361.384ZM191.975 356.968C193.298 356.968 194.493 356.669 195.559 356.072C196.626 355.453 197.458 354.6 198.055 353.512C198.674 352.424 198.983 351.187 198.983 349.8C198.983 348.413 198.674 347.176 198.055 346.088C197.458 345 196.626 344.157 195.559 343.56C194.493 342.941 193.298 342.632 191.975 342.632C190.653 342.632 189.458 342.941 188.391 343.56C187.325 344.157 186.482 345 185.863 346.088C185.266 347.176 184.967 348.413 184.967 349.8C184.967 351.187 185.266 352.424 185.863 353.512C186.482 354.6 187.325 355.453 188.391 356.072C189.458 356.669 190.653 356.968 191.975 356.968ZM217.311 343.528C218.911 343.528 220.362 343.901 221.663 344.648C222.986 345.373 224.021 346.408 224.767 347.752C225.514 349.075 225.887 350.621 225.887 352.392C225.887 354.163 225.514 355.72 224.767 357.064C224.021 358.387 222.986 359.421 221.663 360.168C220.362 360.893 218.911 361.256 217.311 361.256C214.943 361.256 213.141 360.509 211.903 359.016V361H207.135V337.256H212.127V345.608C213.386 344.221 215.114 343.528 217.311 343.528ZM216.447 357.16C217.727 357.16 218.773 356.733 219.583 355.88C220.415 355.005 220.831 353.843 220.831 352.392C220.831 350.941 220.415 349.789 219.583 348.936C218.773 348.061 217.727 347.624 216.447 347.624C215.167 347.624 214.111 348.061 213.279 348.936C212.469 349.789 212.063 350.941 212.063 352.392C212.063 353.843 212.469 355.005 213.279 355.88C214.111 356.733 215.167 357.16 216.447 357.16ZM227.309 367.464C225.56 367.464 224.226 367.144 223.309 366.504L224.653 362.888C225.229 363.293 225.933 363.496 226.765 363.496C227.405 363.496 227.906 363.283 228.269 362.856C228.632 362.451 228.813 361.832 228.813 361V343.784H233.805V360.968C233.805 362.973 233.229 364.552 232.077 365.704C230.946 366.877 229.357 367.464 227.309 367.464ZM231.309 341.384C230.392 341.384 229.645 341.117 229.069 340.584C228.493 340.051 228.205 339.389 228.205 338.6C228.205 337.811 228.493 337.149 229.069 336.616C229.645 336.083 230.392 335.816 231.309 335.816C232.226 335.816 232.973 336.072 233.549 336.584C234.125 337.096 234.413 337.736 234.413 338.504C234.413 339.336 234.125 340.029 233.549 340.584C232.973 341.117 232.226 341.384 231.309 341.384ZM254.625 352.456C254.625 352.52 254.593 352.968 254.529 353.8H241.505C241.74 354.867 242.295 355.709 243.169 356.328C244.044 356.947 245.132 357.256 246.433 357.256C247.329 357.256 248.119 357.128 248.801 356.872C249.505 356.595 250.156 356.168 250.753 355.592L253.409 358.472C251.788 360.328 249.42 361.256 246.305 361.256C244.364 361.256 242.647 360.883 241.153 360.136C239.66 359.368 238.508 358.312 237.697 356.968C236.887 355.624 236.481 354.099 236.481 352.392C236.481 350.707 236.876 349.192 237.665 347.848C238.476 346.483 239.575 345.427 240.961 344.68C242.369 343.912 243.937 343.528 245.665 343.528C247.351 343.528 248.876 343.891 250.241 344.616C251.607 345.341 252.673 346.387 253.441 347.752C254.231 349.096 254.625 350.664 254.625 352.456ZM245.697 347.304C244.567 347.304 243.617 347.624 242.849 348.264C242.081 348.904 241.612 349.779 241.441 350.888H249.921C249.751 349.8 249.281 348.936 248.513 348.296C247.745 347.635 246.807 347.304 245.697 347.304ZM265.629 361.256C263.794 361.256 262.141 360.883 260.669 360.136C259.218 359.368 258.077 358.312 257.245 356.968C256.434 355.624 256.029 354.099 256.029 352.392C256.029 350.685 256.434 349.16 257.245 347.816C258.077 346.472 259.218 345.427 260.669 344.68C262.141 343.912 263.794 343.528 265.629 343.528C267.442 343.528 269.021 343.912 270.365 344.68C271.73 345.427 272.722 346.504 273.341 347.912L269.469 349.992C268.573 348.413 267.282 347.624 265.597 347.624C264.296 347.624 263.218 348.051 262.365 348.904C261.512 349.757 261.085 350.92 261.085 352.392C261.085 353.864 261.512 355.027 262.365 355.88C263.218 356.733 264.296 357.16 265.597 357.16C267.304 357.16 268.594 356.371 269.469 354.792L273.341 356.904C272.722 358.269 271.73 359.336 270.365 360.104C269.021 360.872 267.442 361.256 265.629 361.256ZM286.929 360.168C286.439 360.531 285.831 360.808 285.105 361C284.401 361.171 283.655 361.256 282.865 361.256C280.817 361.256 279.228 360.733 278.097 359.688C276.988 358.643 276.433 357.107 276.433 355.08V348.008H273.777V344.168H276.433V339.976H281.425V344.168H285.713V348.008H281.425V355.016C281.425 355.741 281.607 356.307 281.969 356.712C282.353 357.096 282.887 357.288 283.569 357.288C284.359 357.288 285.031 357.075 285.585 356.648L286.929 360.168ZM289.092 343.784H294.084V361H289.092V343.784ZM291.588 341.384C290.67 341.384 289.924 341.117 289.348 340.584C288.772 340.051 288.484 339.389 288.484 338.6C288.484 337.811 288.772 337.149 289.348 336.616C289.924 336.083 290.67 335.816 291.588 335.816C292.505 335.816 293.252 336.072 293.828 336.584C294.404 337.096 294.692 337.736 294.692 338.504C294.692 339.336 294.404 340.029 293.828 340.584C293.252 341.117 292.505 341.384 291.588 341.384ZM315.165 343.784L307.901 361H302.749L295.517 343.784H300.669L305.437 355.496L310.365 343.784H315.165ZM332.957 352.456C332.957 352.52 332.925 352.968 332.861 353.8H319.837C320.071 354.867 320.626 355.709 321.501 356.328C322.375 356.947 323.463 357.256 324.765 357.256C325.661 357.256 326.45 357.128 327.133 356.872C327.837 356.595 328.487 356.168 329.085 355.592L331.741 358.472C330.119 360.328 327.751 361.256 324.637 361.256C322.695 361.256 320.978 360.883 319.485 360.136C317.991 359.368 316.839 358.312 316.029 356.968C315.218 355.624 314.813 354.099 314.813 352.392C314.813 350.707 315.207 349.192 315.997 347.848C316.807 346.483 317.906 345.427 319.293 344.68C320.701 343.912 322.269 343.528 323.997 343.528C325.682 343.528 327.207 343.891 328.573 344.616C329.938 345.341 331.005 346.387 331.773 347.752C332.562 349.096 332.957 350.664 332.957 352.456ZM324.029 347.304C322.898 347.304 321.949 347.624 321.181 348.264C320.413 348.904 319.943 349.779 319.773 350.888H328.253C328.082 349.8 327.613 348.936 326.845 348.296C326.077 347.635 325.138 347.304 324.029 347.304ZM341.432 361.256C340.003 361.256 338.606 361.085 337.24 360.744C335.875 360.381 334.787 359.933 333.976 359.4L335.64 355.816C336.408 356.307 337.336 356.712 338.424 357.032C339.512 357.331 340.579 357.48 341.624 357.48C343.736 357.48 344.792 356.957 344.792 355.912C344.792 355.421 344.504 355.069 343.928 354.856C343.352 354.643 342.467 354.461 341.272 354.312C339.864 354.099 338.702 353.853 337.784 353.576C336.867 353.299 336.067 352.808 335.384 352.104C334.723 351.4 334.392 350.397 334.392 349.096C334.392 348.008 334.702 347.048 335.32 346.216C335.96 345.363 336.878 344.701 338.072 344.232C339.288 343.763 340.718 343.528 342.36 343.528C343.576 343.528 344.782 343.667 345.976 343.944C347.192 344.2 348.195 344.563 348.984 345.032L347.32 348.584C345.806 347.731 344.152 347.304 342.36 347.304C341.294 347.304 340.494 347.453 339.96 347.752C339.427 348.051 339.16 348.435 339.16 348.904C339.16 349.437 339.448 349.811 340.024 350.024C340.6 350.237 341.518 350.44 342.776 350.632C344.184 350.867 345.336 351.123 346.232 351.4C347.128 351.656 347.907 352.136 348.568 352.84C349.23 353.544 349.56 354.525 349.56 355.784C349.56 356.851 349.24 357.8 348.6 358.632C347.96 359.464 347.022 360.115 345.784 360.584C344.568 361.032 343.118 361.256 341.432 361.256Z" fill="#292A33"/>
<path d="M630 354.8C629.3 354.8 628.6 354.53 628.07 354L621.55 347.48C621.26 347.19 621.26 346.71 621.55 346.42C621.84 346.13 622.32 346.13 622.61 346.42L629.13 352.94C629.61 353.42 630.39 353.42 630.87 352.94L637.39 346.42C637.68 346.13 638.16 346.13 638.45 346.42C638.74 346.71 638.74 347.19 638.45 347.48L631.93 354C631.4 354.53 630.7 354.8 630 354.8Z" fill="#292D32"/>
<path d="M652 380.8H100V381.2H652V380.8Z" fill="#898C9F" mask="url(#path-9-inside-3_589_1920)"/>
<path d="M117.296 444.824H110.128V440.6H129.648V444.824H122.48V463H117.296V444.824ZM141.909 445.528C144.043 445.528 145.76 446.168 147.061 447.448C148.384 448.728 149.045 450.627 149.045 453.144V463H144.053V453.912C144.053 452.547 143.755 451.533 143.157 450.872C142.56 450.189 141.696 449.848 140.565 449.848C139.307 449.848 138.304 450.243 137.557 451.032C136.811 451.8 136.437 452.952 136.437 454.488V463H131.445V439.256H136.437V447.576C137.099 446.915 137.899 446.413 138.837 446.072C139.776 445.709 140.8 445.528 141.909 445.528ZM169.982 454.456C169.982 454.52 169.95 454.968 169.886 455.8H156.862C157.096 456.867 157.651 457.709 158.526 458.328C159.4 458.947 160.488 459.256 161.79 459.256C162.686 459.256 163.475 459.128 164.158 458.872C164.862 458.595 165.512 458.168 166.11 457.592L168.766 460.472C167.144 462.328 164.776 463.256 161.662 463.256C159.72 463.256 158.003 462.883 156.51 462.136C155.016 461.368 153.864 460.312 153.054 458.968C152.243 457.624 151.838 456.099 151.838 454.392C151.838 452.707 152.232 451.192 153.022 449.848C153.832 448.483 154.931 447.427 156.318 446.68C157.726 445.912 159.294 445.528 161.022 445.528C162.707 445.528 164.232 445.891 165.598 446.616C166.963 447.341 168.03 448.387 168.798 449.752C169.587 451.096 169.982 452.664 169.982 454.456ZM161.054 449.304C159.923 449.304 158.974 449.624 158.206 450.264C157.438 450.904 156.968 451.779 156.798 452.888H165.278C165.107 451.8 164.638 450.936 163.87 450.296C163.102 449.635 162.163 449.304 161.054 449.304ZM192.16 463.384C189.877 463.384 187.808 462.893 185.952 461.912C184.117 460.909 182.666 459.533 181.6 457.784C180.554 456.013 180.032 454.019 180.032 451.8C180.032 449.581 180.554 447.597 181.6 445.848C182.666 444.077 184.117 442.701 185.952 441.72C187.808 440.717 189.888 440.216 192.192 440.216C194.133 440.216 195.882 440.557 197.44 441.24C199.018 441.923 200.341 442.904 201.408 444.184L198.08 447.256C196.565 445.507 194.688 444.632 192.448 444.632C191.061 444.632 189.824 444.941 188.736 445.56C187.648 446.157 186.794 447 186.176 448.088C185.578 449.176 185.28 450.413 185.28 451.8C185.28 453.187 185.578 454.424 186.176 455.512C186.794 456.6 187.648 457.453 188.736 458.072C189.824 458.669 191.061 458.968 192.448 458.968C194.688 458.968 196.565 458.083 198.08 456.312L201.408 459.384C200.341 460.685 199.018 461.677 197.44 462.36C195.861 463.043 194.101 463.384 192.16 463.384ZM220.823 445.784V463H216.087V460.952C215.426 461.699 214.636 462.275 213.719 462.68C212.802 463.064 211.81 463.256 210.743 463.256C208.482 463.256 206.69 462.605 205.367 461.304C204.044 460.003 203.383 458.072 203.383 455.512V445.784H208.375V454.776C208.375 457.549 209.538 458.936 211.863 458.936C213.058 458.936 214.018 458.552 214.743 457.784C215.468 456.995 215.831 455.832 215.831 454.296V445.784H220.823ZM229.576 448.056C230.173 447.224 230.973 446.595 231.976 446.168C233 445.741 234.173 445.528 235.496 445.528V450.136C234.941 450.093 234.568 450.072 234.376 450.072C232.946 450.072 231.826 450.477 231.016 451.288C230.205 452.077 229.8 453.272 229.8 454.872V463H224.808V445.784H229.576V448.056ZM242.592 448.056C243.189 447.224 243.989 446.595 244.992 446.168C246.016 445.741 247.189 445.528 248.512 445.528V450.136C247.957 450.093 247.584 450.072 247.392 450.072C245.963 450.072 244.843 450.477 244.032 451.288C243.221 452.077 242.816 453.272 242.816 454.872V463H237.824V445.784H242.592V448.056ZM250.84 445.784H255.832V463H250.84V445.784ZM253.336 443.384C252.419 443.384 251.672 443.117 251.096 442.584C250.52 442.051 250.232 441.389 250.232 440.6C250.232 439.811 250.52 439.149 251.096 438.616C251.672 438.083 252.419 437.816 253.336 437.816C254.254 437.816 255 438.072 255.576 438.584C256.152 439.096 256.44 439.736 256.44 440.504C256.44 441.336 256.152 442.029 255.576 442.584C255 443.117 254.254 443.384 253.336 443.384ZM268.145 463.256C266.311 463.256 264.657 462.883 263.185 462.136C261.735 461.368 260.593 460.312 259.761 458.968C258.951 457.624 258.545 456.099 258.545 454.392C258.545 452.685 258.951 451.16 259.761 449.816C260.593 448.472 261.735 447.427 263.185 446.68C264.657 445.912 266.311 445.528 268.145 445.528C269.959 445.528 271.537 445.912 272.881 446.68C274.247 447.427 275.239 448.504 275.857 449.912L271.985 451.992C271.089 450.413 269.799 449.624 268.113 449.624C266.812 449.624 265.735 450.051 264.881 450.904C264.028 451.757 263.601 452.92 263.601 454.392C263.601 455.864 264.028 457.027 264.881 457.88C265.735 458.733 266.812 459.16 268.113 459.16C269.82 459.16 271.111 458.371 271.985 456.792L275.857 458.904C275.239 460.269 274.247 461.336 272.881 462.104C271.537 462.872 269.959 463.256 268.145 463.256ZM295.436 445.784V463H290.7V460.952C290.038 461.699 289.249 462.275 288.332 462.68C287.414 463.064 286.422 463.256 285.356 463.256C283.094 463.256 281.302 462.605 279.98 461.304C278.657 460.003 277.996 458.072 277.996 455.512V445.784H282.988V454.776C282.988 457.549 284.15 458.936 286.476 458.936C287.67 458.936 288.63 458.552 289.356 457.784C290.081 456.995 290.444 455.832 290.444 454.296V445.784H295.436ZM299.42 439.256H304.412V463H299.42V439.256ZM325.749 445.784V463H321.013V460.952C320.352 461.699 319.563 462.275 318.645 462.68C317.728 463.064 316.736 463.256 315.669 463.256C313.408 463.256 311.616 462.605 310.293 461.304C308.971 460.003 308.309 458.072 308.309 455.512V445.784H313.301V454.776C313.301 457.549 314.464 458.936 316.789 458.936C317.984 458.936 318.944 458.552 319.669 457.784C320.395 456.995 320.757 455.832 320.757 454.296V445.784H325.749ZM351.782 445.528C353.937 445.528 355.643 446.168 356.902 447.448C358.182 448.707 358.822 450.605 358.822 453.144V463H353.83V453.912C353.83 452.547 353.542 451.533 352.966 450.872C352.411 450.189 351.611 449.848 350.566 449.848C349.393 449.848 348.465 450.232 347.782 451C347.099 451.747 346.758 452.867 346.758 454.36V463H341.766V453.912C341.766 451.203 340.678 449.848 338.502 449.848C337.35 449.848 336.433 450.232 335.75 451C335.067 451.747 334.726 452.867 334.726 454.36V463H329.734V445.784H334.502V447.768C335.142 447.043 335.921 446.488 336.838 446.104C337.777 445.72 338.801 445.528 339.91 445.528C341.126 445.528 342.225 445.773 343.206 446.264C344.187 446.733 344.977 447.427 345.574 448.344C346.278 447.448 347.163 446.755 348.23 446.264C349.318 445.773 350.502 445.528 351.782 445.528Z" fill="#292A33"/>
<path d="M630 456.8C629.3 456.8 628.6 456.53 628.07 456L621.55 449.48C621.26 449.19 621.26 448.71 621.55 448.42C621.84 448.13 622.32 448.13 622.61 448.42L629.13 454.94C629.61 455.42 630.39 455.42 630.87 454.94L637.39 448.42C637.68 448.13 638.16 448.13 638.45 448.42C638.74 448.71 638.74 449.19 638.45 449.48L631.93 456C631.4 456.53 630.7 456.8 630 456.8Z" fill="#292D32"/>
<path d="M652 482.8H100V483.2H652V482.8Z" fill="#898C9F" mask="url(#path-13-inside-4_589_1920)"/>
<path d="M120.816 556.2L117.808 559.336V565H112.656V542.6H117.808V553.064L127.728 542.6H133.488L124.208 552.584L134.032 565H127.984L120.816 556.2ZM151.497 556.456C151.497 556.52 151.465 556.968 151.401 557.8H138.377C138.611 558.867 139.166 559.709 140.041 560.328C140.915 560.947 142.003 561.256 143.305 561.256C144.201 561.256 144.99 561.128 145.673 560.872C146.377 560.595 147.027 560.168 147.625 559.592L150.281 562.472C148.659 564.328 146.291 565.256 143.177 565.256C141.235 565.256 139.518 564.883 138.025 564.136C136.531 563.368 135.379 562.312 134.569 560.968C133.758 559.624 133.353 558.099 133.353 556.392C133.353 554.707 133.747 553.192 134.537 551.848C135.347 550.483 136.446 549.427 137.833 548.68C139.241 547.912 140.809 547.528 142.537 547.528C144.222 547.528 145.747 547.891 147.113 548.616C148.478 549.341 149.545 550.387 150.313 551.752C151.102 553.096 151.497 554.664 151.497 556.456ZM142.569 551.304C141.438 551.304 140.489 551.624 139.721 552.264C138.953 552.904 138.483 553.779 138.313 554.888H146.793C146.622 553.8 146.153 552.936 145.385 552.296C144.617 551.635 143.678 551.304 142.569 551.304ZM170.956 547.784L163.18 566.056C162.39 568.04 161.409 569.437 160.236 570.248C159.084 571.059 157.686 571.464 156.044 571.464C155.148 571.464 154.262 571.325 153.388 571.048C152.513 570.771 151.798 570.387 151.244 569.896L153.068 566.344C153.452 566.685 153.889 566.952 154.38 567.144C154.892 567.336 155.393 567.432 155.884 567.432C156.566 567.432 157.121 567.261 157.548 566.92C157.974 566.6 158.358 566.056 158.7 565.288L158.764 565.128L151.308 547.784H156.46L161.292 559.464L166.156 547.784H170.956ZM188.487 565.384C186.717 565.384 184.999 565.149 183.335 564.68C181.693 564.189 180.37 563.56 179.367 562.792L181.127 558.888C182.087 559.592 183.229 560.157 184.551 560.584C185.874 561.011 187.197 561.224 188.519 561.224C189.991 561.224 191.079 561.011 191.783 560.584C192.487 560.136 192.839 559.549 192.839 558.824C192.839 558.291 192.626 557.853 192.199 557.512C191.794 557.149 191.261 556.861 190.599 556.648C189.959 556.435 189.085 556.2 187.975 555.944C186.269 555.539 184.871 555.133 183.783 554.728C182.695 554.323 181.757 553.672 180.967 552.776C180.199 551.88 179.815 550.685 179.815 549.192C179.815 547.891 180.167 546.717 180.871 545.672C181.575 544.605 182.631 543.763 184.039 543.144C185.469 542.525 187.207 542.216 189.255 542.216C190.685 542.216 192.082 542.387 193.447 542.728C194.813 543.069 196.007 543.56 197.031 544.2L195.431 548.136C193.362 546.963 191.293 546.376 189.223 546.376C187.773 546.376 186.695 546.611 185.991 547.08C185.309 547.549 184.967 548.168 184.967 548.936C184.967 549.704 185.362 550.28 186.151 550.664C186.962 551.027 188.189 551.389 189.831 551.752C191.538 552.157 192.935 552.563 194.023 552.968C195.111 553.373 196.039 554.013 196.807 554.888C197.597 555.763 197.991 556.947 197.991 558.44C197.991 559.72 197.629 560.893 196.903 561.96C196.199 563.005 195.133 563.837 193.703 564.456C192.274 565.075 190.535 565.384 188.487 565.384ZM211.646 564.168C211.155 564.531 210.547 564.808 209.822 565C209.118 565.171 208.371 565.256 207.582 565.256C205.534 565.256 203.944 564.733 202.814 563.688C201.704 562.643 201.15 561.107 201.15 559.08V552.008H198.494V548.168H201.15V543.976H206.142V548.168H210.43V552.008H206.142V559.016C206.142 559.741 206.323 560.307 206.686 560.712C207.07 561.096 207.603 561.288 208.286 561.288C209.075 561.288 209.747 561.075 210.302 560.648L211.646 564.168ZM218.576 550.056C219.173 549.224 219.973 548.595 220.976 548.168C222 547.741 223.173 547.528 224.496 547.528V552.136C223.941 552.093 223.568 552.072 223.376 552.072C221.946 552.072 220.826 552.477 220.016 553.288C219.205 554.077 218.8 555.272 218.8 556.872V565H213.808V547.784H218.576V550.056ZM243.532 556.456C243.532 556.52 243.5 556.968 243.436 557.8H230.412C230.646 558.867 231.201 559.709 232.076 560.328C232.95 560.947 234.038 561.256 235.34 561.256C236.236 561.256 237.025 561.128 237.708 560.872C238.412 560.595 239.062 560.168 239.66 559.592L242.316 562.472C240.694 564.328 238.326 565.256 235.212 565.256C233.27 565.256 231.553 564.883 230.06 564.136C228.566 563.368 227.414 562.312 226.604 560.968C225.793 559.624 225.388 558.099 225.388 556.392C225.388 554.707 225.782 553.192 226.572 551.848C227.382 550.483 228.481 549.427 229.868 548.68C231.276 547.912 232.844 547.528 234.572 547.528C236.257 547.528 237.782 547.891 239.148 548.616C240.513 549.341 241.58 550.387 242.348 551.752C243.137 553.096 243.532 554.664 243.532 556.456ZM234.604 551.304C233.473 551.304 232.524 551.624 231.756 552.264C230.988 552.904 230.518 553.779 230.348 554.888H238.828C238.657 553.8 238.188 552.936 237.42 552.296C236.652 551.635 235.713 551.304 234.604 551.304ZM256.679 547.528C258.813 547.528 260.53 548.168 261.831 549.448C263.154 550.728 263.815 552.627 263.815 555.144V565H258.823V555.912C258.823 554.547 258.525 553.533 257.927 552.872C257.33 552.189 256.466 551.848 255.335 551.848C254.077 551.848 253.074 552.243 252.327 553.032C251.581 553.8 251.207 554.952 251.207 556.488V565H246.215V547.784H250.983V549.8C251.645 549.075 252.466 548.52 253.447 548.136C254.429 547.731 255.506 547.528 256.679 547.528ZM285.648 547.784V562.12C285.648 565.277 284.826 567.624 283.184 569.16C281.541 570.696 279.141 571.464 275.984 571.464C274.32 571.464 272.741 571.261 271.248 570.856C269.754 570.451 268.517 569.864 267.536 569.096L269.52 565.512C270.245 566.109 271.162 566.579 272.272 566.92C273.381 567.283 274.49 567.464 275.6 567.464C277.328 567.464 278.597 567.069 279.408 566.28C280.24 565.512 280.656 564.339 280.656 562.76V562.024C279.354 563.453 277.541 564.168 275.216 564.168C273.637 564.168 272.186 563.827 270.864 563.144C269.562 562.44 268.528 561.459 267.76 560.2C266.992 558.941 266.608 557.491 266.608 555.848C266.608 554.205 266.992 552.755 267.76 551.496C268.528 550.237 269.562 549.267 270.864 548.584C272.186 547.88 273.637 547.528 275.216 547.528C277.712 547.528 279.61 548.349 280.912 549.992V547.784H285.648ZM276.208 560.072C277.53 560.072 278.608 559.688 279.44 558.92C280.293 558.131 280.72 557.107 280.72 555.848C280.72 554.589 280.293 553.576 279.44 552.808C278.608 552.019 277.53 551.624 276.208 551.624C274.885 551.624 273.797 552.019 272.944 552.808C272.09 553.576 271.664 554.589 271.664 555.848C271.664 557.107 272.09 558.131 272.944 558.92C273.797 559.688 274.885 560.072 276.208 560.072ZM300.758 564.168C300.267 564.531 299.659 564.808 298.934 565C298.23 565.171 297.483 565.256 296.694 565.256C294.646 565.256 293.057 564.733 291.926 563.688C290.817 562.643 290.262 561.107 290.262 559.08V552.008H287.606V548.168H290.262V543.976H295.254V548.168H299.542V552.008H295.254V559.016C295.254 559.741 295.435 560.307 295.798 560.712C296.182 561.096 296.715 561.288 297.398 561.288C298.187 561.288 298.859 561.075 299.414 560.648L300.758 564.168ZM313.384 547.528C315.518 547.528 317.235 548.168 318.536 549.448C319.859 550.728 320.52 552.627 320.52 555.144V565H315.528V555.912C315.528 554.547 315.23 553.533 314.632 552.872C314.035 552.189 313.171 551.848 312.04 551.848C310.782 551.848 309.779 552.243 309.032 553.032C308.286 553.8 307.912 554.952 307.912 556.488V565H302.92V541.256H307.912V549.576C308.574 548.915 309.374 548.413 310.312 548.072C311.251 547.709 312.275 547.528 313.384 547.528Z" fill="#292A33"/>
<path d="M630 558.8C629.3 558.8 628.6 558.53 628.07 558L621.55 551.48C621.26 551.19 621.26 550.71 621.55 550.42C621.84 550.13 622.32 550.13 622.61 550.42L629.13 556.94C629.61 557.42 630.39 557.42 630.87 556.94L637.39 550.42C637.68 550.13 638.16 550.13 638.45 550.42C638.74 550.71 638.74 551.19 638.45 551.48L631.93 558C631.4 558.53 630.7 558.8 630 558.8Z" fill="#292D32"/>
<path d="M652 584.8H100V585.2H652V584.8Z" fill="#898C9F" mask="url(#path-17-inside-5_589_1920)"/>
<g opacity="0.4">
<g opacity="0.1">
<rect x="914.78" y="115.78" width="622.44" height="622.44" rx="311.22" stroke="#67A24F" stroke-width="1.56" stroke-dasharray="12.48 12.48"/>
</g>
<g opacity="0.1">
<rect x="966.112" y="179.186" width="501.666" height="501.666" rx="250.833" stroke="#020C4F" stroke-width="1.56" stroke-dasharray="12.48 12.48"/>
</g>
<g opacity="0.1">
<rect x="940.948" y="147.986" width="551.988" height="551.988" rx="275.994" stroke="#020C4F" stroke-width="1.56" stroke-dasharray="12.48 12.48"/>
</g>
<g opacity="0.1">
<rect x="991.268" y="201.329" width="451.343" height="451.343" rx="225.672" stroke="#FBD508" stroke-width="1.56" stroke-dasharray="12.48 12.48"/>
</g>
<g opacity="0.1">
<rect x="1016.43" y="226.49" width="401.021" height="401.021" rx="200.51" stroke="#67A24F" stroke-opacity="0.1" stroke-width="1.56" stroke-dasharray="12.48 12.48"/>
</g>
<g opacity="0.1">
<rect x="1041.59" y="251.651" width="350.698" height="350.698" rx="175.349" stroke="#FF5765" stroke-opacity="0.1" stroke-width="1.56" stroke-dasharray="12.48 12.48"/>
</g>
<g opacity="0.1">
<rect x="1066.76" y="276.812" width="300.375" height="300.375" rx="150.188" stroke="#020C4F" stroke-width="1.56" stroke-dasharray="12.48 12.48"/>
</g>
<g opacity="0.1">
<rect x="1091.91" y="301.973" width="250.053" height="250.053" rx="125.026" stroke="#FBD508" stroke-width="1.56" stroke-dasharray="12.48 12.48"/>
</g>
<g opacity="0.1">
<rect x="1117.08" y="327.134" width="199.73" height="199.73" rx="99.8652" stroke="#FA8B65" stroke-width="1.56" stroke-dasharray="12.48 12.48"/>
</g>
</g>
</g>
<defs>
<clipPath id="clip0_589_1920">
<rect width="1440" height="686" fill="white"/>
</clipPath>
</defs>
</svg>
